M48
;GenerationSoftware,Autodesk,EAGLE,9.7.0*%
;CreationDate,2025-04-13T10:42:44Z*%
FMAT,2
ICI,OFF
METRIC,TZ,000.000
T7C0.600
T6C0.610
T5C0.700
T4C1.000
T3C1.016
T2C1.500
T1C2.200
%
G90
M71
T1
X34608Y6350
X60642Y6350
X47625Y6350
X8573Y20955
X21590Y20955
X34608Y20955
X47625Y20955
X21590Y6350
X60642Y20955
X8573Y6350
X12972Y36830
X4173Y36830
X25990Y36830
X17190Y36830
X56242Y36830
X65042Y36830
X39008Y36830
X30207Y36830
X52025Y36830
X43225Y36830
T2
X63120Y56832
X53720Y56832
X6095Y56832
X15495Y56832
X46417Y84011
X55817Y84011
X22797Y84011
X13397Y84011
X39308Y56832
X29907Y56832
T3
X8573Y12065
X47625Y12065
X8573Y1905
X8573Y9525
X64808Y104534
X65723Y94297
X65723Y91757
X65723Y89217
X65723Y86678
X65723Y84138
X65723Y81598
X23495Y103187
X23495Y100647
X26035Y103187
X26035Y100647
X21590Y9525
X28575Y103187
X28575Y100647
X31115Y103187
X21590Y1905
X21590Y12065
X31115Y100647
X33655Y103187
X33655Y100647
X8928Y104534
X8928Y98031
X4407Y104534
X4407Y98031
X60642Y24130
X60642Y16510
X64808Y98031
X60287Y104534
X34608Y9525
X60642Y26670
X60287Y98031
X34608Y1905
X34608Y12065
X60642Y9525
X47625Y26670
X47625Y16510
X47625Y24130
X34608Y26670
X34608Y16510
X34608Y24130
X21590Y26670
X21590Y16510
X21590Y24130
X8573Y26670
X8573Y16510
X8573Y24130
X60642Y1905
X47625Y1905
X47625Y9525
X60642Y12065
T4
X32107Y49832
X24090Y30130
X21590Y30130
X53617Y77011
X13295Y49832
X10795Y49832
X8295Y49832
X6072Y30130
X8573Y30130
X11072Y30130
X37108Y30130
X34608Y30130
X32107Y30130
X50125Y30130
X47625Y30130
X45125Y30130
X55920Y49832
X63142Y30130
X60642Y30130
X58142Y30130
X58420Y49832
X60920Y49832
X20598Y77011
X18098Y77011
X15597Y77011
X48617Y77011
X19090Y30130
X34608Y49832
X37108Y49832
X51117Y77011
T5
X56197Y103282
X13017Y99282
X13017Y103282
X13017Y101282
X56197Y99282
X56197Y101282
T6
X48577Y69215
X48577Y73025
X47307Y70485
X47307Y73025
X48577Y71755
X47307Y71755
X48577Y70485
X47307Y69215
X48577Y67945
X47307Y67945
T7
X20955Y50165
X20955Y43180
X8255Y61912
X61277Y62547
X60960Y45720
X35560Y68898
X33020Y76518
X34290Y68580
X32067Y74930
X48577Y64135
X46672Y62547
X46355Y48260
X40005Y40958
X10160Y39053
X2540Y99695
X22860Y62547
X22860Y50165
X22860Y67628
X12700Y64135
X10795Y73025
X13970Y88582
X10160Y40640
X13017Y79058
X64135Y12382
X64135Y15557
X60960Y32702
X66040Y73343
X62230Y32067
X66675Y74613
X10795Y34925
X60325Y35243
X36513Y65405
X58420Y33973
X62865Y73660
X67628Y76200
X20320Y87630
X20320Y85725
X58896Y35878
X60960Y72073
X35560Y38100
X34290Y80963
X35243Y79693
X46672Y76518
X59690Y33338
X62547Y75248
X34608Y85090
X37783Y87313
X39370Y78105
X50800Y81598
X39053Y80645
X48260Y82233
X38735Y79375
X49530Y81915
X30797Y43180
X31750Y39370
X64135Y18098
X53022Y42466
X62230Y13017
X62230Y17780
X50165Y38735
X6985Y32385
X7302Y14605
X13335Y43180
X20638Y72708
X6032Y70485
X54610Y60960
X47307Y60960
X59055Y76518
X59055Y37624
X32385Y66040
X34925Y66040
X37783Y73343
X44132Y72708
X55880Y76200
X36195Y77153
X56515Y74930
X36830Y75565
X34608Y74930
X36513Y88900
X34925Y87313
X60325Y89852
X52070Y89852
X47625Y89852
X48260Y85725
X39688Y83820
X30480Y73660
X30480Y80010
X26352Y86360
X41275Y65405
X42228Y68580
X13335Y87313
X27622Y56832
X10478Y71755
X16510Y32385
X15240Y5715
X53975Y26670
X41275Y26670
X5080Y60960
X53975Y69850
X62547Y66993
X57150Y66993
X6985Y86360
X5398Y86360
X1270Y86360
X5398Y88265
X3810Y88265
X1270Y88265
X1270Y90170
X1270Y92075
X1270Y93980
X1270Y95885
X6032Y96837
X5080Y50800
X48260Y60007
X59690Y46672
X45402Y78105
X37148Y81915
X53340Y5715
X27940Y5715
X15240Y21590
X53975Y21590
X41275Y21590
X27940Y21590
X12700Y20320
X27940Y26352
X53975Y30480
X41275Y30480
X27940Y30480
X57150Y54610
X56197Y47625
X34290Y54610
X21590Y70168
X40005Y92710
X22860Y81280
X57150Y87630
X61277Y60642
X62230Y46672
X63500Y21590
X67945Y5080
X50800Y1270
X25400Y1270
X5080Y1270
X1270Y5080
X1270Y15240
X67945Y101600
X62230Y105410
X6350Y105410
X1270Y101600
X1270Y73978
X1270Y60960
X1270Y55880
X1270Y45720
X27622Y44132
X58420Y62230
X10478Y88900
X13970Y61595
X12065Y52705
X18733Y57150
X26670Y92075
X15557Y92075
X21590Y56197
X38735Y41910
X57150Y43815
X45085Y64135
X31750Y78105
X34290Y61277
X33814Y73819
X19368Y92075
X22860Y92075
X43498Y101600
X50165Y93980
X32385Y93345
X43815Y95567
X13335Y72708
X13335Y93027
X3810Y86360
X32385Y43180
X48260Y48577
X53340Y50165
X29210Y86043
X44132Y81598
X10478Y67945
X24130Y56197
X28257Y82233
X26987Y71755
X27622Y77153
X21273Y61912
X37783Y58737
X58420Y78423
X57150Y72073
X41275Y69533
X61277Y73660
M30