G04 EAGLE Gerber RS-274X export*
G75*
%MOMM*%
%FSLAX34Y34*%
%LPD*%
%INSilkscreen Bottom*%
%IPPOS*%
%AMOC8*
5,1,8,0,0,1.08239X$1,22.5*%
G01*
G04 Define Apertures*
%ADD10C,0.406400*%
%ADD11C,0.152400*%
%ADD12C,0.203200*%
%ADD13R,0.508000X0.508000*%
G36*
X504825Y701254D02*
X504825Y702988D01*
X508434Y704407D01*
X508434Y710030D01*
X504825Y711440D01*
X504825Y713148D01*
X517166Y708191D01*
X517166Y706290D01*
X504825Y701254D01*
G37*
%LPC*%
G36*
X509739Y704915D02*
X513794Y706491D01*
X514829Y706868D01*
X515659Y707140D01*
X515905Y707218D01*
X515178Y707455D01*
X514455Y707700D01*
X513811Y707945D01*
X509739Y709531D01*
X509739Y704915D01*
G37*
%LPD*%
G36*
X511052Y714058D02*
X510570Y714070D01*
X510103Y714105D01*
X509653Y714162D01*
X509219Y714243D01*
X508800Y714347D01*
X508398Y714475D01*
X508011Y714625D01*
X507641Y714798D01*
X507289Y714994D01*
X506959Y715210D01*
X506649Y715447D01*
X506361Y715704D01*
X506094Y715982D01*
X505848Y716281D01*
X505624Y716600D01*
X505421Y716940D01*
X505240Y717299D01*
X505083Y717674D01*
X504951Y718066D01*
X504843Y718475D01*
X504758Y718900D01*
X504698Y719343D01*
X504662Y719801D01*
X504650Y720277D01*
X504658Y720689D01*
X504684Y721094D01*
X504727Y721491D01*
X504787Y721881D01*
X504864Y722263D01*
X504958Y722638D01*
X505069Y723005D01*
X505197Y723364D01*
X505341Y723713D01*
X505499Y724048D01*
X505671Y724370D01*
X505857Y724677D01*
X506058Y724971D01*
X506272Y725250D01*
X506501Y725516D01*
X506743Y725769D01*
X511000Y725769D01*
X511000Y720540D01*
X509598Y720540D01*
X509598Y724227D01*
X507374Y724227D01*
X507075Y723878D01*
X506809Y723479D01*
X506576Y723031D01*
X506375Y722532D01*
X506214Y721999D01*
X506099Y721445D01*
X506030Y720871D01*
X506007Y720277D01*
X506029Y719761D01*
X506092Y719275D01*
X506198Y718817D01*
X506346Y718387D01*
X506536Y717987D01*
X506769Y717615D01*
X507043Y717272D01*
X507361Y716957D01*
X507714Y716676D01*
X508099Y716432D01*
X508514Y716226D01*
X508960Y716058D01*
X509437Y715926D01*
X509945Y715833D01*
X510483Y715776D01*
X511052Y715758D01*
X511623Y715775D01*
X512160Y715828D01*
X512664Y715916D01*
X513136Y716040D01*
X513574Y716199D01*
X513980Y716393D01*
X514352Y716623D01*
X514692Y716887D01*
X514994Y717186D01*
X515257Y717515D01*
X515479Y717876D01*
X515660Y718269D01*
X515802Y718693D01*
X515903Y719149D01*
X515963Y719636D01*
X515983Y720154D01*
X515976Y720491D01*
X515953Y720814D01*
X515916Y721122D01*
X515863Y721417D01*
X515795Y721697D01*
X515712Y721963D01*
X515615Y722215D01*
X515502Y722453D01*
X515372Y722678D01*
X515225Y722891D01*
X515060Y723090D01*
X514878Y723278D01*
X514677Y723453D01*
X514459Y723615D01*
X514223Y723765D01*
X513969Y723903D01*
X514442Y725497D01*
X514810Y725315D01*
X515152Y725114D01*
X515468Y724896D01*
X515758Y724658D01*
X516022Y724403D01*
X516260Y724129D01*
X516472Y723837D01*
X516658Y723526D01*
X516820Y723195D01*
X516961Y722839D01*
X517079Y722459D01*
X517177Y722055D01*
X517252Y721627D01*
X517306Y721175D01*
X517339Y720698D01*
X517350Y720198D01*
X517343Y719839D01*
X517324Y719489D01*
X517292Y719150D01*
X517247Y718821D01*
X517189Y718503D01*
X517118Y718194D01*
X517035Y717896D01*
X516938Y717608D01*
X516829Y717330D01*
X516707Y717062D01*
X516571Y716805D01*
X516424Y716557D01*
X516263Y716320D01*
X516089Y716093D01*
X515703Y715670D01*
X515270Y715292D01*
X515038Y715122D01*
X514795Y714965D01*
X514541Y714820D01*
X514277Y714688D01*
X514002Y714568D01*
X513717Y714461D01*
X513421Y714367D01*
X513115Y714285D01*
X512797Y714216D01*
X512470Y714159D01*
X512131Y714115D01*
X511782Y714084D01*
X511423Y714065D01*
X511052Y714058D01*
G37*
G36*
X517166Y691997D02*
X515799Y691997D01*
X515799Y696236D01*
X504825Y696236D01*
X504825Y697900D01*
X515799Y697900D01*
X515799Y702139D01*
X517166Y702139D01*
X517166Y691997D01*
G37*
G36*
X507890Y682905D02*
X507498Y682989D01*
X507131Y683092D01*
X506789Y683215D01*
X506473Y683358D01*
X506182Y683521D01*
X505916Y683704D01*
X505675Y683907D01*
X505460Y684129D01*
X505270Y684372D01*
X505106Y684634D01*
X504966Y684917D01*
X504852Y685219D01*
X504764Y685541D01*
X504700Y685884D01*
X504663Y686246D01*
X504650Y686628D01*
X504666Y687039D01*
X504714Y687428D01*
X504795Y687794D01*
X504907Y688139D01*
X505052Y688460D01*
X505229Y688759D01*
X505438Y689036D01*
X505679Y689290D01*
X505948Y689518D01*
X506241Y689716D01*
X506559Y689883D01*
X506900Y690019D01*
X507265Y690126D01*
X507654Y690202D01*
X508067Y690247D01*
X508504Y690262D01*
X517166Y690262D01*
X517166Y686225D01*
X515799Y686225D01*
X515799Y688598D01*
X508469Y688598D01*
X508175Y688590D01*
X507901Y688565D01*
X507644Y688524D01*
X507405Y688467D01*
X507185Y688393D01*
X506983Y688303D01*
X506799Y688196D01*
X506634Y688073D01*
X506487Y687935D01*
X506360Y687786D01*
X506252Y687624D01*
X506164Y687451D01*
X506095Y687265D01*
X506047Y687068D01*
X506017Y686858D01*
X506007Y686636D01*
X506016Y686433D01*
X506043Y686238D01*
X506087Y686052D01*
X506150Y685874D01*
X506230Y685706D01*
X506328Y685546D01*
X506443Y685395D01*
X506577Y685253D01*
X506726Y685121D01*
X506889Y685001D01*
X507067Y684894D01*
X507258Y684799D01*
X507463Y684717D01*
X507682Y684647D01*
X507915Y684589D01*
X508162Y684543D01*
X507890Y682905D01*
G37*
G36*
X603479Y936625D02*
X598863Y936625D01*
X598423Y936637D01*
X597996Y936673D01*
X597582Y936732D01*
X597181Y936815D01*
X596794Y936923D01*
X596419Y937054D01*
X596058Y937208D01*
X595710Y937387D01*
X595378Y937588D01*
X595065Y937810D01*
X594772Y938053D01*
X594499Y938316D01*
X594245Y938601D01*
X594010Y938907D01*
X593795Y939233D01*
X593599Y939581D01*
X593424Y939946D01*
X593273Y940327D01*
X593145Y940722D01*
X593041Y941132D01*
X592959Y941557D01*
X592901Y941998D01*
X592866Y942453D01*
X592854Y942922D01*
X592861Y943280D01*
X592881Y943626D01*
X592914Y943963D01*
X592961Y944289D01*
X593021Y944605D01*
X593094Y944910D01*
X593181Y945205D01*
X593280Y945490D01*
X593393Y945764D01*
X593520Y946028D01*
X593660Y946281D01*
X593813Y946525D01*
X593979Y946757D01*
X594159Y946980D01*
X594352Y947192D01*
X594558Y947394D01*
X594777Y947584D01*
X595006Y947762D01*
X595247Y947928D01*
X595499Y948081D01*
X595763Y948223D01*
X596037Y948352D01*
X596323Y948468D01*
X596620Y948573D01*
X596928Y948665D01*
X597247Y948745D01*
X597577Y948812D01*
X597919Y948868D01*
X598272Y948911D01*
X598636Y948941D01*
X599011Y948960D01*
X599397Y948966D01*
X603479Y948966D01*
X603479Y936625D01*
G37*
%LPC*%
G36*
X601806Y937965D02*
X601806Y947626D01*
X599432Y947626D01*
X598854Y947607D01*
X598311Y947550D01*
X597804Y947456D01*
X597331Y947325D01*
X596894Y947155D01*
X596492Y946948D01*
X596125Y946704D01*
X595793Y946421D01*
X595498Y946103D01*
X595243Y945751D01*
X595027Y945365D01*
X594850Y944945D01*
X594713Y944490D01*
X594615Y944002D01*
X594556Y943479D01*
X594536Y942922D01*
X594545Y942548D01*
X594571Y942186D01*
X594614Y941836D01*
X594674Y941499D01*
X594752Y941175D01*
X594847Y940863D01*
X594959Y940564D01*
X595088Y940277D01*
X595233Y940005D01*
X595394Y939750D01*
X595569Y939510D01*
X595759Y939288D01*
X595964Y939081D01*
X596184Y938891D01*
X596419Y938718D01*
X596669Y938561D01*
X596931Y938421D01*
X597204Y938300D01*
X597487Y938198D01*
X597780Y938114D01*
X598084Y938049D01*
X598397Y938002D01*
X598721Y937974D01*
X599056Y937965D01*
X601806Y937965D01*
G37*
%LPD*%
G36*
X608411Y936625D02*
X606396Y936625D01*
X606396Y948966D01*
X607903Y948966D01*
X607903Y940873D01*
X607877Y939866D01*
X607798Y938385D01*
X614472Y948966D01*
X616416Y948966D01*
X616416Y936625D01*
X614927Y936625D01*
X614927Y944823D01*
X614971Y946286D01*
X615015Y947135D01*
X608411Y936625D01*
G37*
G36*
X624704Y936450D02*
X624292Y936458D01*
X623887Y936484D01*
X623490Y936527D01*
X623100Y936587D01*
X622718Y936664D01*
X622344Y936758D01*
X621977Y936869D01*
X621617Y936997D01*
X621268Y937141D01*
X620933Y937299D01*
X620612Y937471D01*
X620304Y937657D01*
X620011Y937858D01*
X619731Y938072D01*
X619465Y938301D01*
X619213Y938543D01*
X619213Y942800D01*
X624442Y942800D01*
X624442Y941398D01*
X620754Y941398D01*
X620754Y939174D01*
X621103Y938875D01*
X621502Y938609D01*
X621951Y938376D01*
X622449Y938175D01*
X622982Y938014D01*
X623536Y937899D01*
X624110Y937830D01*
X624704Y937807D01*
X625220Y937829D01*
X625707Y937892D01*
X626165Y937998D01*
X626594Y938146D01*
X626995Y938336D01*
X627366Y938569D01*
X627709Y938843D01*
X628024Y939161D01*
X628305Y939514D01*
X628549Y939899D01*
X628755Y940314D01*
X628924Y940760D01*
X629055Y941237D01*
X629149Y941745D01*
X629205Y942283D01*
X629224Y942852D01*
X629206Y943423D01*
X629153Y943960D01*
X629065Y944464D01*
X628941Y944936D01*
X628782Y945374D01*
X628588Y945780D01*
X628359Y946152D01*
X628094Y946492D01*
X627796Y946794D01*
X627466Y947057D01*
X627105Y947279D01*
X626712Y947460D01*
X626288Y947602D01*
X625833Y947703D01*
X625345Y947763D01*
X624827Y947783D01*
X624490Y947776D01*
X624168Y947753D01*
X623859Y947716D01*
X623565Y947663D01*
X623284Y947595D01*
X623018Y947512D01*
X622766Y947415D01*
X622528Y947302D01*
X622303Y947172D01*
X622091Y947025D01*
X621891Y946860D01*
X621703Y946678D01*
X621528Y946477D01*
X621366Y946259D01*
X621216Y946023D01*
X621078Y945769D01*
X619484Y946242D01*
X619666Y946610D01*
X619867Y946952D01*
X620086Y947268D01*
X620323Y947558D01*
X620578Y947822D01*
X620852Y948060D01*
X621144Y948272D01*
X621455Y948458D01*
X621787Y948620D01*
X622142Y948761D01*
X622522Y948879D01*
X622926Y948977D01*
X623354Y949052D01*
X623807Y949106D01*
X624283Y949139D01*
X624783Y949150D01*
X625143Y949143D01*
X625492Y949124D01*
X625831Y949092D01*
X626160Y949047D01*
X626479Y948989D01*
X626787Y948918D01*
X627085Y948835D01*
X627374Y948738D01*
X627651Y948629D01*
X627919Y948507D01*
X628177Y948371D01*
X628424Y948224D01*
X628661Y948063D01*
X628888Y947889D01*
X629311Y947503D01*
X629689Y947070D01*
X629859Y946838D01*
X630016Y946595D01*
X630161Y946341D01*
X630293Y946077D01*
X630413Y945802D01*
X630520Y945517D01*
X630614Y945221D01*
X630696Y944915D01*
X630766Y944597D01*
X630822Y944270D01*
X630866Y943931D01*
X630898Y943582D01*
X630917Y943223D01*
X630923Y942852D01*
X630911Y942370D01*
X630877Y941903D01*
X630819Y941453D01*
X630738Y941019D01*
X630634Y940600D01*
X630507Y940198D01*
X630356Y939811D01*
X630183Y939441D01*
X629987Y939089D01*
X629771Y938759D01*
X629535Y938449D01*
X629277Y938161D01*
X628999Y937894D01*
X628701Y937648D01*
X628381Y937424D01*
X628041Y937221D01*
X627683Y937040D01*
X627307Y936883D01*
X626915Y936751D01*
X626506Y936643D01*
X626081Y936558D01*
X625639Y936498D01*
X625180Y936462D01*
X624704Y936450D01*
G37*
G36*
X611161Y860425D02*
X609234Y860425D01*
X611246Y863478D01*
X612738Y865741D01*
X612395Y865814D01*
X612071Y865907D01*
X611766Y866023D01*
X611480Y866160D01*
X611324Y866252D01*
X611213Y866318D01*
X610965Y866499D01*
X610736Y866700D01*
X610526Y866924D01*
X610339Y867165D01*
X610176Y867420D01*
X610038Y867688D01*
X609925Y867970D01*
X609838Y868266D01*
X609775Y868576D01*
X609737Y868899D01*
X609725Y869236D01*
X609743Y869641D01*
X609796Y870022D01*
X609884Y870381D01*
X610008Y870717D01*
X610168Y871031D01*
X610363Y871321D01*
X610593Y871588D01*
X610859Y871833D01*
X611158Y872052D01*
X611486Y872241D01*
X611843Y872401D01*
X612231Y872533D01*
X612648Y872635D01*
X613095Y872707D01*
X613572Y872751D01*
X614078Y872766D01*
X619885Y872766D01*
X619885Y860425D01*
X618212Y860425D01*
X618212Y865549D01*
X614367Y865549D01*
X611161Y860425D01*
G37*
%LPC*%
G36*
X618212Y866871D02*
X618212Y871426D01*
X614244Y871426D01*
X613911Y871417D01*
X613597Y871390D01*
X613304Y871346D01*
X613030Y871285D01*
X612777Y871205D01*
X612544Y871108D01*
X612331Y870993D01*
X612138Y870861D01*
X611967Y870712D01*
X611818Y870546D01*
X611692Y870365D01*
X611589Y870168D01*
X611509Y869955D01*
X611452Y869725D01*
X611418Y869480D01*
X611407Y869219D01*
X611418Y868948D01*
X611452Y868693D01*
X611508Y868454D01*
X611587Y868230D01*
X611689Y868021D01*
X611813Y867828D01*
X611960Y867651D01*
X612129Y867489D01*
X612319Y867344D01*
X612528Y867219D01*
X612755Y867112D01*
X613002Y867026D01*
X613267Y866958D01*
X613551Y866910D01*
X613853Y866881D01*
X614174Y866871D01*
X618212Y866871D01*
G37*
%LPD*%
G36*
X598679Y860425D02*
X596831Y860425D01*
X601412Y866898D01*
X597190Y872766D01*
X599038Y872766D01*
X602375Y867922D01*
X605809Y872766D01*
X607657Y872766D01*
X603321Y866836D01*
X608016Y860425D01*
X606168Y860425D01*
X602384Y865820D01*
X598679Y860425D01*
G37*
G36*
X630940Y861774D02*
X622226Y865426D01*
X622226Y867222D01*
X630940Y870883D01*
X630940Y869534D01*
X623426Y866328D01*
X630940Y863114D01*
X630940Y861774D01*
G37*
G36*
X600679Y835025D02*
X598831Y835025D01*
X603412Y841498D01*
X599190Y847366D01*
X601038Y847366D01*
X604375Y842522D01*
X607809Y847366D01*
X609657Y847366D01*
X605321Y841436D01*
X610016Y835025D01*
X608168Y835025D01*
X604384Y840420D01*
X600679Y835025D01*
G37*
G36*
X616714Y835025D02*
X615050Y835025D01*
X615050Y845999D01*
X610811Y845999D01*
X610811Y847366D01*
X620953Y847366D01*
X620953Y845999D01*
X616714Y845999D01*
X616714Y835025D01*
G37*
G36*
X622226Y836374D02*
X622226Y837714D01*
X629740Y840928D01*
X622226Y844134D01*
X622226Y845483D01*
X630940Y841822D01*
X630940Y840026D01*
X622226Y836374D01*
G37*
G36*
X240941Y972345D02*
X228600Y977381D01*
X228600Y979115D01*
X240941Y984151D01*
X240941Y982391D01*
X232252Y978993D01*
X230071Y978257D01*
X232252Y977521D01*
X240941Y974105D01*
X240941Y972345D01*
G37*
G36*
X229712Y963200D02*
X228600Y963200D01*
X228600Y971371D01*
X229940Y971371D01*
X229940Y964934D01*
X230250Y965086D01*
X230565Y965280D01*
X230887Y965515D01*
X231214Y965792D01*
X231555Y966116D01*
X231916Y966491D01*
X232297Y966917D01*
X232699Y967395D01*
X233395Y968236D01*
X233993Y968930D01*
X234494Y969476D01*
X234897Y969874D01*
X235252Y970178D01*
X235607Y970442D01*
X235962Y970666D01*
X236316Y970850D01*
X236672Y970994D01*
X237028Y971096D01*
X237385Y971158D01*
X237744Y971179D01*
X238137Y971163D01*
X238508Y971116D01*
X238855Y971038D01*
X239179Y970928D01*
X239480Y970787D01*
X239758Y970614D01*
X240013Y970411D01*
X240244Y970176D01*
X240451Y969911D01*
X240630Y969620D01*
X240781Y969302D01*
X240905Y968957D01*
X241001Y968585D01*
X241070Y968186D01*
X241111Y967760D01*
X241125Y967307D01*
X241111Y966892D01*
X241070Y966496D01*
X241002Y966120D01*
X240906Y965762D01*
X240783Y965425D01*
X240632Y965106D01*
X240454Y964806D01*
X240249Y964526D01*
X240020Y964270D01*
X239773Y964042D01*
X239507Y963843D01*
X239222Y963671D01*
X238918Y963528D01*
X238595Y963414D01*
X238253Y963328D01*
X237893Y963270D01*
X237744Y964881D01*
X237984Y964918D01*
X238211Y964972D01*
X238424Y965042D01*
X238623Y965130D01*
X238808Y965234D01*
X238980Y965355D01*
X239137Y965493D01*
X239281Y965648D01*
X239409Y965816D01*
X239521Y965996D01*
X239615Y966187D01*
X239692Y966389D01*
X239751Y966602D01*
X239794Y966826D01*
X239820Y967061D01*
X239828Y967307D01*
X239820Y967565D01*
X239793Y967808D01*
X239750Y968037D01*
X239688Y968251D01*
X239609Y968451D01*
X239513Y968636D01*
X239399Y968806D01*
X239268Y968963D01*
X239121Y969102D01*
X238959Y969223D01*
X238783Y969326D01*
X238593Y969409D01*
X238389Y969474D01*
X238171Y969521D01*
X237938Y969549D01*
X237691Y969558D01*
X237325Y969537D01*
X236978Y969472D01*
X236650Y969364D01*
X236343Y969212D01*
X236048Y969026D01*
X235760Y968813D01*
X235479Y968573D01*
X235204Y968306D01*
X234661Y967711D01*
X234118Y967049D01*
X233552Y966349D01*
X232940Y965643D01*
X232613Y965293D01*
X232268Y964950D01*
X231904Y964616D01*
X231521Y964290D01*
X231114Y963980D01*
X230677Y963695D01*
X230210Y963435D01*
X229712Y963200D01*
G37*
G36*
X229940Y953695D02*
X228600Y953695D01*
X228600Y961429D01*
X229940Y961429D01*
X229940Y958425D01*
X240941Y958425D01*
X240941Y956971D01*
X238935Y954054D01*
X237446Y954054D01*
X239434Y956839D01*
X229940Y956839D01*
X229940Y953695D01*
G37*
G36*
X235204Y942736D02*
X233925Y942736D01*
X233925Y946449D01*
X230177Y946449D01*
X230177Y947737D01*
X233925Y947737D01*
X233925Y951450D01*
X235204Y951450D01*
X235204Y947737D01*
X238953Y947737D01*
X238953Y946449D01*
X235204Y946449D01*
X235204Y942736D01*
G37*
G36*
X342541Y972347D02*
X330200Y977383D01*
X330200Y979117D01*
X342541Y984153D01*
X342541Y982393D01*
X333852Y978995D01*
X331671Y978259D01*
X333852Y977523D01*
X342541Y974107D01*
X342541Y972347D01*
G37*
G36*
X331312Y963201D02*
X330200Y963201D01*
X330200Y971373D01*
X331540Y971373D01*
X331540Y964936D01*
X331850Y965088D01*
X332165Y965282D01*
X332487Y965517D01*
X332814Y965794D01*
X333155Y966118D01*
X333516Y966492D01*
X333897Y966919D01*
X334299Y967397D01*
X334995Y968238D01*
X335593Y968932D01*
X336094Y969478D01*
X336497Y969875D01*
X336852Y970180D01*
X337207Y970444D01*
X337562Y970668D01*
X337916Y970852D01*
X338272Y970996D01*
X338628Y971098D01*
X338985Y971160D01*
X339344Y971181D01*
X339737Y971165D01*
X340108Y971118D01*
X340455Y971039D01*
X340779Y970930D01*
X341080Y970789D01*
X341358Y970616D01*
X341613Y970413D01*
X341844Y970178D01*
X342051Y969913D01*
X342230Y969622D01*
X342381Y969304D01*
X342505Y968959D01*
X342601Y968587D01*
X342670Y968188D01*
X342711Y967762D01*
X342725Y967309D01*
X342711Y966894D01*
X342670Y966498D01*
X342602Y966122D01*
X342506Y965764D01*
X342383Y965426D01*
X342232Y965108D01*
X342054Y964808D01*
X341849Y964528D01*
X341620Y964272D01*
X341373Y964044D01*
X341107Y963845D01*
X340822Y963673D01*
X340518Y963530D01*
X340195Y963416D01*
X339853Y963329D01*
X339493Y963272D01*
X339344Y964883D01*
X339584Y964920D01*
X339811Y964974D01*
X340024Y965044D01*
X340223Y965132D01*
X340408Y965236D01*
X340580Y965357D01*
X340737Y965495D01*
X340881Y965649D01*
X341009Y965818D01*
X341121Y965998D01*
X341215Y966189D01*
X341292Y966391D01*
X341351Y966604D01*
X341394Y966828D01*
X341420Y967063D01*
X341428Y967309D01*
X341420Y967567D01*
X341393Y967810D01*
X341350Y968039D01*
X341288Y968253D01*
X341209Y968453D01*
X341113Y968638D01*
X340999Y968808D01*
X340868Y968965D01*
X340721Y969104D01*
X340559Y969225D01*
X340383Y969328D01*
X340193Y969411D01*
X339989Y969476D01*
X339771Y969523D01*
X339538Y969551D01*
X339291Y969560D01*
X338925Y969539D01*
X338578Y969474D01*
X338250Y969366D01*
X337943Y969214D01*
X337648Y969028D01*
X337360Y968815D01*
X337079Y968575D01*
X336804Y968308D01*
X336261Y967713D01*
X335718Y967051D01*
X335152Y966351D01*
X334540Y965645D01*
X334213Y965294D01*
X333868Y964952D01*
X333504Y964618D01*
X333121Y964292D01*
X332714Y963982D01*
X332277Y963697D01*
X331810Y963437D01*
X331312Y963201D01*
G37*
G36*
X331540Y953697D02*
X330200Y953697D01*
X330200Y961431D01*
X331540Y961431D01*
X331540Y958427D01*
X342541Y958427D01*
X342541Y956973D01*
X340535Y954056D01*
X339046Y954056D01*
X341034Y956841D01*
X331540Y956841D01*
X331540Y953697D01*
G37*
G36*
X335665Y947159D02*
X334264Y947159D01*
X334264Y951538D01*
X335665Y951538D01*
X335665Y947159D01*
G37*
G36*
X291741Y972737D02*
X279400Y972737D01*
X279400Y977353D01*
X279412Y977793D01*
X279448Y978220D01*
X279507Y978634D01*
X279590Y979034D01*
X279698Y979422D01*
X279829Y979796D01*
X279983Y980158D01*
X280162Y980506D01*
X280363Y980838D01*
X280585Y981150D01*
X280828Y981443D01*
X281091Y981717D01*
X281376Y981971D01*
X281682Y982206D01*
X282008Y982421D01*
X282356Y982617D01*
X282721Y982791D01*
X283102Y982942D01*
X283497Y983070D01*
X283907Y983175D01*
X284332Y983256D01*
X284773Y983315D01*
X285228Y983350D01*
X285697Y983361D01*
X286055Y983355D01*
X286401Y983335D01*
X286738Y983301D01*
X287064Y983255D01*
X287380Y983195D01*
X287685Y983122D01*
X287980Y983035D01*
X288265Y982935D01*
X288539Y982822D01*
X288803Y982696D01*
X289056Y982556D01*
X289300Y982403D01*
X289532Y982237D01*
X289755Y982057D01*
X289967Y981864D01*
X290169Y981658D01*
X290359Y981439D01*
X290537Y981209D01*
X290703Y980968D01*
X290856Y980716D01*
X290998Y980453D01*
X291127Y980179D01*
X291243Y979893D01*
X291348Y979596D01*
X291440Y979288D01*
X291520Y978969D01*
X291587Y978638D01*
X291643Y978297D01*
X291686Y977944D01*
X291716Y977580D01*
X291735Y977205D01*
X291741Y976819D01*
X291741Y972737D01*
G37*
%LPC*%
G36*
X290401Y974410D02*
X290401Y976784D01*
X290382Y977362D01*
X290325Y977904D01*
X290231Y978412D01*
X290100Y978884D01*
X289930Y979322D01*
X289723Y979724D01*
X289479Y980091D01*
X289196Y980423D01*
X288878Y980717D01*
X288526Y980973D01*
X288140Y981189D01*
X287720Y981365D01*
X287265Y981503D01*
X286777Y981601D01*
X286254Y981660D01*
X285697Y981680D01*
X285323Y981671D01*
X284961Y981645D01*
X284611Y981602D01*
X284274Y981542D01*
X283950Y981464D01*
X283638Y981369D01*
X283339Y981257D01*
X283052Y981128D01*
X282780Y980982D01*
X282525Y980822D01*
X282285Y980647D01*
X282063Y980457D01*
X281856Y980252D01*
X281666Y980032D01*
X281493Y979797D01*
X281336Y979547D01*
X281196Y979284D01*
X281075Y979012D01*
X280973Y978729D01*
X280889Y978436D01*
X280824Y978132D01*
X280777Y977818D01*
X280749Y977494D01*
X280740Y977160D01*
X280740Y974410D01*
X290401Y974410D01*
G37*
%LPD*%
G36*
X291741Y959800D02*
X279400Y959800D01*
X279400Y961289D01*
X287598Y961289D01*
X289061Y961245D01*
X289910Y961201D01*
X279400Y967805D01*
X279400Y969819D01*
X291741Y969819D01*
X291741Y968313D01*
X283648Y968313D01*
X282641Y968339D01*
X281160Y968418D01*
X291741Y961744D01*
X291741Y959800D01*
G37*
G36*
X285627Y945293D02*
X285145Y945304D01*
X284678Y945339D01*
X284228Y945397D01*
X283794Y945478D01*
X283375Y945582D01*
X282973Y945709D01*
X282586Y945859D01*
X282216Y946033D01*
X281864Y946228D01*
X281534Y946444D01*
X281224Y946681D01*
X280936Y946938D01*
X280669Y947216D01*
X280423Y947515D01*
X280199Y947834D01*
X279996Y948174D01*
X279815Y948533D01*
X279658Y948908D01*
X279526Y949300D01*
X279418Y949709D01*
X279333Y950135D01*
X279273Y950577D01*
X279237Y951036D01*
X279225Y951511D01*
X279233Y951924D01*
X279259Y952328D01*
X279302Y952726D01*
X279362Y953115D01*
X279439Y953497D01*
X279533Y953872D01*
X279644Y954239D01*
X279772Y954599D01*
X279916Y954948D01*
X280074Y955283D01*
X280246Y955604D01*
X280432Y955911D01*
X280633Y956205D01*
X280847Y956485D01*
X281076Y956751D01*
X281318Y957003D01*
X285575Y957003D01*
X285575Y951774D01*
X284173Y951774D01*
X284173Y955461D01*
X281949Y955461D01*
X281650Y955112D01*
X281384Y954714D01*
X281151Y954265D01*
X280950Y953767D01*
X280789Y953233D01*
X280674Y952679D01*
X280605Y952106D01*
X280582Y951511D01*
X280604Y950996D01*
X280667Y950509D01*
X280773Y950051D01*
X280921Y949622D01*
X281111Y949221D01*
X281344Y948849D01*
X281618Y948506D01*
X281936Y948192D01*
X282289Y947911D01*
X282674Y947667D01*
X283089Y947461D01*
X283535Y947292D01*
X284012Y947161D01*
X284520Y947067D01*
X285058Y947011D01*
X285627Y946992D01*
X286198Y947010D01*
X286735Y947063D01*
X287239Y947151D01*
X287711Y947274D01*
X288149Y947433D01*
X288555Y947627D01*
X288927Y947857D01*
X289267Y948122D01*
X289569Y948420D01*
X289832Y948750D01*
X290054Y949111D01*
X290235Y949503D01*
X290377Y949928D01*
X290478Y950383D01*
X290538Y950870D01*
X290558Y951389D01*
X290551Y951725D01*
X290528Y952048D01*
X290491Y952357D01*
X290438Y952651D01*
X290370Y952931D01*
X290287Y953198D01*
X290190Y953450D01*
X290077Y953688D01*
X289947Y953913D01*
X289800Y954125D01*
X289635Y954325D01*
X289453Y954512D01*
X289252Y954687D01*
X289034Y954850D01*
X288798Y955000D01*
X288544Y955137D01*
X289017Y956731D01*
X289385Y956549D01*
X289727Y956349D01*
X290043Y956130D01*
X290333Y955893D01*
X290597Y955637D01*
X290835Y955363D01*
X291047Y955071D01*
X291233Y954761D01*
X291395Y954429D01*
X291536Y954073D01*
X291654Y953693D01*
X291752Y953289D01*
X291827Y952861D01*
X291881Y952409D01*
X291914Y951933D01*
X291925Y951432D01*
X291918Y951073D01*
X291899Y950724D01*
X291867Y950385D01*
X291822Y950056D01*
X291764Y949737D01*
X291693Y949429D01*
X291610Y949130D01*
X291513Y948842D01*
X291404Y948564D01*
X291282Y948297D01*
X291146Y948039D01*
X290999Y947792D01*
X290838Y947555D01*
X290664Y947328D01*
X290278Y946904D01*
X289845Y946527D01*
X289613Y946357D01*
X289370Y946199D01*
X289116Y946054D01*
X288852Y945922D01*
X288577Y945803D01*
X288292Y945696D01*
X287996Y945601D01*
X287690Y945519D01*
X287372Y945450D01*
X287045Y945393D01*
X286706Y945349D01*
X286357Y945318D01*
X285998Y945299D01*
X285627Y945293D01*
G37*
G36*
X415431Y1006896D02*
X398145Y1006896D01*
X398145Y1009239D01*
X405322Y1009239D01*
X405322Y1014625D01*
X398145Y1019115D01*
X398145Y1021814D01*
X402422Y1018995D01*
X405592Y1016906D01*
X405693Y1017387D01*
X405824Y1017841D01*
X405986Y1018268D01*
X406178Y1018668D01*
X406307Y1018887D01*
X406400Y1019042D01*
X406652Y1019390D01*
X406935Y1019710D01*
X407248Y1020004D01*
X407586Y1020267D01*
X407943Y1020495D01*
X408319Y1020688D01*
X408714Y1020846D01*
X409128Y1020969D01*
X409562Y1021057D01*
X410015Y1021109D01*
X410487Y1021127D01*
X410774Y1021120D01*
X411053Y1021102D01*
X411325Y1021071D01*
X411588Y1021027D01*
X412091Y1020903D01*
X412562Y1020730D01*
X413000Y1020506D01*
X413407Y1020233D01*
X413782Y1019910D01*
X414124Y1019538D01*
X414430Y1019120D01*
X414696Y1018660D01*
X414920Y1018159D01*
X415104Y1017616D01*
X415247Y1017032D01*
X415349Y1016406D01*
X415410Y1015739D01*
X415431Y1015029D01*
X415431Y1006896D01*
G37*
%LPC*%
G36*
X413554Y1009239D02*
X413554Y1014796D01*
X413541Y1015264D01*
X413504Y1015703D01*
X413442Y1016114D01*
X413356Y1016497D01*
X413245Y1016852D01*
X413109Y1017178D01*
X412948Y1017477D01*
X412762Y1017747D01*
X412553Y1017987D01*
X412322Y1018195D01*
X412068Y1018371D01*
X411792Y1018515D01*
X411493Y1018627D01*
X411172Y1018707D01*
X410828Y1018755D01*
X410462Y1018771D01*
X410083Y1018755D01*
X409726Y1018708D01*
X409391Y1018629D01*
X409077Y1018518D01*
X408785Y1018376D01*
X408515Y1018202D01*
X408266Y1017996D01*
X408039Y1017759D01*
X407836Y1017493D01*
X407661Y1017201D01*
X407512Y1016882D01*
X407391Y1016537D01*
X407296Y1016166D01*
X407228Y1015768D01*
X407188Y1015344D01*
X407174Y1014895D01*
X407174Y1009239D01*
X413554Y1009239D01*
G37*
%LPD*%
G36*
X404721Y1037983D02*
X403889Y1038002D01*
X403112Y1038057D01*
X402389Y1038150D01*
X401721Y1038279D01*
X401107Y1038446D01*
X400548Y1038649D01*
X400043Y1038890D01*
X399593Y1039167D01*
X399196Y1039484D01*
X399017Y1039658D01*
X398852Y1039842D01*
X398700Y1040037D01*
X398561Y1040242D01*
X398435Y1040458D01*
X398323Y1040684D01*
X398224Y1040920D01*
X398138Y1041167D01*
X398065Y1041424D01*
X398005Y1041692D01*
X397959Y1041970D01*
X397926Y1042258D01*
X397906Y1042557D01*
X397900Y1042866D01*
X397908Y1043233D01*
X397934Y1043584D01*
X397977Y1043921D01*
X398038Y1044242D01*
X398115Y1044548D01*
X398210Y1044839D01*
X398322Y1045114D01*
X398452Y1045375D01*
X398601Y1045622D01*
X398773Y1045856D01*
X398968Y1046078D01*
X399185Y1046287D01*
X399425Y1046484D01*
X399687Y1046669D01*
X399972Y1046841D01*
X400280Y1047001D01*
X400280Y1047050D01*
X399715Y1047060D01*
X399053Y1047093D01*
X398470Y1047134D01*
X398145Y1047172D01*
X398145Y1049282D01*
X398564Y1049250D01*
X399160Y1049227D01*
X400881Y1049209D01*
X416351Y1049209D01*
X416351Y1047001D01*
X410842Y1047001D01*
X409358Y1047025D01*
X409358Y1047001D01*
X409648Y1046841D01*
X409919Y1046669D01*
X410168Y1046485D01*
X410398Y1046289D01*
X410607Y1046080D01*
X410796Y1045860D01*
X410964Y1045626D01*
X411112Y1045381D01*
X411242Y1045122D01*
X411354Y1044847D01*
X411449Y1044556D01*
X411526Y1044249D01*
X411587Y1043927D01*
X411630Y1043589D01*
X411656Y1043236D01*
X411664Y1042866D01*
X411658Y1042566D01*
X411637Y1042275D01*
X411603Y1041994D01*
X411556Y1041722D01*
X411495Y1041460D01*
X411420Y1041207D01*
X411332Y1040964D01*
X411230Y1040730D01*
X411115Y1040506D01*
X410986Y1040291D01*
X410844Y1040086D01*
X410688Y1039891D01*
X410335Y1039528D01*
X409928Y1039204D01*
X409467Y1038918D01*
X408952Y1038670D01*
X408382Y1038460D01*
X407759Y1038289D01*
X407080Y1038155D01*
X406348Y1038060D01*
X405562Y1038003D01*
X404721Y1037983D01*
G37*
%LPC*%
G36*
X404794Y1040302D02*
X405463Y1040314D01*
X406084Y1040349D01*
X406657Y1040407D01*
X407182Y1040488D01*
X407659Y1040592D01*
X408087Y1040720D01*
X408468Y1040870D01*
X408800Y1041044D01*
X409089Y1041244D01*
X409339Y1041473D01*
X409551Y1041731D01*
X409725Y1042018D01*
X409859Y1042334D01*
X409956Y1042679D01*
X410013Y1043052D01*
X410033Y1043455D01*
X410014Y1043902D01*
X409956Y1044318D01*
X409860Y1044703D01*
X409726Y1045056D01*
X409554Y1045378D01*
X409343Y1045668D01*
X409093Y1045927D01*
X408806Y1046154D01*
X408477Y1046352D01*
X408104Y1046524D01*
X407687Y1046670D01*
X407226Y1046789D01*
X406721Y1046881D01*
X406172Y1046948D01*
X405579Y1046987D01*
X404942Y1047001D01*
X404280Y1046987D01*
X403663Y1046948D01*
X403092Y1046881D01*
X402565Y1046789D01*
X402082Y1046670D01*
X401645Y1046524D01*
X401253Y1046352D01*
X400905Y1046154D01*
X400869Y1046127D01*
X400601Y1045926D01*
X400336Y1045666D01*
X400113Y1045374D01*
X399930Y1045050D01*
X399788Y1044693D01*
X399686Y1044305D01*
X399625Y1043884D01*
X399605Y1043431D01*
X399624Y1043031D01*
X399680Y1042660D01*
X399774Y1042318D01*
X399905Y1042004D01*
X400075Y1041720D01*
X400281Y1041464D01*
X400525Y1041237D01*
X400807Y1041038D01*
X401132Y1040866D01*
X401507Y1040716D01*
X401931Y1040590D01*
X402405Y1040486D01*
X402928Y1040406D01*
X403501Y1040348D01*
X404123Y1040314D01*
X404794Y1040302D01*
G37*
%LPD*%
G36*
X404868Y1024027D02*
X404442Y1024033D01*
X404030Y1024051D01*
X403631Y1024081D01*
X403245Y1024123D01*
X402872Y1024177D01*
X402513Y1024244D01*
X402167Y1024322D01*
X401835Y1024412D01*
X401515Y1024514D01*
X401210Y1024628D01*
X400917Y1024755D01*
X400638Y1024893D01*
X400372Y1025043D01*
X400119Y1025206D01*
X399880Y1025380D01*
X399654Y1025567D01*
X399442Y1025765D01*
X399243Y1025974D01*
X399058Y1026193D01*
X398886Y1026424D01*
X398729Y1026666D01*
X398585Y1026919D01*
X398455Y1027183D01*
X398338Y1027457D01*
X398235Y1027743D01*
X398146Y1028040D01*
X398071Y1028348D01*
X398009Y1028666D01*
X397961Y1028996D01*
X397927Y1029336D01*
X397907Y1029688D01*
X397900Y1030051D01*
X397912Y1030566D01*
X397949Y1031058D01*
X398010Y1031527D01*
X398096Y1031971D01*
X398206Y1032392D01*
X398341Y1032790D01*
X398501Y1033163D01*
X398685Y1033513D01*
X398893Y1033840D01*
X399126Y1034142D01*
X399384Y1034421D01*
X399666Y1034676D01*
X399973Y1034908D01*
X400304Y1035116D01*
X400660Y1035300D01*
X401040Y1035461D01*
X401592Y1033522D01*
X401376Y1033437D01*
X401170Y1033334D01*
X400973Y1033214D01*
X400786Y1033076D01*
X400608Y1032921D01*
X400440Y1032748D01*
X400281Y1032558D01*
X400132Y1032351D01*
X399997Y1032126D01*
X399880Y1031883D01*
X399781Y1031622D01*
X399700Y1031343D01*
X399637Y1031047D01*
X399592Y1030733D01*
X399565Y1030401D01*
X399556Y1030051D01*
X399575Y1029610D01*
X399633Y1029197D01*
X399730Y1028811D01*
X399866Y1028453D01*
X400040Y1028121D01*
X400253Y1027817D01*
X400504Y1027540D01*
X400795Y1027290D01*
X401121Y1027069D01*
X401480Y1026877D01*
X401871Y1026715D01*
X402295Y1026582D01*
X402751Y1026479D01*
X403240Y1026405D01*
X403762Y1026360D01*
X404316Y1026346D01*
X404316Y1035817D01*
X404610Y1035817D01*
X405464Y1035794D01*
X406264Y1035725D01*
X406642Y1035674D01*
X407008Y1035611D01*
X407359Y1035537D01*
X407696Y1035451D01*
X408020Y1035354D01*
X408330Y1035245D01*
X408626Y1035125D01*
X408909Y1034994D01*
X409178Y1034851D01*
X409432Y1034697D01*
X409674Y1034531D01*
X409901Y1034354D01*
X410114Y1034165D01*
X410314Y1033965D01*
X410500Y1033754D01*
X410672Y1033531D01*
X410831Y1033296D01*
X410976Y1033051D01*
X411106Y1032794D01*
X411224Y1032525D01*
X411327Y1032245D01*
X411416Y1031953D01*
X411492Y1031651D01*
X411554Y1031336D01*
X411602Y1031011D01*
X411637Y1030673D01*
X411658Y1030325D01*
X411664Y1029965D01*
X411658Y1029613D01*
X411637Y1029271D01*
X411603Y1028939D01*
X411555Y1028618D01*
X411493Y1028307D01*
X411418Y1028006D01*
X411329Y1027716D01*
X411226Y1027436D01*
X411109Y1027166D01*
X410979Y1026907D01*
X410835Y1026658D01*
X410678Y1026419D01*
X410506Y1026190D01*
X410321Y1025972D01*
X410123Y1025764D01*
X409910Y1025567D01*
X409685Y1025380D01*
X409448Y1025206D01*
X409198Y1025043D01*
X408937Y1024893D01*
X408664Y1024755D01*
X408379Y1024628D01*
X408082Y1024514D01*
X407772Y1024412D01*
X407451Y1024322D01*
X407118Y1024244D01*
X406773Y1024177D01*
X406416Y1024123D01*
X406047Y1024081D01*
X405666Y1024051D01*
X405273Y1024033D01*
X404868Y1024027D01*
G37*
%LPC*%
G36*
X406009Y1026370D02*
X406466Y1026402D01*
X406897Y1026461D01*
X407304Y1026547D01*
X407685Y1026660D01*
X408041Y1026800D01*
X408372Y1026967D01*
X408678Y1027161D01*
X408959Y1027382D01*
X409211Y1027627D01*
X409429Y1027893D01*
X409613Y1028180D01*
X409764Y1028488D01*
X409882Y1028817D01*
X409966Y1029166D01*
X410016Y1029537D01*
X410033Y1029928D01*
X410018Y1030330D01*
X409973Y1030708D01*
X409897Y1031061D01*
X409792Y1031391D01*
X409657Y1031696D01*
X409491Y1031977D01*
X409295Y1032235D01*
X409070Y1032467D01*
X408811Y1032677D01*
X408517Y1032865D01*
X408188Y1033032D01*
X407823Y1033176D01*
X407423Y1033298D01*
X406987Y1033399D01*
X406516Y1033478D01*
X406009Y1033535D01*
X406009Y1026370D01*
G37*
%LPD*%
G36*
X389194Y1024576D02*
X388776Y1024608D01*
X388185Y1024631D01*
X386483Y1024649D01*
X370706Y1024649D01*
X370706Y1026857D01*
X375895Y1026857D01*
X377411Y1026845D01*
X377814Y1026830D01*
X377981Y1026808D01*
X377981Y1026870D01*
X377702Y1027010D01*
X377440Y1027165D01*
X377197Y1027336D01*
X376972Y1027523D01*
X376765Y1027726D01*
X376576Y1027944D01*
X376404Y1028178D01*
X376251Y1028428D01*
X376116Y1028693D01*
X375999Y1028975D01*
X375900Y1029271D01*
X375819Y1029584D01*
X375756Y1029912D01*
X375711Y1030257D01*
X375684Y1030616D01*
X375675Y1030992D01*
X375681Y1031292D01*
X375702Y1031583D01*
X375736Y1031864D01*
X375783Y1032136D01*
X375844Y1032398D01*
X375919Y1032651D01*
X376007Y1032894D01*
X376109Y1033128D01*
X376224Y1033352D01*
X376353Y1033567D01*
X376495Y1033772D01*
X376651Y1033967D01*
X377004Y1034330D01*
X377411Y1034654D01*
X377872Y1034940D01*
X378387Y1035188D01*
X378957Y1035398D01*
X379580Y1035569D01*
X380259Y1035703D01*
X380991Y1035798D01*
X381778Y1035855D01*
X382618Y1035875D01*
X383469Y1035856D01*
X384262Y1035799D01*
X384995Y1035704D01*
X385670Y1035571D01*
X386286Y1035400D01*
X386844Y1035191D01*
X387343Y1034945D01*
X387783Y1034660D01*
X388169Y1034337D01*
X388502Y1033975D01*
X388785Y1033575D01*
X388907Y1033360D01*
X389016Y1033136D01*
X389112Y1032902D01*
X389196Y1032658D01*
X389267Y1032404D01*
X389324Y1032141D01*
X389369Y1031868D01*
X389401Y1031586D01*
X389421Y1031294D01*
X389427Y1030992D01*
X389418Y1030606D01*
X389391Y1030239D01*
X389347Y1029891D01*
X389285Y1029563D01*
X389204Y1029253D01*
X389106Y1028963D01*
X388990Y1028692D01*
X388857Y1028440D01*
X388704Y1028204D01*
X388530Y1027979D01*
X388337Y1027767D01*
X388122Y1027566D01*
X387887Y1027377D01*
X387632Y1027200D01*
X387356Y1027035D01*
X387059Y1026882D01*
X387059Y1026833D01*
X387918Y1026802D01*
X388844Y1026747D01*
X389194Y1026710D01*
X389194Y1024576D01*
G37*
%LPC*%
G36*
X382398Y1026857D02*
X382856Y1026864D01*
X383292Y1026882D01*
X383706Y1026912D01*
X384098Y1026954D01*
X384468Y1027008D01*
X384816Y1027075D01*
X385142Y1027153D01*
X385446Y1027244D01*
X385729Y1027346D01*
X385993Y1027459D01*
X386238Y1027584D01*
X386463Y1027719D01*
X386669Y1027866D01*
X386855Y1028024D01*
X387022Y1028193D01*
X387170Y1028373D01*
X387299Y1028567D01*
X387411Y1028779D01*
X387506Y1029009D01*
X387584Y1029257D01*
X387644Y1029523D01*
X387687Y1029807D01*
X387713Y1030108D01*
X387722Y1030428D01*
X387703Y1030822D01*
X387648Y1031188D01*
X387555Y1031527D01*
X387424Y1031838D01*
X387257Y1032122D01*
X387053Y1032378D01*
X386811Y1032607D01*
X386532Y1032808D01*
X386210Y1032983D01*
X385838Y1033135D01*
X385417Y1033264D01*
X384946Y1033369D01*
X384426Y1033451D01*
X383857Y1033509D01*
X383238Y1033544D01*
X382569Y1033556D01*
X381883Y1033544D01*
X381249Y1033509D01*
X380665Y1033450D01*
X380133Y1033367D01*
X379651Y1033261D01*
X379221Y1033131D01*
X378842Y1032978D01*
X378515Y1032801D01*
X378231Y1032599D01*
X377986Y1032369D01*
X377778Y1032110D01*
X377608Y1031825D01*
X377476Y1031511D01*
X377382Y1031169D01*
X377325Y1030800D01*
X377306Y1030403D01*
X377326Y1029950D01*
X377384Y1029530D01*
X377481Y1029142D01*
X377616Y1028787D01*
X377790Y1028464D01*
X378003Y1028174D01*
X378255Y1027917D01*
X378545Y1027692D01*
X378877Y1027496D01*
X379251Y1027327D01*
X379668Y1027183D01*
X380128Y1027066D01*
X380631Y1026975D01*
X381177Y1026910D01*
X381766Y1026871D01*
X382398Y1026857D01*
G37*
%LPD*%
G36*
X382643Y1037992D02*
X382217Y1037998D01*
X381805Y1038016D01*
X381406Y1038046D01*
X381020Y1038089D01*
X380647Y1038143D01*
X380288Y1038209D01*
X379942Y1038287D01*
X379610Y1038377D01*
X379290Y1038479D01*
X378985Y1038594D01*
X378692Y1038720D01*
X378413Y1038858D01*
X378147Y1039009D01*
X377894Y1039171D01*
X377655Y1039346D01*
X377429Y1039532D01*
X377217Y1039730D01*
X377018Y1039939D01*
X376833Y1040159D01*
X376661Y1040390D01*
X376504Y1040631D01*
X376360Y1040884D01*
X376230Y1041148D01*
X376113Y1041423D01*
X376010Y1041709D01*
X375921Y1042005D01*
X375846Y1042313D01*
X375784Y1042632D01*
X375736Y1042961D01*
X375702Y1043302D01*
X375682Y1043653D01*
X375675Y1044016D01*
X375687Y1044532D01*
X375724Y1045024D01*
X375785Y1045492D01*
X375871Y1045937D01*
X375981Y1046358D01*
X376116Y1046755D01*
X376276Y1047129D01*
X376460Y1047479D01*
X376668Y1047805D01*
X376901Y1048108D01*
X377159Y1048386D01*
X377441Y1048642D01*
X377748Y1048873D01*
X378079Y1049081D01*
X378435Y1049266D01*
X378815Y1049426D01*
X379367Y1047488D01*
X379151Y1047402D01*
X378945Y1047300D01*
X378748Y1047179D01*
X378561Y1047042D01*
X378383Y1046886D01*
X378215Y1046714D01*
X378056Y1046524D01*
X377907Y1046316D01*
X377772Y1046091D01*
X377655Y1045848D01*
X377556Y1045587D01*
X377475Y1045309D01*
X377412Y1045012D01*
X377367Y1044698D01*
X377340Y1044366D01*
X377331Y1044016D01*
X377350Y1043576D01*
X377408Y1043163D01*
X377505Y1042777D01*
X377641Y1042418D01*
X377815Y1042087D01*
X378028Y1041782D01*
X378279Y1041505D01*
X378570Y1041256D01*
X378896Y1041034D01*
X379255Y1040842D01*
X379646Y1040680D01*
X380070Y1040547D01*
X380526Y1040444D01*
X381015Y1040370D01*
X381537Y1040326D01*
X382091Y1040311D01*
X382091Y1049782D01*
X382385Y1049782D01*
X383239Y1049759D01*
X384039Y1049690D01*
X384417Y1049639D01*
X384783Y1049576D01*
X385134Y1049502D01*
X385471Y1049416D01*
X385795Y1049319D01*
X386105Y1049210D01*
X386401Y1049090D01*
X386684Y1048959D01*
X386953Y1048816D01*
X387207Y1048662D01*
X387449Y1048496D01*
X387676Y1048319D01*
X387889Y1048130D01*
X388089Y1047930D01*
X388275Y1047719D01*
X388447Y1047496D01*
X388606Y1047262D01*
X388751Y1047016D01*
X388881Y1046759D01*
X388999Y1046490D01*
X389102Y1046210D01*
X389191Y1045919D01*
X389267Y1045616D01*
X389329Y1045302D01*
X389377Y1044976D01*
X389412Y1044639D01*
X389433Y1044290D01*
X389439Y1043930D01*
X389433Y1043578D01*
X389412Y1043236D01*
X389378Y1042905D01*
X389330Y1042583D01*
X389268Y1042272D01*
X389193Y1041972D01*
X389104Y1041681D01*
X389001Y1041401D01*
X388884Y1041132D01*
X388754Y1040872D01*
X388610Y1040623D01*
X388453Y1040384D01*
X388281Y1040156D01*
X388096Y1039937D01*
X387898Y1039730D01*
X387685Y1039532D01*
X387460Y1039346D01*
X387223Y1039171D01*
X386973Y1039009D01*
X386712Y1038858D01*
X386439Y1038720D01*
X386154Y1038594D01*
X385857Y1038479D01*
X385547Y1038377D01*
X385226Y1038287D01*
X384893Y1038209D01*
X384548Y1038143D01*
X384191Y1038089D01*
X383822Y1038046D01*
X383441Y1038016D01*
X383048Y1037998D01*
X382643Y1037992D01*
G37*
%LPC*%
G36*
X383784Y1040336D02*
X384241Y1040367D01*
X384672Y1040426D01*
X385079Y1040512D01*
X385460Y1040625D01*
X385816Y1040765D01*
X386147Y1040932D01*
X386453Y1041127D01*
X386734Y1041348D01*
X386986Y1041593D01*
X387204Y1041859D01*
X387388Y1042146D01*
X387539Y1042453D01*
X387657Y1042782D01*
X387741Y1043131D01*
X387791Y1043502D01*
X387808Y1043893D01*
X387793Y1044295D01*
X387748Y1044673D01*
X387672Y1045027D01*
X387567Y1045356D01*
X387432Y1045662D01*
X387266Y1045943D01*
X387070Y1046200D01*
X386845Y1046433D01*
X386586Y1046643D01*
X386292Y1046831D01*
X385963Y1046997D01*
X385598Y1047141D01*
X385198Y1047264D01*
X384762Y1047364D01*
X384291Y1047443D01*
X383784Y1047500D01*
X383784Y1040336D01*
G37*
%LPD*%
G36*
X379036Y990187D02*
X378618Y990303D01*
X378228Y990448D01*
X377867Y990622D01*
X377535Y990826D01*
X377231Y991059D01*
X376956Y991322D01*
X376709Y991614D01*
X376490Y991935D01*
X376299Y992289D01*
X376134Y992678D01*
X375993Y993102D01*
X375879Y993562D01*
X375789Y994057D01*
X375726Y994588D01*
X375687Y995155D01*
X375675Y995756D01*
X375691Y996377D01*
X375738Y996961D01*
X375818Y997511D01*
X375929Y998025D01*
X376072Y998503D01*
X376247Y998946D01*
X376454Y999353D01*
X376693Y999725D01*
X376961Y1000057D01*
X377256Y1000345D01*
X377577Y1000589D01*
X377926Y1000788D01*
X378301Y1000943D01*
X378703Y1001054D01*
X379132Y1001120D01*
X379588Y1001142D01*
X379958Y1001127D01*
X380307Y1001081D01*
X380636Y1001004D01*
X380944Y1000897D01*
X381232Y1000761D01*
X381504Y1000601D01*
X381757Y1000415D01*
X381993Y1000204D01*
X382215Y999959D01*
X382427Y999675D01*
X382629Y999349D01*
X382821Y998983D01*
X383012Y998535D01*
X383212Y997965D01*
X383420Y997272D01*
X383637Y996456D01*
X383851Y995609D01*
X384041Y994922D01*
X384207Y994395D01*
X384348Y994027D01*
X384484Y993756D01*
X384633Y993521D01*
X384797Y993321D01*
X384974Y993156D01*
X385170Y993027D01*
X385391Y992935D01*
X385636Y992880D01*
X385906Y992861D01*
X386129Y992872D01*
X386337Y992906D01*
X386531Y992961D01*
X386710Y993039D01*
X386874Y993139D01*
X387024Y993261D01*
X387159Y993406D01*
X387280Y993573D01*
X387387Y993763D01*
X387479Y993978D01*
X387557Y994217D01*
X387621Y994481D01*
X387670Y994769D01*
X387706Y995082D01*
X387727Y995419D01*
X387734Y995781D01*
X387727Y996110D01*
X387705Y996422D01*
X387668Y996716D01*
X387616Y996994D01*
X387550Y997255D01*
X387468Y997498D01*
X387373Y997725D01*
X387262Y997934D01*
X387137Y998125D01*
X387000Y998297D01*
X386850Y998450D01*
X386687Y998583D01*
X386511Y998697D01*
X386322Y998791D01*
X386121Y998866D01*
X385906Y998922D01*
X386152Y1000909D01*
X386563Y1000808D01*
X386946Y1000678D01*
X387299Y1000518D01*
X387624Y1000328D01*
X387919Y1000108D01*
X388185Y999859D01*
X388422Y999580D01*
X388630Y999271D01*
X388811Y998934D01*
X388968Y998568D01*
X389101Y998174D01*
X389209Y997752D01*
X389294Y997301D01*
X389354Y996823D01*
X389391Y996316D01*
X389403Y995781D01*
X389388Y995180D01*
X389343Y994616D01*
X389269Y994089D01*
X389165Y993599D01*
X389031Y993146D01*
X388868Y992730D01*
X388675Y992351D01*
X388452Y992009D01*
X388201Y991705D01*
X387922Y991442D01*
X387617Y991220D01*
X387285Y991038D01*
X386926Y990896D01*
X386539Y990795D01*
X386126Y990735D01*
X385685Y990714D01*
X385445Y990721D01*
X385214Y990743D01*
X384992Y990778D01*
X384781Y990828D01*
X384578Y990892D01*
X384386Y990970D01*
X384203Y991062D01*
X384029Y991168D01*
X383704Y991417D01*
X383405Y991710D01*
X383131Y992046D01*
X382882Y992426D01*
X382645Y992896D01*
X382405Y993504D01*
X382163Y994249D01*
X381919Y995131D01*
X381502Y996713D01*
X381332Y997273D01*
X381140Y997750D01*
X380927Y998144D01*
X380812Y998310D01*
X380692Y998455D01*
X380565Y998582D01*
X380429Y998692D01*
X380283Y998784D01*
X380128Y998860D01*
X379964Y998919D01*
X379791Y998962D01*
X379608Y998987D01*
X379416Y998995D01*
X379167Y998983D01*
X378933Y998947D01*
X378716Y998886D01*
X378515Y998800D01*
X378330Y998691D01*
X378160Y998557D01*
X378007Y998399D01*
X377871Y998216D01*
X377750Y998007D01*
X377645Y997770D01*
X377557Y997505D01*
X377484Y997212D01*
X377428Y996890D01*
X377388Y996540D01*
X377363Y996163D01*
X377355Y995756D01*
X377363Y995375D01*
X377386Y995014D01*
X377425Y994675D01*
X377480Y994358D01*
X377549Y994062D01*
X377635Y993787D01*
X377736Y993534D01*
X377852Y993303D01*
X377985Y993091D01*
X378136Y992899D01*
X378305Y992725D01*
X378492Y992570D01*
X378696Y992434D01*
X378918Y992316D01*
X379158Y992217D01*
X379416Y992137D01*
X379036Y990187D01*
G37*
G36*
X389194Y1002430D02*
X387587Y1002430D01*
X387587Y1003964D01*
X378729Y1003964D01*
X378365Y1003974D01*
X378025Y1004005D01*
X377708Y1004057D01*
X377414Y1004129D01*
X377144Y1004223D01*
X376898Y1004336D01*
X376675Y1004471D01*
X376475Y1004626D01*
X376299Y1004802D01*
X376146Y1004999D01*
X376017Y1005216D01*
X375912Y1005454D01*
X375829Y1005713D01*
X375771Y1005993D01*
X375735Y1006293D01*
X375724Y1006614D01*
X375742Y1007181D01*
X375797Y1007742D01*
X375889Y1008298D01*
X376018Y1008847D01*
X377650Y1008847D01*
X377521Y1008110D01*
X377489Y1007816D01*
X377478Y1007571D01*
X377484Y1007385D01*
X377502Y1007213D01*
X377532Y1007056D01*
X377575Y1006913D01*
X377629Y1006784D01*
X377695Y1006670D01*
X377774Y1006570D01*
X377864Y1006485D01*
X377970Y1006412D01*
X378093Y1006348D01*
X378235Y1006294D01*
X378394Y1006250D01*
X378765Y1006192D01*
X379208Y1006172D01*
X387587Y1006172D01*
X387587Y1008626D01*
X389194Y1008626D01*
X389194Y1006172D01*
X392163Y1006172D01*
X392163Y1004700D01*
X389194Y1004050D01*
X389194Y1002430D01*
G37*
G36*
X389194Y1010687D02*
X387575Y1010742D01*
X386102Y1010761D01*
X375920Y1010761D01*
X375920Y1012969D01*
X382839Y1012969D01*
X383375Y1012980D01*
X383879Y1013014D01*
X384351Y1013071D01*
X384791Y1013150D01*
X385199Y1013252D01*
X385575Y1013376D01*
X385919Y1013523D01*
X386231Y1013693D01*
X386509Y1013884D01*
X386749Y1014095D01*
X386953Y1014327D01*
X387119Y1014579D01*
X387249Y1014852D01*
X387341Y1015144D01*
X387397Y1015457D01*
X387415Y1015791D01*
X387408Y1016140D01*
X387385Y1016453D01*
X387346Y1016729D01*
X387292Y1016968D01*
X389317Y1016968D01*
X389370Y1016742D01*
X389409Y1016518D01*
X389432Y1016294D01*
X389439Y1016073D01*
X389430Y1015769D01*
X389400Y1015482D01*
X389351Y1015214D01*
X389283Y1014963D01*
X389195Y1014729D01*
X389087Y1014513D01*
X388960Y1014315D01*
X388814Y1014135D01*
X388640Y1013965D01*
X388433Y1013801D01*
X388193Y1013642D01*
X387918Y1013487D01*
X387610Y1013338D01*
X387268Y1013194D01*
X386892Y1013054D01*
X386483Y1012920D01*
X386483Y1012871D01*
X387388Y1012846D01*
X389194Y1012773D01*
X389194Y1010687D01*
G37*
G36*
X389194Y1019074D02*
X375920Y1019074D01*
X375920Y1021283D01*
X389194Y1021283D01*
X389194Y1019074D01*
G37*
G36*
X394126Y1019074D02*
X392016Y1019074D01*
X392016Y1021283D01*
X394126Y1021283D01*
X394126Y1019074D01*
G37*
G36*
X519316Y587235D02*
X518904Y587255D01*
X518517Y587316D01*
X518157Y587418D01*
X517822Y587561D01*
X517513Y587744D01*
X517230Y587968D01*
X516973Y588232D01*
X516742Y588538D01*
X516538Y588882D01*
X516361Y589262D01*
X516211Y589679D01*
X516089Y590133D01*
X515993Y590623D01*
X515925Y591150D01*
X515884Y591713D01*
X515871Y592313D01*
X515883Y592922D01*
X515922Y593493D01*
X515987Y594025D01*
X516078Y594519D01*
X516195Y594974D01*
X516337Y595391D01*
X516506Y595769D01*
X516700Y596109D01*
X516922Y596409D01*
X517173Y596669D01*
X517451Y596890D01*
X517759Y597070D01*
X518095Y597210D01*
X518460Y597310D01*
X518853Y597370D01*
X519274Y597390D01*
X519708Y597371D01*
X520111Y597311D01*
X520484Y597212D01*
X520827Y597073D01*
X521139Y596895D01*
X521422Y596677D01*
X521675Y596420D01*
X521897Y596123D01*
X522092Y595786D01*
X522260Y595409D01*
X522403Y594993D01*
X522520Y594536D01*
X522611Y594040D01*
X522675Y593504D01*
X522714Y592928D01*
X522727Y592313D01*
X522714Y591710D01*
X522674Y591144D01*
X522607Y590615D01*
X522514Y590124D01*
X522393Y589670D01*
X522247Y589253D01*
X522073Y588873D01*
X521873Y588531D01*
X521646Y588227D01*
X521393Y587964D01*
X521113Y587741D01*
X520806Y587559D01*
X520474Y587417D01*
X520114Y587316D01*
X519729Y587255D01*
X519316Y587235D01*
G37*
%LPC*%
G36*
X519302Y588264D02*
X519573Y588280D01*
X519825Y588325D01*
X520058Y588401D01*
X520272Y588508D01*
X520466Y588645D01*
X520643Y588812D01*
X520800Y589010D01*
X520938Y589238D01*
X521058Y589499D01*
X521163Y589795D01*
X521251Y590127D01*
X521324Y590493D01*
X521380Y590895D01*
X521420Y591333D01*
X521444Y591805D01*
X521453Y592313D01*
X521445Y592835D01*
X521421Y593319D01*
X521381Y593764D01*
X521326Y594172D01*
X521254Y594542D01*
X521167Y594873D01*
X521064Y595167D01*
X520945Y595422D01*
X520808Y595644D01*
X520650Y595836D01*
X520472Y595999D01*
X520273Y596131D01*
X520054Y596235D01*
X519815Y596309D01*
X519555Y596353D01*
X519274Y596368D01*
X519001Y596353D01*
X518747Y596308D01*
X518514Y596233D01*
X518300Y596128D01*
X518106Y595993D01*
X517933Y595828D01*
X517779Y595633D01*
X517646Y595408D01*
X517530Y595150D01*
X517430Y594855D01*
X517345Y594523D01*
X517276Y594155D01*
X517222Y593749D01*
X517183Y593307D01*
X517160Y592828D01*
X517152Y592313D01*
X517160Y591815D01*
X517185Y591350D01*
X517225Y590918D01*
X517282Y590520D01*
X517355Y590155D01*
X517444Y589823D01*
X517549Y589524D01*
X517670Y589259D01*
X517809Y589026D01*
X517967Y588824D01*
X518143Y588653D01*
X518338Y588513D01*
X518551Y588404D01*
X518783Y588327D01*
X519033Y588280D01*
X519302Y588264D01*
G37*
%LPD*%
G36*
X649419Y587235D02*
X649081Y587250D01*
X648765Y587297D01*
X648471Y587374D01*
X648199Y587483D01*
X647949Y587622D01*
X647720Y587792D01*
X647513Y587994D01*
X647328Y588226D01*
X647165Y588489D01*
X647023Y588783D01*
X646904Y589109D01*
X646806Y589465D01*
X646729Y589852D01*
X646675Y590270D01*
X646642Y590719D01*
X646631Y591199D01*
X646642Y591674D01*
X646674Y592117D01*
X646726Y592530D01*
X646800Y592911D01*
X646895Y593262D01*
X647011Y593581D01*
X647149Y593869D01*
X647307Y594127D01*
X647488Y594353D01*
X647693Y594550D01*
X647921Y594716D01*
X648173Y594852D01*
X648449Y594957D01*
X648748Y595033D01*
X649072Y595078D01*
X649419Y595093D01*
X649829Y595073D01*
X650204Y595014D01*
X650545Y594916D01*
X650851Y594778D01*
X651126Y594595D01*
X651372Y594360D01*
X651590Y594073D01*
X651779Y593734D01*
X651807Y593734D01*
X651779Y594806D01*
X651779Y597769D01*
X653040Y597769D01*
X653040Y588937D01*
X653050Y587955D01*
X653082Y587375D01*
X651863Y587375D01*
X651821Y587890D01*
X651793Y588552D01*
X651779Y588552D01*
X651587Y588229D01*
X651368Y587954D01*
X651123Y587726D01*
X650851Y587547D01*
X650548Y587410D01*
X650208Y587313D01*
X649831Y587254D01*
X649419Y587235D01*
G37*
%LPC*%
G36*
X649755Y588166D02*
X650014Y588178D01*
X650254Y588211D01*
X650475Y588266D01*
X650678Y588344D01*
X650862Y588444D01*
X651027Y588566D01*
X651174Y588711D01*
X651303Y588877D01*
X651414Y589067D01*
X651511Y589282D01*
X651593Y589520D01*
X651660Y589783D01*
X651712Y590071D01*
X651749Y590383D01*
X651772Y590719D01*
X651779Y591080D01*
X651771Y591462D01*
X651749Y591818D01*
X651711Y592147D01*
X651657Y592449D01*
X651589Y592725D01*
X651505Y592974D01*
X651406Y593196D01*
X651292Y593391D01*
X651162Y593562D01*
X651013Y593710D01*
X650846Y593835D01*
X650661Y593938D01*
X650458Y594017D01*
X650237Y594074D01*
X649998Y594108D01*
X649741Y594120D01*
X649513Y594109D01*
X649301Y594077D01*
X649106Y594023D01*
X648927Y593948D01*
X648764Y593852D01*
X648618Y593734D01*
X648489Y593594D01*
X648375Y593433D01*
X648277Y593248D01*
X648191Y593034D01*
X648119Y592791D01*
X648060Y592521D01*
X648014Y592222D01*
X647981Y591896D01*
X647962Y591540D01*
X647955Y591157D01*
X647962Y590775D01*
X647981Y590421D01*
X648015Y590094D01*
X648061Y589794D01*
X648121Y589522D01*
X648193Y589277D01*
X648279Y589060D01*
X648379Y588870D01*
X648493Y588705D01*
X648624Y588562D01*
X648771Y588441D01*
X648935Y588342D01*
X649115Y588265D01*
X649312Y588210D01*
X649525Y588177D01*
X649755Y588166D01*
G37*
%LPD*%
G36*
X624013Y587235D02*
X623572Y587257D01*
X623165Y587325D01*
X622792Y587438D01*
X622455Y587596D01*
X622144Y587808D01*
X621853Y588083D01*
X621582Y588422D01*
X621331Y588825D01*
X621288Y588825D01*
X621250Y588459D01*
X621177Y588145D01*
X621070Y587883D01*
X620928Y587673D01*
X620745Y587512D01*
X620514Y587397D01*
X620235Y587328D01*
X619909Y587305D01*
X619661Y587312D01*
X619417Y587333D01*
X619175Y587368D01*
X618935Y587417D01*
X618935Y588201D01*
X619154Y588165D01*
X619348Y588152D01*
X619538Y588170D01*
X619695Y588223D01*
X619819Y588312D01*
X619909Y588436D01*
X619973Y588595D01*
X620019Y588789D01*
X620047Y589017D01*
X620056Y589280D01*
X620056Y592544D01*
X620067Y592845D01*
X620101Y593127D01*
X620157Y593391D01*
X620236Y593637D01*
X620338Y593865D01*
X620462Y594074D01*
X620608Y594265D01*
X620777Y594438D01*
X620969Y594592D01*
X621182Y594725D01*
X621418Y594837D01*
X621675Y594929D01*
X621955Y595001D01*
X622257Y595052D01*
X622581Y595083D01*
X622927Y595093D01*
X623258Y595085D01*
X623569Y595061D01*
X623862Y595021D01*
X624136Y594965D01*
X624392Y594893D01*
X624629Y594806D01*
X624847Y594702D01*
X625046Y594582D01*
X625227Y594446D01*
X625389Y594294D01*
X625532Y594127D01*
X625656Y593943D01*
X625762Y593743D01*
X625849Y593527D01*
X625917Y593296D01*
X625967Y593048D01*
X624650Y592929D01*
X624593Y593223D01*
X624496Y593474D01*
X624361Y593681D01*
X624188Y593846D01*
X623967Y593972D01*
X623687Y594062D01*
X623350Y594116D01*
X622955Y594134D01*
X622752Y594127D01*
X622563Y594109D01*
X622388Y594078D01*
X622227Y594034D01*
X622080Y593978D01*
X621947Y593909D01*
X621828Y593828D01*
X621723Y593734D01*
X621631Y593626D01*
X621551Y593502D01*
X621484Y593361D01*
X621429Y593204D01*
X621386Y593030D01*
X621355Y592840D01*
X621337Y592634D01*
X621331Y592411D01*
X621331Y591997D01*
X623032Y591969D01*
X623448Y591950D01*
X623835Y591912D01*
X624191Y591855D01*
X624518Y591780D01*
X624815Y591687D01*
X625083Y591576D01*
X625321Y591446D01*
X625529Y591297D01*
X625711Y591131D01*
X625868Y590948D01*
X626001Y590748D01*
X626110Y590530D01*
X626194Y590296D01*
X626255Y590044D01*
X626291Y589776D01*
X626303Y589490D01*
X626294Y589235D01*
X626267Y588993D01*
X626222Y588765D01*
X626160Y588552D01*
X626079Y588352D01*
X625980Y588166D01*
X625863Y587995D01*
X625729Y587837D01*
X625576Y587696D01*
X625406Y587574D01*
X625218Y587470D01*
X625013Y587386D01*
X624789Y587320D01*
X624548Y587273D01*
X624290Y587244D01*
X624013Y587235D01*
G37*
%LPC*%
G36*
X623726Y588180D02*
X624016Y588201D01*
X624271Y588264D01*
X624491Y588370D01*
X624675Y588517D01*
X624820Y588702D01*
X624924Y588923D01*
X624987Y589178D01*
X625008Y589469D01*
X624992Y589739D01*
X624946Y589982D01*
X624870Y590198D01*
X624762Y590387D01*
X624626Y590550D01*
X624464Y590691D01*
X624275Y590809D01*
X624058Y590905D01*
X623802Y590979D01*
X623492Y591034D01*
X623128Y591070D01*
X622710Y591087D01*
X621331Y591115D01*
X621331Y590492D01*
X621350Y590203D01*
X621408Y589918D01*
X621506Y589637D01*
X621642Y589361D01*
X621812Y589100D01*
X622011Y588869D01*
X622238Y588668D01*
X622493Y588496D01*
X622772Y588358D01*
X623071Y588259D01*
X623389Y588200D01*
X623726Y588180D01*
G37*
%LPD*%
G36*
X566218Y587235D02*
X565889Y587242D01*
X565565Y587262D01*
X565248Y587297D01*
X564936Y587344D01*
X564630Y587406D01*
X564331Y587481D01*
X564037Y587570D01*
X563750Y587673D01*
X563203Y587914D01*
X562700Y588201D01*
X562241Y588532D01*
X561827Y588909D01*
X561827Y592313D01*
X566008Y592313D01*
X566008Y591192D01*
X563060Y591192D01*
X563060Y589413D01*
X563339Y589174D01*
X563658Y588961D01*
X564016Y588775D01*
X564415Y588615D01*
X564842Y588486D01*
X565284Y588394D01*
X565743Y588339D01*
X566218Y588321D01*
X566631Y588337D01*
X567020Y588388D01*
X567386Y588473D01*
X567730Y588591D01*
X568050Y588743D01*
X568347Y588929D01*
X568622Y589149D01*
X568873Y589403D01*
X569098Y589685D01*
X569293Y589993D01*
X569458Y590325D01*
X569593Y590682D01*
X569697Y591063D01*
X569772Y591469D01*
X569817Y591899D01*
X569832Y592355D01*
X569818Y592811D01*
X569776Y593240D01*
X569705Y593644D01*
X569607Y594021D01*
X569479Y594371D01*
X569324Y594695D01*
X569141Y594993D01*
X568929Y595265D01*
X568690Y595507D01*
X568427Y595717D01*
X568138Y595894D01*
X567824Y596040D01*
X567485Y596153D01*
X567121Y596233D01*
X566731Y596282D01*
X566317Y596298D01*
X566047Y596292D01*
X565789Y596274D01*
X565543Y596244D01*
X565307Y596202D01*
X565083Y596147D01*
X564870Y596081D01*
X564668Y596003D01*
X564478Y595913D01*
X564298Y595809D01*
X564128Y595692D01*
X563969Y595560D01*
X563819Y595414D01*
X563679Y595253D01*
X563549Y595079D01*
X563319Y594687D01*
X562044Y595065D01*
X562190Y595359D01*
X562350Y595633D01*
X562525Y595886D01*
X562715Y596117D01*
X562919Y596329D01*
X563138Y596519D01*
X563372Y596688D01*
X563620Y596837D01*
X563885Y596967D01*
X564170Y597079D01*
X564474Y597174D01*
X564797Y597252D01*
X565139Y597313D01*
X565501Y597356D01*
X565881Y597382D01*
X566281Y597390D01*
X566848Y597370D01*
X567382Y597308D01*
X567884Y597205D01*
X568353Y597061D01*
X568789Y596876D01*
X569193Y596650D01*
X569564Y596382D01*
X569902Y596074D01*
X570204Y595728D01*
X570466Y595347D01*
X570688Y594934D01*
X570869Y594486D01*
X571010Y594004D01*
X571111Y593488D01*
X571171Y592938D01*
X571191Y592355D01*
X571182Y591969D01*
X571154Y591596D01*
X571108Y591236D01*
X571043Y590888D01*
X570960Y590554D01*
X570858Y590232D01*
X570738Y589923D01*
X570599Y589627D01*
X570443Y589345D01*
X570270Y589081D01*
X570081Y588834D01*
X569875Y588603D01*
X569653Y588390D01*
X569414Y588193D01*
X569159Y588014D01*
X568887Y587851D01*
X568600Y587707D01*
X568300Y587582D01*
X567986Y587476D01*
X567659Y587389D01*
X567319Y587322D01*
X566966Y587273D01*
X566599Y587245D01*
X566218Y587235D01*
G37*
G36*
X595625Y587375D02*
X594378Y587375D01*
X594378Y592425D01*
X594386Y592768D01*
X594411Y593086D01*
X594452Y593379D01*
X594509Y593647D01*
X594582Y593890D01*
X594672Y594108D01*
X594778Y594302D01*
X594900Y594470D01*
X595040Y594616D01*
X595200Y594743D01*
X595380Y594850D01*
X595579Y594937D01*
X595797Y595006D01*
X596035Y595054D01*
X596293Y595083D01*
X596571Y595093D01*
X596952Y595072D01*
X597303Y595009D01*
X597626Y594904D01*
X597919Y594757D01*
X598187Y594562D01*
X598434Y594314D01*
X598661Y594012D01*
X598868Y593657D01*
X598889Y593657D01*
X599006Y594007D01*
X599161Y594305D01*
X599354Y594553D01*
X599586Y594750D01*
X599859Y594900D01*
X600177Y595007D01*
X600540Y595072D01*
X600948Y595093D01*
X601312Y595073D01*
X601647Y595014D01*
X601952Y594916D01*
X602230Y594778D01*
X602485Y594590D01*
X602725Y594340D01*
X602951Y594029D01*
X603161Y593657D01*
X603182Y593657D01*
X603207Y594410D01*
X603224Y594764D01*
X603238Y594953D01*
X604429Y594953D01*
X604410Y594742D01*
X604397Y594402D01*
X604387Y593335D01*
X604387Y587375D01*
X603133Y587375D01*
X603133Y591766D01*
X603126Y592039D01*
X603104Y592295D01*
X603067Y592536D01*
X603016Y592761D01*
X602950Y592970D01*
X602869Y593164D01*
X602774Y593341D01*
X602664Y593503D01*
X602541Y593648D01*
X602408Y593773D01*
X602265Y593879D01*
X602111Y593966D01*
X601946Y594033D01*
X601771Y594081D01*
X601585Y594110D01*
X601389Y594120D01*
X601201Y594113D01*
X601027Y594093D01*
X600869Y594061D01*
X600726Y594015D01*
X600597Y593955D01*
X600484Y593883D01*
X600386Y593798D01*
X600304Y593699D01*
X600233Y593584D01*
X600172Y593447D01*
X600120Y593289D01*
X600078Y593109D01*
X600021Y592687D01*
X600002Y592180D01*
X600002Y587375D01*
X598756Y587375D01*
X598756Y591766D01*
X598749Y592040D01*
X598727Y592298D01*
X598691Y592540D01*
X598641Y592765D01*
X598577Y592975D01*
X598498Y593168D01*
X598404Y593346D01*
X598297Y593507D01*
X598177Y593650D01*
X598045Y593775D01*
X597901Y593880D01*
X597746Y593966D01*
X597580Y594033D01*
X597402Y594081D01*
X597213Y594110D01*
X597012Y594120D01*
X596823Y594113D01*
X596650Y594093D01*
X596491Y594061D01*
X596348Y594015D01*
X596220Y593955D01*
X596107Y593883D01*
X596009Y593798D01*
X595926Y593699D01*
X595856Y593584D01*
X595794Y593447D01*
X595743Y593289D01*
X595700Y593109D01*
X595644Y592687D01*
X595625Y592180D01*
X595625Y587375D01*
G37*
G36*
X613767Y587375D02*
X605993Y587375D01*
X605993Y588468D01*
X612429Y588468D01*
X612429Y591906D01*
X606700Y591906D01*
X606700Y592985D01*
X612429Y592985D01*
X612429Y596151D01*
X606280Y596151D01*
X606280Y597243D01*
X613767Y597243D01*
X613767Y587375D01*
G37*
G36*
X547146Y587235D02*
X546851Y587242D01*
X546570Y587263D01*
X546303Y587298D01*
X546049Y587347D01*
X545809Y587410D01*
X545582Y587487D01*
X545369Y587578D01*
X545169Y587683D01*
X544982Y587802D01*
X544810Y587935D01*
X544650Y588082D01*
X544505Y588243D01*
X544373Y588419D01*
X544254Y588608D01*
X544149Y588811D01*
X544057Y589028D01*
X545164Y589343D01*
X545271Y589102D01*
X545418Y588883D01*
X545605Y588685D01*
X545832Y588510D01*
X546100Y588366D01*
X546408Y588263D01*
X546756Y588201D01*
X547146Y588180D01*
X547397Y588191D01*
X547633Y588225D01*
X547853Y588280D01*
X548058Y588357D01*
X548247Y588457D01*
X548421Y588578D01*
X548579Y588722D01*
X548721Y588888D01*
X548848Y589074D01*
X548957Y589279D01*
X549050Y589502D01*
X549126Y589744D01*
X549185Y590005D01*
X549227Y590284D01*
X549252Y590582D01*
X549261Y590898D01*
X543854Y590898D01*
X543854Y591066D01*
X543867Y591554D01*
X543906Y592010D01*
X543971Y592435D01*
X544063Y592828D01*
X544180Y593190D01*
X544324Y593520D01*
X544493Y593819D01*
X544689Y594086D01*
X544911Y594322D01*
X545159Y594527D01*
X545433Y594700D01*
X545733Y594841D01*
X546059Y594952D01*
X546412Y595030D01*
X546790Y595077D01*
X547195Y595093D01*
X547591Y595078D01*
X547964Y595031D01*
X548313Y594952D01*
X548638Y594843D01*
X548940Y594702D01*
X549219Y594530D01*
X549474Y594326D01*
X549705Y594092D01*
X549911Y593828D01*
X550090Y593536D01*
X550241Y593217D01*
X550365Y592871D01*
X550461Y592498D01*
X550530Y592097D01*
X550571Y591669D01*
X550584Y591213D01*
X550571Y590735D01*
X550530Y590286D01*
X550461Y589869D01*
X550365Y589481D01*
X550241Y589125D01*
X550090Y588798D01*
X549911Y588502D01*
X549705Y588236D01*
X549473Y588002D01*
X549216Y587798D01*
X548933Y587626D01*
X548626Y587485D01*
X548294Y587376D01*
X547936Y587298D01*
X547553Y587251D01*
X547146Y587235D01*
G37*
%LPC*%
G36*
X549247Y591864D02*
X549229Y592125D01*
X549195Y592372D01*
X549146Y592604D01*
X549081Y592821D01*
X549001Y593025D01*
X548906Y593214D01*
X548795Y593388D01*
X548669Y593549D01*
X548529Y593692D01*
X548377Y593817D01*
X548213Y593922D01*
X548038Y594008D01*
X547850Y594075D01*
X547651Y594123D01*
X547439Y594152D01*
X547216Y594162D01*
X546986Y594153D01*
X546770Y594127D01*
X546569Y594084D01*
X546380Y594024D01*
X546206Y593947D01*
X546046Y593852D01*
X545899Y593741D01*
X545766Y593612D01*
X545646Y593464D01*
X545539Y593296D01*
X545444Y593108D01*
X545361Y592900D01*
X545291Y592672D01*
X545234Y592423D01*
X545189Y592154D01*
X545157Y591864D01*
X549247Y591864D01*
G37*
%LPD*%
G36*
X579802Y587235D02*
X579507Y587242D01*
X579227Y587263D01*
X578959Y587298D01*
X578705Y587347D01*
X578465Y587410D01*
X578238Y587487D01*
X578025Y587578D01*
X577825Y587683D01*
X577639Y587802D01*
X577466Y587935D01*
X577307Y588082D01*
X577161Y588243D01*
X577029Y588419D01*
X576910Y588608D01*
X576805Y588811D01*
X576713Y589028D01*
X577820Y589343D01*
X577927Y589102D01*
X578075Y588883D01*
X578262Y588685D01*
X578489Y588510D01*
X578756Y588366D01*
X579064Y588263D01*
X579412Y588201D01*
X579802Y588180D01*
X580053Y588191D01*
X580289Y588225D01*
X580509Y588280D01*
X580714Y588357D01*
X580903Y588457D01*
X581077Y588578D01*
X581235Y588722D01*
X581378Y588888D01*
X581504Y589074D01*
X581614Y589279D01*
X581706Y589502D01*
X581782Y589744D01*
X581841Y590005D01*
X581883Y590284D01*
X581909Y590582D01*
X581917Y590898D01*
X576510Y590898D01*
X576510Y591066D01*
X576523Y591554D01*
X576562Y592010D01*
X576628Y592435D01*
X576719Y592828D01*
X576836Y593190D01*
X576980Y593520D01*
X577150Y593819D01*
X577345Y594086D01*
X577567Y594322D01*
X577815Y594527D01*
X578089Y594700D01*
X578389Y594841D01*
X578716Y594952D01*
X579068Y595030D01*
X579446Y595077D01*
X579851Y595093D01*
X580247Y595078D01*
X580620Y595031D01*
X580969Y594952D01*
X581295Y594843D01*
X581597Y594702D01*
X581875Y594530D01*
X582130Y594326D01*
X582362Y594092D01*
X582568Y593828D01*
X582746Y593536D01*
X582897Y593217D01*
X583021Y592871D01*
X583117Y592498D01*
X583186Y592097D01*
X583227Y591669D01*
X583241Y591213D01*
X583227Y590735D01*
X583186Y590286D01*
X583117Y589869D01*
X583021Y589481D01*
X582897Y589125D01*
X582746Y588798D01*
X582568Y588502D01*
X582362Y588236D01*
X582129Y588002D01*
X581872Y587798D01*
X581590Y587626D01*
X581282Y587485D01*
X580950Y587376D01*
X580592Y587298D01*
X580210Y587251D01*
X579802Y587235D01*
G37*
%LPC*%
G36*
X581903Y591864D02*
X581885Y592125D01*
X581851Y592372D01*
X581802Y592604D01*
X581738Y592821D01*
X581658Y593025D01*
X581562Y593214D01*
X581451Y593388D01*
X581325Y593549D01*
X581185Y593692D01*
X581033Y593817D01*
X580870Y593922D01*
X580694Y594008D01*
X580506Y594075D01*
X580307Y594123D01*
X580095Y594152D01*
X579872Y594162D01*
X579642Y594153D01*
X579427Y594127D01*
X579225Y594084D01*
X579037Y594024D01*
X578862Y593947D01*
X578702Y593852D01*
X578555Y593741D01*
X578422Y593612D01*
X578302Y593464D01*
X578195Y593296D01*
X578100Y593108D01*
X578018Y592900D01*
X577948Y592672D01*
X577890Y592423D01*
X577845Y592154D01*
X577813Y591864D01*
X581903Y591864D01*
G37*
%LPD*%
G36*
X503446Y587235D02*
X503045Y587249D01*
X502668Y587291D01*
X502312Y587361D01*
X501979Y587459D01*
X501669Y587585D01*
X501381Y587739D01*
X501115Y587921D01*
X500872Y588131D01*
X500654Y588366D01*
X500466Y588621D01*
X500306Y588897D01*
X500176Y589194D01*
X500074Y589512D01*
X500002Y589850D01*
X499958Y590210D01*
X499944Y590590D01*
X499957Y590925D01*
X499998Y591244D01*
X500065Y591546D01*
X500160Y591833D01*
X500282Y592103D01*
X500430Y592357D01*
X500606Y592595D01*
X500809Y592817D01*
X501034Y593017D01*
X501278Y593191D01*
X501541Y593338D01*
X501822Y593458D01*
X502121Y593551D01*
X502439Y593618D01*
X502776Y593658D01*
X503131Y593671D01*
X503429Y593662D01*
X503715Y593632D01*
X503988Y593583D01*
X504249Y593514D01*
X504498Y593425D01*
X504734Y593317D01*
X504958Y593189D01*
X505169Y593041D01*
X504980Y596172D01*
X500518Y596172D01*
X500518Y597243D01*
X506128Y597243D01*
X506457Y591934D01*
X505225Y591934D01*
X505004Y592113D01*
X504783Y592264D01*
X504563Y592386D01*
X504342Y592481D01*
X504117Y592551D01*
X503883Y592602D01*
X503641Y592632D01*
X503390Y592642D01*
X503151Y592633D01*
X502925Y592606D01*
X502711Y592561D01*
X502510Y592498D01*
X502321Y592418D01*
X502145Y592319D01*
X501982Y592202D01*
X501831Y592068D01*
X501696Y591918D01*
X501579Y591758D01*
X501479Y591587D01*
X501398Y591404D01*
X501335Y591210D01*
X501290Y591005D01*
X501263Y590789D01*
X501254Y590562D01*
X501262Y590301D01*
X501289Y590055D01*
X501334Y589823D01*
X501397Y589605D01*
X501478Y589401D01*
X501577Y589212D01*
X501693Y589038D01*
X501828Y588877D01*
X501978Y588734D01*
X502143Y588609D01*
X502321Y588504D01*
X502512Y588418D01*
X502718Y588351D01*
X502937Y588303D01*
X503171Y588274D01*
X503418Y588264D01*
X503811Y588287D01*
X504166Y588356D01*
X504481Y588470D01*
X504757Y588630D01*
X504994Y588836D01*
X505192Y589088D01*
X505350Y589385D01*
X505470Y589728D01*
X506744Y589581D01*
X506679Y589304D01*
X506593Y589044D01*
X506489Y588801D01*
X506365Y588574D01*
X506221Y588365D01*
X506058Y588172D01*
X505875Y587996D01*
X505673Y587837D01*
X505453Y587696D01*
X505216Y587574D01*
X504962Y587470D01*
X504692Y587386D01*
X504406Y587320D01*
X504102Y587273D01*
X503782Y587244D01*
X503446Y587235D01*
G37*
G36*
X480195Y587235D02*
X479804Y587247D01*
X479436Y587282D01*
X479091Y587340D01*
X478769Y587422D01*
X478471Y587528D01*
X478196Y587656D01*
X477944Y587809D01*
X477715Y587984D01*
X477512Y588181D01*
X477335Y588398D01*
X477186Y588633D01*
X477064Y588888D01*
X476969Y589162D01*
X476901Y589455D01*
X476860Y589768D01*
X476847Y590099D01*
X476856Y590331D01*
X476885Y590552D01*
X476933Y590763D01*
X477001Y590964D01*
X477088Y591156D01*
X477193Y591337D01*
X477319Y591507D01*
X477463Y591668D01*
X477625Y591816D01*
X477802Y591948D01*
X477994Y592065D01*
X478202Y592166D01*
X478425Y592251D01*
X478663Y592320D01*
X478917Y592373D01*
X479186Y592411D01*
X479186Y592439D01*
X478941Y592497D01*
X478712Y592568D01*
X478497Y592650D01*
X478297Y592744D01*
X478113Y592850D01*
X477943Y592969D01*
X477788Y593099D01*
X477649Y593241D01*
X477525Y593394D01*
X477417Y593559D01*
X477327Y593734D01*
X477252Y593921D01*
X477194Y594119D01*
X477153Y594327D01*
X477128Y594547D01*
X477120Y594778D01*
X477133Y595078D01*
X477171Y595360D01*
X477236Y595626D01*
X477326Y595875D01*
X477441Y596107D01*
X477583Y596322D01*
X477750Y596520D01*
X477943Y596701D01*
X478159Y596862D01*
X478396Y597002D01*
X478653Y597121D01*
X478931Y597218D01*
X479230Y597293D01*
X479550Y597347D01*
X479890Y597380D01*
X480251Y597390D01*
X480583Y597380D01*
X480899Y597348D01*
X481200Y597295D01*
X481486Y597221D01*
X481756Y597125D01*
X482011Y597008D01*
X482250Y596870D01*
X482474Y596711D01*
X482679Y596533D01*
X482862Y596338D01*
X483021Y596127D01*
X483158Y595899D01*
X483272Y595654D01*
X483364Y595393D01*
X483433Y595115D01*
X483479Y594820D01*
X482212Y594722D01*
X482184Y594911D01*
X482143Y595089D01*
X482088Y595256D01*
X482020Y595412D01*
X481938Y595557D01*
X481843Y595691D01*
X481735Y595814D01*
X481613Y595927D01*
X481479Y596027D01*
X481336Y596114D01*
X481182Y596187D01*
X481018Y596247D01*
X480845Y596294D01*
X480661Y596327D01*
X480468Y596347D01*
X480265Y596354D01*
X480042Y596347D01*
X479834Y596325D01*
X479640Y596289D01*
X479460Y596239D01*
X479294Y596175D01*
X479143Y596096D01*
X479005Y596003D01*
X478881Y595895D01*
X478772Y595775D01*
X478678Y595645D01*
X478598Y595504D01*
X478532Y595353D01*
X478481Y595192D01*
X478445Y595020D01*
X478423Y594838D01*
X478416Y594645D01*
X478425Y594451D01*
X478451Y594267D01*
X478496Y594095D01*
X478558Y593933D01*
X478639Y593782D01*
X478737Y593642D01*
X478853Y593513D01*
X478986Y593395D01*
X479136Y593289D01*
X479301Y593197D01*
X479480Y593119D01*
X479674Y593056D01*
X479882Y593007D01*
X480105Y592971D01*
X480342Y592950D01*
X480594Y592943D01*
X481280Y592943D01*
X481280Y591850D01*
X480566Y591850D01*
X480282Y591843D01*
X480015Y591822D01*
X479766Y591787D01*
X479534Y591737D01*
X479319Y591674D01*
X479121Y591596D01*
X478940Y591505D01*
X478776Y591399D01*
X478631Y591280D01*
X478505Y591151D01*
X478399Y591010D01*
X478311Y590859D01*
X478244Y590696D01*
X478195Y590522D01*
X478166Y590337D01*
X478157Y590141D01*
X478165Y589917D01*
X478190Y589708D01*
X478233Y589512D01*
X478292Y589331D01*
X478369Y589164D01*
X478462Y589011D01*
X478572Y588872D01*
X478699Y588748D01*
X478841Y588638D01*
X478996Y588542D01*
X479164Y588462D01*
X479345Y588396D01*
X479538Y588344D01*
X479744Y588308D01*
X479963Y588286D01*
X480195Y588278D01*
X480425Y588285D01*
X480643Y588306D01*
X480849Y588340D01*
X481041Y588388D01*
X481220Y588449D01*
X481387Y588525D01*
X481540Y588614D01*
X481681Y588716D01*
X481809Y588832D01*
X481924Y588962D01*
X482026Y589106D01*
X482116Y589263D01*
X482192Y589434D01*
X482256Y589619D01*
X482307Y589817D01*
X482345Y590029D01*
X483647Y589910D01*
X483594Y589590D01*
X483518Y589289D01*
X483419Y589009D01*
X483298Y588749D01*
X483154Y588509D01*
X482988Y588289D01*
X482798Y588090D01*
X482586Y587911D01*
X482354Y587752D01*
X482102Y587615D01*
X481831Y587499D01*
X481542Y587404D01*
X481234Y587330D01*
X480906Y587277D01*
X480560Y587246D01*
X480195Y587235D01*
G37*
G36*
X530535Y587375D02*
X524000Y587375D01*
X524000Y588447D01*
X529148Y588447D01*
X529026Y588694D01*
X528871Y588946D01*
X528683Y589204D01*
X528462Y589466D01*
X528203Y589738D01*
X527903Y590027D01*
X527180Y590653D01*
X526507Y591209D01*
X525953Y591688D01*
X525516Y592088D01*
X525198Y592411D01*
X524955Y592694D01*
X524744Y592978D01*
X524564Y593262D01*
X524417Y593545D01*
X524302Y593829D01*
X524220Y594114D01*
X524171Y594400D01*
X524154Y594687D01*
X524167Y595002D01*
X524205Y595298D01*
X524267Y595576D01*
X524355Y595835D01*
X524468Y596075D01*
X524606Y596298D01*
X524768Y596501D01*
X524956Y596687D01*
X525168Y596852D01*
X525400Y596994D01*
X525655Y597115D01*
X525931Y597214D01*
X526228Y597291D01*
X526547Y597346D01*
X526888Y597379D01*
X527250Y597390D01*
X527582Y597379D01*
X527899Y597347D01*
X528200Y597292D01*
X528485Y597215D01*
X528756Y597117D01*
X529010Y596996D01*
X529250Y596854D01*
X529474Y596690D01*
X529679Y596507D01*
X529861Y596310D01*
X530021Y596097D01*
X530158Y595869D01*
X530272Y595626D01*
X530364Y595368D01*
X530433Y595094D01*
X530479Y594806D01*
X529190Y594687D01*
X529161Y594879D01*
X529118Y595061D01*
X529061Y595231D01*
X528991Y595390D01*
X528908Y595538D01*
X528811Y595675D01*
X528701Y595801D01*
X528577Y595916D01*
X528299Y596108D01*
X528146Y596183D01*
X527985Y596244D01*
X527814Y596292D01*
X527635Y596326D01*
X527447Y596347D01*
X527250Y596354D01*
X527044Y596347D01*
X526850Y596326D01*
X526667Y596291D01*
X526495Y596242D01*
X526336Y596179D01*
X526188Y596102D01*
X526051Y596011D01*
X525926Y595906D01*
X525815Y595788D01*
X525718Y595659D01*
X525636Y595518D01*
X525569Y595366D01*
X525517Y595203D01*
X525480Y595028D01*
X525458Y594842D01*
X525450Y594645D01*
X525467Y594352D01*
X525519Y594074D01*
X525606Y593812D01*
X525727Y593566D01*
X525876Y593331D01*
X526046Y593101D01*
X526238Y592876D01*
X526452Y592656D01*
X526927Y592222D01*
X527457Y591787D01*
X528016Y591335D01*
X528581Y590845D01*
X529135Y590308D01*
X529663Y589711D01*
X529910Y589385D01*
X530138Y589036D01*
X530346Y588662D01*
X530535Y588264D01*
X530535Y587375D01*
G37*
G36*
X644669Y584398D02*
X644365Y584417D01*
X644078Y584471D01*
X643806Y584562D01*
X643551Y584689D01*
X643310Y584853D01*
X643080Y585055D01*
X642860Y585294D01*
X642651Y585572D01*
X642444Y585906D01*
X642229Y586318D01*
X642007Y586808D01*
X641776Y587375D01*
X638862Y594953D01*
X640193Y594953D01*
X641853Y590127D01*
X642343Y588748D01*
X642630Y589616D01*
X642946Y590530D01*
X643030Y590765D01*
X644627Y594953D01*
X645971Y594953D01*
X642967Y587410D01*
X643086Y587109D01*
X643265Y586703D01*
X643460Y586352D01*
X643669Y586055D01*
X643895Y585811D01*
X644135Y585622D01*
X644391Y585487D01*
X644662Y585406D01*
X644804Y585386D01*
X644949Y585379D01*
X645257Y585389D01*
X645537Y585421D01*
X645537Y584475D01*
X645145Y584418D01*
X644669Y584398D01*
G37*
G36*
X630490Y587235D02*
X630136Y587244D01*
X629802Y587271D01*
X629488Y587317D01*
X629195Y587380D01*
X628922Y587462D01*
X628669Y587562D01*
X628436Y587680D01*
X628224Y587816D01*
X628035Y587969D01*
X627870Y588138D01*
X627731Y588321D01*
X627617Y588520D01*
X627529Y588734D01*
X627466Y588964D01*
X627428Y589209D01*
X627415Y589469D01*
X627424Y589680D01*
X627450Y589880D01*
X627494Y590067D01*
X627555Y590243D01*
X627633Y590408D01*
X627724Y590563D01*
X627830Y590707D01*
X627951Y590842D01*
X628090Y590969D01*
X628253Y591090D01*
X628439Y591205D01*
X628648Y591315D01*
X628903Y591424D01*
X629229Y591538D01*
X630091Y591780D01*
X630966Y592012D01*
X631267Y592106D01*
X631477Y592187D01*
X631632Y592264D01*
X631766Y592349D01*
X631881Y592443D01*
X631975Y592544D01*
X632048Y592656D01*
X632101Y592782D01*
X632132Y592922D01*
X632143Y593076D01*
X632136Y593203D01*
X632117Y593322D01*
X632041Y593535D01*
X631914Y593714D01*
X631737Y593861D01*
X631505Y593974D01*
X631218Y594055D01*
X630875Y594103D01*
X630476Y594120D01*
X630110Y594103D01*
X629783Y594052D01*
X629496Y593968D01*
X629247Y593850D01*
X629039Y593701D01*
X628876Y593522D01*
X628758Y593314D01*
X628683Y593076D01*
X627548Y593216D01*
X627606Y593451D01*
X627680Y593670D01*
X627772Y593871D01*
X627880Y594057D01*
X628005Y594225D01*
X628148Y594377D01*
X628307Y594512D01*
X628483Y594631D01*
X628676Y594734D01*
X628885Y594824D01*
X629110Y594900D01*
X629351Y594962D01*
X629608Y595010D01*
X629881Y595045D01*
X630170Y595065D01*
X630476Y595072D01*
X630819Y595064D01*
X631141Y595038D01*
X631442Y594996D01*
X631722Y594936D01*
X631980Y594860D01*
X632218Y594767D01*
X632434Y594657D01*
X632630Y594529D01*
X632803Y594386D01*
X632953Y594227D01*
X633080Y594053D01*
X633184Y593863D01*
X633264Y593658D01*
X633322Y593437D01*
X633357Y593201D01*
X633368Y592950D01*
X633352Y592681D01*
X633304Y592433D01*
X633223Y592208D01*
X633109Y592005D01*
X632967Y591819D01*
X632800Y591648D01*
X632608Y591492D01*
X632391Y591350D01*
X632123Y591214D01*
X631776Y591077D01*
X631351Y590939D01*
X630847Y590800D01*
X629944Y590562D01*
X629624Y590465D01*
X629352Y590355D01*
X629127Y590233D01*
X628949Y590099D01*
X628814Y589949D01*
X628718Y589777D01*
X628660Y589585D01*
X628641Y589371D01*
X628648Y589229D01*
X628669Y589095D01*
X628703Y588971D01*
X628752Y588856D01*
X628815Y588751D01*
X628891Y588654D01*
X629086Y588489D01*
X629340Y588360D01*
X629659Y588268D01*
X630042Y588213D01*
X630490Y588194D01*
X630914Y588212D01*
X631288Y588265D01*
X631614Y588354D01*
X631891Y588478D01*
X632121Y588640D01*
X632309Y588843D01*
X632454Y589087D01*
X632556Y589371D01*
X633670Y589154D01*
X633603Y588915D01*
X633521Y588693D01*
X633421Y588487D01*
X633304Y588297D01*
X633171Y588123D01*
X633021Y587966D01*
X632855Y587825D01*
X632672Y587701D01*
X632470Y587592D01*
X632248Y587497D01*
X632005Y587417D01*
X631743Y587351D01*
X631460Y587300D01*
X631157Y587264D01*
X630833Y587242D01*
X630490Y587235D01*
G37*
G36*
X514195Y587375D02*
X508011Y587375D01*
X508011Y588447D01*
X510413Y588447D01*
X510413Y597243D01*
X511576Y597243D01*
X513908Y595639D01*
X513908Y594449D01*
X511681Y596039D01*
X511681Y588447D01*
X514195Y588447D01*
X514195Y587375D01*
G37*
G36*
X662071Y587235D02*
X661776Y587245D01*
X661495Y587276D01*
X661226Y587327D01*
X660971Y587398D01*
X660729Y587489D01*
X660500Y587601D01*
X660284Y587734D01*
X660082Y587886D01*
X659895Y588056D01*
X659729Y588240D01*
X659583Y588437D01*
X659457Y588648D01*
X659350Y588873D01*
X659263Y589112D01*
X659197Y589364D01*
X659150Y589630D01*
X660425Y589714D01*
X660499Y589361D01*
X660617Y589056D01*
X660777Y588800D01*
X660982Y588594D01*
X661221Y588434D01*
X661488Y588321D01*
X661783Y588252D01*
X662106Y588229D01*
X662338Y588241D01*
X662555Y588275D01*
X662757Y588332D01*
X662944Y588412D01*
X663116Y588514D01*
X663273Y588639D01*
X663415Y588787D01*
X663541Y588958D01*
X663653Y589152D01*
X663750Y589371D01*
X663832Y589614D01*
X663899Y589882D01*
X663951Y590175D01*
X663988Y590492D01*
X664010Y590833D01*
X664018Y591199D01*
X664011Y591579D01*
X663990Y591930D01*
X663955Y592253D01*
X663906Y592547D01*
X663843Y592813D01*
X663766Y593051D01*
X663675Y593260D01*
X663569Y593440D01*
X663449Y593596D01*
X663311Y593731D01*
X663156Y593846D01*
X662983Y593939D01*
X662793Y594012D01*
X662586Y594064D01*
X662361Y594095D01*
X662120Y594106D01*
X661773Y594082D01*
X661468Y594013D01*
X661206Y593897D01*
X660985Y593734D01*
X660804Y593533D01*
X660661Y593298D01*
X660556Y593032D01*
X660488Y592733D01*
X659192Y592831D01*
X659250Y593088D01*
X659326Y593331D01*
X659419Y593560D01*
X659531Y593775D01*
X659660Y593975D01*
X659807Y594161D01*
X659972Y594333D01*
X660155Y594491D01*
X660353Y594632D01*
X660563Y594754D01*
X660786Y594858D01*
X661021Y594943D01*
X661268Y595008D01*
X661528Y595056D01*
X661800Y595084D01*
X662085Y595093D01*
X662466Y595077D01*
X662824Y595030D01*
X663159Y594952D01*
X663471Y594842D01*
X663761Y594701D01*
X664028Y594528D01*
X664273Y594324D01*
X664494Y594088D01*
X664691Y593823D01*
X664862Y593529D01*
X665006Y593207D01*
X665124Y592856D01*
X665216Y592478D01*
X665282Y592070D01*
X665321Y591635D01*
X665334Y591171D01*
X665321Y590704D01*
X665282Y590266D01*
X665217Y589856D01*
X665125Y589475D01*
X665008Y589123D01*
X664864Y588800D01*
X664694Y588506D01*
X664497Y588240D01*
X664276Y588004D01*
X664032Y587800D01*
X663764Y587628D01*
X663472Y587486D01*
X663157Y587376D01*
X662819Y587298D01*
X662456Y587251D01*
X662071Y587235D01*
G37*
G36*
X669227Y587235D02*
X668932Y587245D01*
X668651Y587276D01*
X668383Y587327D01*
X668127Y587398D01*
X667885Y587489D01*
X667656Y587601D01*
X667441Y587734D01*
X667238Y587886D01*
X667052Y588056D01*
X666885Y588240D01*
X666739Y588437D01*
X666613Y588648D01*
X666506Y588873D01*
X666420Y589112D01*
X666353Y589364D01*
X666306Y589630D01*
X667581Y589714D01*
X667655Y589361D01*
X667773Y589056D01*
X667934Y588800D01*
X668138Y588594D01*
X668378Y588434D01*
X668645Y588321D01*
X668940Y588252D01*
X669262Y588229D01*
X669494Y588241D01*
X669712Y588275D01*
X669914Y588332D01*
X670101Y588412D01*
X670273Y588514D01*
X670429Y588639D01*
X670571Y588787D01*
X670698Y588958D01*
X670809Y589152D01*
X670906Y589371D01*
X670988Y589614D01*
X671055Y589882D01*
X671107Y590175D01*
X671144Y590492D01*
X671167Y590833D01*
X671174Y591199D01*
X671167Y591579D01*
X671146Y591930D01*
X671111Y592253D01*
X671062Y592547D01*
X670999Y592813D01*
X670922Y593051D01*
X670831Y593260D01*
X670726Y593440D01*
X670605Y593596D01*
X670467Y593731D01*
X670312Y593846D01*
X670139Y593939D01*
X669949Y594012D01*
X669742Y594064D01*
X669518Y594095D01*
X669276Y594106D01*
X668929Y594082D01*
X668625Y594013D01*
X668362Y593897D01*
X668141Y593734D01*
X667961Y593533D01*
X667817Y593298D01*
X667712Y593032D01*
X667644Y592733D01*
X666348Y592831D01*
X666406Y593088D01*
X666482Y593331D01*
X666576Y593560D01*
X666687Y593775D01*
X666816Y593975D01*
X666964Y594161D01*
X667129Y594333D01*
X667311Y594491D01*
X667509Y594632D01*
X667720Y594754D01*
X667942Y594858D01*
X668177Y594943D01*
X668425Y595008D01*
X668684Y595056D01*
X668956Y595084D01*
X669241Y595093D01*
X669622Y595077D01*
X669980Y595030D01*
X670315Y594952D01*
X670628Y594842D01*
X670917Y594701D01*
X671184Y594528D01*
X671429Y594324D01*
X671650Y594088D01*
X671847Y593823D01*
X672018Y593529D01*
X672162Y593207D01*
X672281Y592856D01*
X672373Y592478D01*
X672438Y592070D01*
X672478Y591635D01*
X672491Y591171D01*
X672478Y590704D01*
X672438Y590266D01*
X672373Y589856D01*
X672281Y589475D01*
X672164Y589123D01*
X672020Y588800D01*
X671850Y588506D01*
X671654Y588240D01*
X671433Y588004D01*
X671188Y587800D01*
X670920Y587628D01*
X670629Y587486D01*
X670313Y587376D01*
X669975Y587298D01*
X669613Y587251D01*
X669227Y587235D01*
G37*
G36*
X488580Y587375D02*
X487088Y587375D01*
X484258Y594953D01*
X485596Y594953D01*
X487319Y590008D01*
X487592Y589182D01*
X487837Y588363D01*
X488321Y590022D01*
X489988Y594953D01*
X491332Y594953D01*
X488580Y587375D01*
G37*
G36*
X540588Y587263D02*
X540264Y587273D01*
X539944Y587305D01*
X539627Y587358D01*
X539314Y587431D01*
X539314Y588363D01*
X539734Y588289D01*
X540042Y588264D01*
X540246Y588278D01*
X540418Y588320D01*
X540556Y588389D01*
X540662Y588485D01*
X540740Y588616D01*
X540796Y588787D01*
X540829Y588999D01*
X540841Y589252D01*
X540841Y594036D01*
X539440Y594036D01*
X539440Y594953D01*
X540841Y594953D01*
X540841Y596648D01*
X541681Y596648D01*
X542052Y594953D01*
X542977Y594953D01*
X542977Y594036D01*
X542101Y594036D01*
X542101Y588979D01*
X542095Y588771D01*
X542078Y588577D01*
X542048Y588396D01*
X542007Y588228D01*
X541953Y588074D01*
X541888Y587933D01*
X541812Y587806D01*
X541723Y587692D01*
X541623Y587591D01*
X541510Y587504D01*
X541386Y587431D01*
X541250Y587370D01*
X541102Y587323D01*
X540943Y587290D01*
X540772Y587270D01*
X540588Y587263D01*
G37*
G36*
X553415Y587375D02*
X552154Y587375D01*
X552154Y597769D01*
X553415Y597769D01*
X553415Y587375D01*
G37*
G36*
X556602Y587375D02*
X555342Y587375D01*
X555342Y597769D01*
X556602Y597769D01*
X556602Y587375D01*
G37*
G36*
X589259Y587375D02*
X587998Y587375D01*
X587998Y597769D01*
X589259Y597769D01*
X589259Y587375D01*
G37*
G36*
X559797Y587375D02*
X558536Y587375D01*
X558536Y594953D01*
X559797Y594953D01*
X559797Y587375D01*
G37*
G36*
X586078Y587375D02*
X584817Y587375D01*
X584817Y594953D01*
X586078Y594953D01*
X586078Y587375D01*
G37*
G36*
X592453Y587375D02*
X591192Y587375D01*
X591192Y594953D01*
X592453Y594953D01*
X592453Y587375D01*
G37*
G36*
X638213Y590625D02*
X634711Y590625D01*
X634711Y591745D01*
X638213Y591745D01*
X638213Y590625D01*
G37*
G36*
X658119Y590625D02*
X654617Y590625D01*
X654617Y591745D01*
X658119Y591745D01*
X658119Y590625D01*
G37*
G36*
X537936Y585540D02*
X537075Y585540D01*
X536944Y585770D01*
X536831Y586006D01*
X536737Y586247D01*
X536662Y586493D01*
X536603Y586757D01*
X536562Y587051D01*
X536537Y587376D01*
X536529Y587732D01*
X536529Y588909D01*
X537894Y588909D01*
X537894Y587375D01*
X537278Y587375D01*
X537288Y587153D01*
X537319Y586929D01*
X537371Y586703D01*
X537443Y586475D01*
X537535Y586245D01*
X537648Y586012D01*
X537782Y585777D01*
X537936Y585540D01*
G37*
G36*
X611085Y598091D02*
X610286Y598091D01*
X608115Y599611D01*
X608115Y599814D01*
X609565Y599814D01*
X611085Y598231D01*
X611085Y598091D01*
G37*
G36*
X498040Y587375D02*
X496675Y587375D01*
X496675Y588909D01*
X498040Y588909D01*
X498040Y587375D01*
G37*
G36*
X559797Y596564D02*
X558536Y596564D01*
X558536Y597769D01*
X559797Y597769D01*
X559797Y596564D01*
G37*
G36*
X586078Y596564D02*
X584817Y596564D01*
X584817Y597769D01*
X586078Y597769D01*
X586078Y596564D01*
G37*
G36*
X592453Y596564D02*
X591192Y596564D01*
X591192Y597769D01*
X592453Y597769D01*
X592453Y596564D01*
G37*
G36*
X647595Y612775D02*
X642774Y612775D01*
X647808Y620413D01*
X651539Y626075D01*
X651104Y626159D01*
X650681Y626256D01*
X650270Y626366D01*
X649870Y626490D01*
X649483Y626628D01*
X649107Y626779D01*
X648744Y626944D01*
X648392Y627122D01*
X648052Y627313D01*
X648001Y627345D01*
X647724Y627518D01*
X647408Y627737D01*
X647104Y627969D01*
X646812Y628215D01*
X646531Y628474D01*
X646263Y628747D01*
X646006Y629033D01*
X645764Y629331D01*
X645536Y629637D01*
X645325Y629951D01*
X645129Y630274D01*
X644949Y630606D01*
X644785Y630946D01*
X644636Y631295D01*
X644503Y631652D01*
X644385Y632018D01*
X644283Y632392D01*
X644197Y632775D01*
X644127Y633167D01*
X644072Y633567D01*
X644033Y633975D01*
X644009Y634392D01*
X644001Y634818D01*
X644012Y635331D01*
X644046Y635830D01*
X644101Y636315D01*
X644179Y636785D01*
X644279Y637241D01*
X644400Y637683D01*
X644545Y638111D01*
X644711Y638524D01*
X644899Y638923D01*
X645110Y639307D01*
X645343Y639678D01*
X645598Y640034D01*
X645875Y640375D01*
X646174Y640703D01*
X646495Y641016D01*
X646839Y641315D01*
X647203Y641597D01*
X647585Y641862D01*
X647987Y642108D01*
X648406Y642336D01*
X648845Y642545D01*
X649301Y642737D01*
X649777Y642910D01*
X650271Y643065D01*
X650783Y643202D01*
X651315Y643320D01*
X651864Y643421D01*
X652433Y643503D01*
X653019Y643566D01*
X653625Y643612D01*
X654249Y643639D01*
X654891Y643648D01*
X669419Y643648D01*
X669419Y612775D01*
X665234Y612775D01*
X665234Y625593D01*
X655615Y625593D01*
X647595Y612775D01*
G37*
%LPC*%
G36*
X665234Y628902D02*
X665234Y640296D01*
X655308Y640296D01*
X654473Y640274D01*
X653688Y640208D01*
X652954Y640097D01*
X652270Y639943D01*
X651637Y639744D01*
X651054Y639501D01*
X650521Y639214D01*
X650038Y638883D01*
X649816Y638701D01*
X649609Y638509D01*
X649416Y638308D01*
X649238Y638096D01*
X649073Y637874D01*
X648923Y637642D01*
X648787Y637401D01*
X648666Y637149D01*
X648559Y636887D01*
X648466Y636615D01*
X648387Y636334D01*
X648323Y636042D01*
X648273Y635740D01*
X648237Y635428D01*
X648216Y635106D01*
X648208Y634774D01*
X648215Y634431D01*
X648237Y634098D01*
X648272Y633774D01*
X648321Y633460D01*
X648385Y633156D01*
X648463Y632861D01*
X648554Y632576D01*
X648660Y632301D01*
X648780Y632035D01*
X648915Y631779D01*
X649063Y631533D01*
X649225Y631296D01*
X649402Y631070D01*
X649592Y630852D01*
X649797Y630645D01*
X650016Y630447D01*
X650248Y630260D01*
X650492Y630085D01*
X650747Y629922D01*
X651014Y629771D01*
X651293Y629632D01*
X651583Y629505D01*
X651885Y629391D01*
X652199Y629288D01*
X652525Y629198D01*
X652862Y629119D01*
X653211Y629053D01*
X653572Y628999D01*
X653945Y628956D01*
X654329Y628926D01*
X654725Y628908D01*
X655133Y628902D01*
X665234Y628902D01*
G37*
%LPD*%
G36*
X593780Y603463D02*
X593169Y603472D01*
X592578Y603502D01*
X592006Y603550D01*
X591454Y603619D01*
X590920Y603707D01*
X590407Y603814D01*
X589912Y603941D01*
X589437Y604087D01*
X588982Y604253D01*
X588546Y604438D01*
X588129Y604643D01*
X587731Y604868D01*
X587353Y605112D01*
X586995Y605375D01*
X586655Y605658D01*
X586335Y605961D01*
X586035Y606283D01*
X585754Y606624D01*
X585492Y606985D01*
X585250Y607366D01*
X585027Y607766D01*
X584823Y608185D01*
X584639Y608624D01*
X584474Y609083D01*
X584329Y609561D01*
X584203Y610059D01*
X584096Y610576D01*
X584009Y611112D01*
X583941Y611669D01*
X583893Y612244D01*
X583864Y612840D01*
X583854Y613454D01*
X583854Y631575D01*
X583846Y633279D01*
X583821Y634665D01*
X583780Y635733D01*
X583723Y636483D01*
X587469Y636483D01*
X587513Y636315D01*
X587557Y635963D01*
X587601Y635428D01*
X587645Y634709D01*
X587710Y633328D01*
X587732Y632430D01*
X587776Y632430D01*
X588041Y632946D01*
X588333Y633431D01*
X588651Y633887D01*
X588995Y634311D01*
X589366Y634706D01*
X589763Y635069D01*
X590186Y635403D01*
X590636Y635706D01*
X591109Y635975D01*
X591603Y636209D01*
X592118Y636407D01*
X592654Y636568D01*
X593211Y636694D01*
X593789Y636784D01*
X594387Y636838D01*
X595007Y636856D01*
X595560Y636844D01*
X596094Y636809D01*
X596611Y636751D01*
X597110Y636669D01*
X597591Y636564D01*
X598054Y636435D01*
X598499Y636283D01*
X598926Y636108D01*
X599336Y635910D01*
X599727Y635688D01*
X600101Y635442D01*
X600457Y635173D01*
X600795Y634881D01*
X601115Y634566D01*
X601417Y634227D01*
X601701Y633865D01*
X601968Y633478D01*
X602217Y633066D01*
X602449Y632627D01*
X602664Y632163D01*
X602862Y631674D01*
X603043Y631158D01*
X603206Y630617D01*
X603353Y630050D01*
X603482Y629457D01*
X603593Y628838D01*
X603688Y628194D01*
X603765Y627524D01*
X603826Y626828D01*
X603869Y626106D01*
X603895Y625359D01*
X603903Y624585D01*
X603895Y623823D01*
X603871Y623087D01*
X603831Y622376D01*
X603775Y621692D01*
X603703Y621033D01*
X603615Y620400D01*
X603511Y619793D01*
X603391Y619212D01*
X603255Y618656D01*
X603103Y618127D01*
X602935Y617623D01*
X602751Y617145D01*
X602551Y616693D01*
X602335Y616267D01*
X602102Y615867D01*
X601854Y615492D01*
X601589Y615142D01*
X601306Y614814D01*
X601005Y614509D01*
X600686Y614227D01*
X600348Y613967D01*
X599993Y613730D01*
X599619Y613515D01*
X599228Y613323D01*
X598818Y613153D01*
X598390Y613006D01*
X597945Y612882D01*
X597481Y612780D01*
X596999Y612701D01*
X596499Y612645D01*
X595981Y612611D01*
X595445Y612600D01*
X594804Y612618D01*
X594183Y612672D01*
X593582Y612762D01*
X593002Y612887D01*
X592443Y613049D01*
X591904Y613247D01*
X591385Y613480D01*
X590888Y613750D01*
X590856Y613770D01*
X590413Y614055D01*
X589965Y614396D01*
X589542Y614772D01*
X589146Y615183D01*
X588775Y615629D01*
X588431Y616110D01*
X588112Y616627D01*
X587820Y617179D01*
X587776Y617179D01*
X587776Y613367D01*
X587799Y612531D01*
X587868Y611749D01*
X587920Y611378D01*
X587983Y611021D01*
X588058Y610677D01*
X588145Y610347D01*
X588242Y610030D01*
X588352Y609727D01*
X588473Y609437D01*
X588605Y609161D01*
X588749Y608898D01*
X588904Y608648D01*
X589071Y608412D01*
X589250Y608190D01*
X589440Y607981D01*
X589641Y607786D01*
X589854Y607604D01*
X590079Y607435D01*
X590315Y607280D01*
X590562Y607139D01*
X590821Y607010D01*
X591092Y606896D01*
X591374Y606795D01*
X591667Y606707D01*
X591972Y606633D01*
X592289Y606572D01*
X592617Y606525D01*
X592920Y606495D01*
X592957Y606491D01*
X593308Y606471D01*
X593670Y606464D01*
X594205Y606478D01*
X594713Y606520D01*
X595195Y606589D01*
X595651Y606686D01*
X596080Y606811D01*
X596483Y606964D01*
X596859Y607144D01*
X597209Y607352D01*
X597531Y607586D01*
X597823Y607843D01*
X598086Y608124D01*
X598318Y608428D01*
X598521Y608756D01*
X598694Y609108D01*
X598838Y609484D01*
X598951Y609883D01*
X602917Y609313D01*
X602829Y608967D01*
X602727Y608632D01*
X602613Y608306D01*
X602486Y607991D01*
X602346Y607685D01*
X602193Y607390D01*
X602027Y607104D01*
X601849Y606829D01*
X601453Y606308D01*
X601007Y605827D01*
X600509Y605386D01*
X599959Y604985D01*
X599665Y604801D01*
X599359Y604629D01*
X599041Y604468D01*
X598710Y604319D01*
X598367Y604182D01*
X598012Y604057D01*
X597644Y603944D01*
X597264Y603843D01*
X596872Y603754D01*
X596467Y603677D01*
X596050Y603611D01*
X595621Y603558D01*
X595179Y603516D01*
X594725Y603486D01*
X594259Y603469D01*
X593780Y603463D01*
G37*
%LPC*%
G36*
X594109Y615514D02*
X594493Y615522D01*
X594863Y615547D01*
X595219Y615589D01*
X595560Y615647D01*
X595887Y615722D01*
X596200Y615813D01*
X596498Y615921D01*
X596782Y616045D01*
X597051Y616186D01*
X597306Y616344D01*
X597547Y616519D01*
X597773Y616710D01*
X597985Y616917D01*
X598183Y617141D01*
X598366Y617382D01*
X598535Y617639D01*
X598691Y617916D01*
X598838Y618214D01*
X598974Y618533D01*
X599100Y618873D01*
X599217Y619235D01*
X599323Y619619D01*
X599419Y620023D01*
X599504Y620450D01*
X599646Y621366D01*
X599747Y622368D01*
X599807Y623456D01*
X599828Y624629D01*
X599806Y625814D01*
X599741Y626913D01*
X599693Y627431D01*
X599633Y627928D01*
X599563Y628404D01*
X599482Y628858D01*
X599391Y629291D01*
X599288Y629703D01*
X599175Y630094D01*
X599051Y630463D01*
X598916Y630811D01*
X598771Y631138D01*
X598614Y631444D01*
X598447Y631729D01*
X598268Y631994D01*
X598076Y632242D01*
X597872Y632473D01*
X597654Y632687D01*
X597424Y632884D01*
X597181Y633064D01*
X596925Y633226D01*
X596656Y633372D01*
X596374Y633500D01*
X596080Y633612D01*
X595772Y633706D01*
X595452Y633783D01*
X595119Y633843D01*
X594773Y633885D01*
X594414Y633911D01*
X594043Y633920D01*
X593594Y633902D01*
X593158Y633851D01*
X592733Y633764D01*
X592320Y633643D01*
X591919Y633487D01*
X591531Y633297D01*
X591154Y633073D01*
X590789Y632813D01*
X590440Y632521D01*
X590112Y632198D01*
X589804Y631845D01*
X589515Y631460D01*
X589248Y631045D01*
X589000Y630599D01*
X588772Y630122D01*
X588565Y629614D01*
X588380Y629078D01*
X588220Y628518D01*
X588084Y627932D01*
X587973Y627322D01*
X587887Y626686D01*
X587825Y626025D01*
X587789Y625340D01*
X587776Y624629D01*
X587789Y623935D01*
X587825Y623265D01*
X587887Y622619D01*
X587973Y621997D01*
X588084Y621400D01*
X588220Y620827D01*
X588380Y620278D01*
X588565Y619754D01*
X588772Y619257D01*
X589000Y618789D01*
X589249Y618351D01*
X589518Y617943D01*
X589763Y617623D01*
X589808Y617565D01*
X590118Y617217D01*
X590449Y616898D01*
X590800Y616610D01*
X591168Y616353D01*
X591549Y616130D01*
X591943Y615942D01*
X592350Y615788D01*
X592770Y615668D01*
X593203Y615582D01*
X593650Y615531D01*
X594109Y615514D01*
G37*
%LPD*%
G36*
X612648Y612775D02*
X608682Y612775D01*
X608682Y628573D01*
X608689Y629122D01*
X608710Y629651D01*
X608745Y630161D01*
X608795Y630650D01*
X608858Y631120D01*
X608936Y631570D01*
X609028Y632000D01*
X609134Y632411D01*
X609254Y632801D01*
X609388Y633172D01*
X609536Y633523D01*
X609699Y633855D01*
X609875Y634166D01*
X610066Y634458D01*
X610271Y634730D01*
X610490Y634982D01*
X610724Y635217D01*
X610974Y635437D01*
X611241Y635641D01*
X611524Y635831D01*
X611824Y636005D01*
X612140Y636164D01*
X612472Y636308D01*
X612820Y636437D01*
X613185Y636550D01*
X613567Y636649D01*
X613964Y636732D01*
X614378Y636800D01*
X614809Y636853D01*
X615255Y636891D01*
X615718Y636914D01*
X616198Y636922D01*
X616847Y636906D01*
X617469Y636858D01*
X618064Y636778D01*
X618633Y636667D01*
X619174Y636524D01*
X619688Y636348D01*
X620175Y636142D01*
X620635Y635903D01*
X621075Y635626D01*
X621501Y635304D01*
X621914Y634937D01*
X622314Y634525D01*
X622700Y634068D01*
X623073Y633567D01*
X623433Y633021D01*
X623779Y632430D01*
X623845Y632430D01*
X623886Y633884D01*
X623921Y634785D01*
X623976Y635892D01*
X623998Y636281D01*
X624020Y636483D01*
X627745Y636483D01*
X627714Y636203D01*
X627688Y635822D01*
X627646Y634758D01*
X627622Y633291D01*
X627614Y631422D01*
X627614Y612775D01*
X623669Y612775D01*
X623669Y626514D01*
X623663Y626940D01*
X623644Y627355D01*
X623612Y627759D01*
X623567Y628150D01*
X623509Y628530D01*
X623438Y628898D01*
X623355Y629253D01*
X623259Y629598D01*
X623150Y629930D01*
X623028Y630251D01*
X622893Y630559D01*
X622745Y630856D01*
X622585Y631141D01*
X622411Y631415D01*
X622225Y631676D01*
X622026Y631926D01*
X621816Y632162D01*
X621596Y632383D01*
X621367Y632588D01*
X621129Y632779D01*
X620881Y632954D01*
X620624Y633114D01*
X620357Y633259D01*
X620081Y633388D01*
X619796Y633503D01*
X619501Y633602D01*
X619197Y633685D01*
X618883Y633754D01*
X618560Y633807D01*
X618228Y633845D01*
X617886Y633868D01*
X617534Y633876D01*
X617061Y633867D01*
X616618Y633840D01*
X616204Y633796D01*
X615820Y633733D01*
X615465Y633653D01*
X615139Y633555D01*
X614843Y633440D01*
X614576Y633306D01*
X614333Y633152D01*
X614106Y632976D01*
X613897Y632777D01*
X613705Y632556D01*
X613530Y632312D01*
X613372Y632045D01*
X613232Y631756D01*
X613108Y631444D01*
X613000Y631104D01*
X612907Y630732D01*
X612828Y630326D01*
X612763Y629888D01*
X612713Y629417D01*
X612677Y628913D01*
X612655Y628376D01*
X612648Y627806D01*
X612648Y612775D01*
G37*
G36*
X569622Y612337D02*
X569060Y612344D01*
X568514Y612365D01*
X567984Y612401D01*
X567470Y612450D01*
X566971Y612514D01*
X566489Y612593D01*
X566022Y612685D01*
X565571Y612791D01*
X565136Y612912D01*
X564717Y613047D01*
X564313Y613196D01*
X563926Y613360D01*
X563554Y613537D01*
X563198Y613729D01*
X562858Y613935D01*
X562534Y614155D01*
X562227Y614389D01*
X561940Y614634D01*
X561673Y614891D01*
X561426Y615161D01*
X561199Y615442D01*
X560991Y615735D01*
X560803Y616040D01*
X560635Y616358D01*
X560487Y616687D01*
X560359Y617028D01*
X560250Y617381D01*
X560161Y617746D01*
X560092Y618123D01*
X560042Y618512D01*
X560013Y618914D01*
X560003Y619327D01*
X560010Y619662D01*
X560030Y619987D01*
X560064Y620304D01*
X560112Y620611D01*
X560174Y620909D01*
X560249Y621198D01*
X560338Y621478D01*
X560441Y621748D01*
X560683Y622263D01*
X560970Y622748D01*
X561302Y623200D01*
X561679Y623621D01*
X562115Y624018D01*
X562624Y624396D01*
X563205Y624757D01*
X563859Y625100D01*
X564232Y625269D01*
X564659Y625442D01*
X565678Y625799D01*
X566916Y626171D01*
X568373Y626557D01*
X569885Y626941D01*
X571112Y627280D01*
X572054Y627576D01*
X572418Y627708D01*
X572711Y627828D01*
X573195Y628071D01*
X573615Y628338D01*
X573973Y628629D01*
X574267Y628946D01*
X574390Y629116D01*
X574497Y629296D01*
X574588Y629488D01*
X574662Y629691D01*
X574719Y629904D01*
X574760Y630129D01*
X574785Y630365D01*
X574793Y630611D01*
X574773Y631009D01*
X574714Y631381D01*
X574614Y631726D01*
X574475Y632046D01*
X574297Y632340D01*
X574078Y632608D01*
X573820Y632849D01*
X573522Y633065D01*
X573183Y633255D01*
X572799Y633420D01*
X572372Y633559D01*
X571901Y633673D01*
X571386Y633762D01*
X570827Y633825D01*
X570225Y633863D01*
X569578Y633876D01*
X568991Y633863D01*
X568434Y633823D01*
X567908Y633757D01*
X567412Y633665D01*
X566946Y633546D01*
X566511Y633401D01*
X566107Y633230D01*
X565733Y633032D01*
X565391Y632810D01*
X565084Y632565D01*
X564812Y632296D01*
X564574Y632005D01*
X564371Y631691D01*
X564202Y631354D01*
X564068Y630994D01*
X563969Y630611D01*
X560419Y631049D01*
X560502Y631424D01*
X560599Y631785D01*
X560709Y632133D01*
X560832Y632468D01*
X560968Y632790D01*
X561118Y633099D01*
X561281Y633396D01*
X561457Y633679D01*
X561647Y633949D01*
X561849Y634206D01*
X562065Y634450D01*
X562295Y634681D01*
X562537Y634899D01*
X562793Y635104D01*
X563062Y635296D01*
X563344Y635475D01*
X563947Y635799D01*
X564601Y636079D01*
X565304Y636317D01*
X566059Y636511D01*
X566863Y636662D01*
X567718Y636770D01*
X568623Y636834D01*
X569578Y636856D01*
X570123Y636849D01*
X570652Y636829D01*
X571164Y636796D01*
X571659Y636750D01*
X572138Y636690D01*
X572600Y636617D01*
X573046Y636531D01*
X573476Y636431D01*
X573889Y636319D01*
X574285Y636193D01*
X574665Y636053D01*
X575028Y635901D01*
X575375Y635735D01*
X575705Y635556D01*
X576019Y635363D01*
X576316Y635158D01*
X576596Y634939D01*
X576858Y634709D01*
X577102Y634467D01*
X577327Y634212D01*
X577535Y633946D01*
X577725Y633667D01*
X577896Y633376D01*
X578050Y633073D01*
X578185Y632759D01*
X578303Y632432D01*
X578402Y632093D01*
X578483Y631742D01*
X578546Y631378D01*
X578591Y631003D01*
X578619Y630616D01*
X578628Y630217D01*
X578615Y629787D01*
X578577Y629374D01*
X578514Y628979D01*
X578425Y628601D01*
X578311Y628239D01*
X578172Y627895D01*
X578007Y627568D01*
X577817Y627259D01*
X577604Y626963D01*
X577372Y626679D01*
X577121Y626406D01*
X576850Y626144D01*
X576560Y625893D01*
X576250Y625654D01*
X575920Y625426D01*
X575571Y625210D01*
X575182Y624998D01*
X574731Y624786D01*
X574219Y624573D01*
X573645Y624358D01*
X573011Y624143D01*
X572315Y623926D01*
X571558Y623708D01*
X570739Y623490D01*
X567913Y622745D01*
X567394Y622598D01*
X566913Y622441D01*
X566469Y622274D01*
X566061Y622098D01*
X565691Y621913D01*
X565357Y621718D01*
X565061Y621513D01*
X564801Y621299D01*
X564575Y621071D01*
X564380Y620828D01*
X564214Y620567D01*
X564078Y620291D01*
X563973Y619998D01*
X563898Y619688D01*
X563852Y619362D01*
X563837Y619020D01*
X563859Y618574D01*
X563924Y618157D01*
X564033Y617769D01*
X564185Y617409D01*
X564381Y617079D01*
X564620Y616777D01*
X564903Y616503D01*
X565229Y616259D01*
X565602Y616043D01*
X566025Y615856D01*
X566499Y615698D01*
X567023Y615569D01*
X567597Y615468D01*
X568222Y615396D01*
X568897Y615353D01*
X569622Y615339D01*
X570304Y615353D01*
X570948Y615394D01*
X571553Y615463D01*
X572120Y615561D01*
X572648Y615685D01*
X573139Y615838D01*
X573591Y616018D01*
X574004Y616226D01*
X574382Y616464D01*
X574726Y616733D01*
X575037Y617035D01*
X575313Y617368D01*
X575557Y617733D01*
X575767Y618130D01*
X575943Y618559D01*
X576086Y619020D01*
X579570Y618341D01*
X579473Y617961D01*
X579363Y617594D01*
X579240Y617239D01*
X579104Y616898D01*
X578954Y616569D01*
X578792Y616253D01*
X578616Y615950D01*
X578428Y615659D01*
X578226Y615381D01*
X578011Y615116D01*
X577783Y614864D01*
X577542Y614624D01*
X577288Y614398D01*
X577021Y614184D01*
X576741Y613982D01*
X576447Y613794D01*
X576140Y613617D01*
X575816Y613452D01*
X575476Y613299D01*
X575121Y613156D01*
X574750Y613025D01*
X574363Y612906D01*
X573960Y612798D01*
X573541Y612701D01*
X573107Y612616D01*
X572657Y612542D01*
X572190Y612479D01*
X571708Y612428D01*
X570697Y612360D01*
X569622Y612337D01*
G37*
G36*
X637692Y612775D02*
X633748Y612775D01*
X633748Y636483D01*
X637692Y636483D01*
X637692Y612775D01*
G37*
G36*
X637692Y641523D02*
X633748Y641523D01*
X633748Y645292D01*
X637692Y645292D01*
X637692Y641523D01*
G37*
D10*
X365125Y1050925D02*
X365125Y987425D01*
D11*
X215900Y987425D02*
X215900Y1050925D01*
X215900Y987425D02*
X355600Y987425D01*
X355600Y1050925D01*
X215900Y1050925D01*
X638175Y962025D02*
X676275Y962025D01*
X676275Y796925D01*
X638175Y796925D02*
X638175Y962025D01*
X638175Y796925D02*
X676275Y796925D01*
X492125Y733425D02*
X488950Y736600D01*
X492125Y727075D02*
X488950Y723900D01*
X492125Y720725D01*
X492125Y714375D02*
X488950Y711200D01*
X492125Y708025D01*
X492125Y701675D02*
X488950Y698500D01*
X492125Y695325D01*
X492125Y688975D02*
X488950Y685800D01*
X488950Y736600D02*
X469900Y736600D01*
X466725Y733425D01*
X466725Y727075D01*
X469900Y723900D01*
X466725Y720725D01*
X466725Y714375D01*
X469900Y711200D01*
X466725Y708025D01*
X466725Y701675D01*
X469900Y698500D01*
X466725Y695325D01*
X466725Y688975D01*
X469900Y685800D01*
X469900Y723900D02*
X488950Y723900D01*
X488950Y711200D02*
X469900Y711200D01*
X469900Y698500D02*
X488950Y698500D01*
X488950Y685800D02*
X469900Y685800D01*
X492125Y688975D02*
X492125Y695325D01*
X492125Y701675D02*
X492125Y708025D01*
X492125Y714375D02*
X492125Y720725D01*
X492125Y727075D02*
X492125Y733425D01*
X488950Y685800D02*
X492125Y682625D01*
X492125Y676275D02*
X488950Y673100D01*
X469900Y685800D02*
X466725Y682625D01*
X466725Y676275D01*
X469900Y673100D01*
X488950Y673100D01*
X492125Y676275D02*
X492125Y682625D01*
D12*
X495300Y727075D02*
X495300Y733425D01*
X644525Y822325D02*
X650875Y828675D01*
X644525Y822325D02*
X644525Y809625D01*
X650875Y803275D01*
X663575Y803275D02*
X669925Y809625D01*
X669925Y822325D01*
X663575Y828675D01*
X644525Y860425D02*
X644525Y873125D01*
X644525Y860425D02*
X650875Y854075D01*
X663575Y854075D02*
X669925Y860425D01*
X650875Y854075D02*
X644525Y847725D01*
X644525Y835025D01*
X650875Y828675D01*
X663575Y828675D02*
X669925Y835025D01*
X669925Y847725D01*
X663575Y854075D01*
X644525Y898525D02*
X650875Y904875D01*
X644525Y898525D02*
X644525Y885825D01*
X650875Y879475D01*
X663575Y879475D02*
X669925Y885825D01*
X669925Y898525D01*
X663575Y904875D01*
X650875Y879475D02*
X644525Y873125D01*
X663575Y879475D02*
X669925Y873125D01*
X669925Y860425D01*
X644525Y936625D02*
X644525Y949325D01*
X644525Y936625D02*
X650875Y930275D01*
X663575Y930275D02*
X669925Y936625D01*
X650875Y930275D02*
X644525Y923925D01*
X644525Y911225D01*
X650875Y904875D01*
X663575Y904875D02*
X669925Y911225D01*
X669925Y923925D01*
X663575Y930275D01*
X663575Y955675D02*
X650875Y955675D01*
X644525Y949325D01*
X663575Y955675D02*
X669925Y949325D01*
X669925Y936625D01*
X663575Y803275D02*
X650875Y803275D01*
D11*
X228600Y1044575D02*
X222250Y1038225D01*
X241300Y1044575D02*
X247650Y1038225D01*
X254000Y1044575D01*
X266700Y1044575D02*
X273050Y1038225D01*
X279400Y1044575D01*
X292100Y1044575D02*
X298450Y1038225D01*
X304800Y1044575D01*
X317500Y1044575D02*
X323850Y1038225D01*
X222250Y1038225D02*
X222250Y1000125D01*
X228600Y993775D01*
X241300Y993775D01*
X247650Y1000125D01*
X254000Y993775D01*
X266700Y993775D01*
X273050Y1000125D01*
X279400Y993775D01*
X292100Y993775D01*
X298450Y1000125D01*
X304800Y993775D01*
X317500Y993775D01*
X323850Y1000125D01*
X247650Y1000125D02*
X247650Y1038225D01*
X273050Y1038225D02*
X273050Y1000125D01*
X298450Y1000125D02*
X298450Y1038225D01*
X323850Y1038225D02*
X323850Y1000125D01*
X317500Y1044575D02*
X304800Y1044575D01*
X292100Y1044575D02*
X279400Y1044575D01*
X266700Y1044575D02*
X254000Y1044575D01*
X241300Y1044575D02*
X228600Y1044575D01*
X323850Y1038225D02*
X330200Y1044575D01*
X342900Y1044575D02*
X349250Y1038225D01*
X323850Y1000125D02*
X330200Y993775D01*
X342900Y993775D01*
X349250Y1000125D01*
X349250Y1038225D01*
X342900Y1044575D02*
X330200Y1044575D01*
D12*
X241300Y1050925D02*
X228600Y1050925D01*
D13*
X285750Y1031875D03*
M02*
