G04 EAGLE Gerber RS-274X export*
G75*
%MOMM*%
%FSLAX34Y34*%
%LPD*%
%INSoldermask Top*%
%IPPOS*%
%AMOC8*
5,1,8,0,0,1.08239X$1,22.5*%
G01*
G04 Define Apertures*
%ADD10R,5.486400X2.082800*%
%ADD11R,1.152400X1.252400*%
%ADD12R,1.352400X3.352400*%
%ADD13R,1.252400X1.152400*%
%ADD14P,1.31965X8X292.5*%
%ADD15R,0.452400X1.352400*%
%ADD16R,1.352400X0.452400*%
%ADD17R,1.652400X1.452400*%
%ADD18R,1.452400X1.652400*%
%ADD19C,2.032000*%
%ADD20R,0.812800X2.184400*%
%ADD21R,0.852400X1.152400*%
%ADD22R,3.152400X1.552400*%
%ADD23R,6.352400X5.552400*%
%ADD24R,1.752400X1.152400*%
%ADD25R,1.552400X1.552400*%
%ADD26P,2.19942X8X22.5*%
%ADD27R,2.057400X0.533400*%
%ADD28R,1.002400X0.852400*%
%ADD29R,1.652400X2.152400*%
%ADD30R,2.352400X0.752400*%
%ADD31R,2.032000X2.032000*%
%ADD32P,3.64592X8X112.5*%
%ADD33P,2.08945X8X202.5*%
%ADD34C,2.352400*%
%ADD35P,2.91423X8X112.5*%
%ADD36R,1.955400X1.752400*%
%ADD37R,1.552400X3.152400*%
%ADD38R,2.752400X1.552400*%
%ADD39C,1.152400*%
%ADD40C,1.258800*%
%ADD41R,1.152400X0.502400*%
%ADD42R,0.752400X2.352400*%
%ADD43R,1.552400X1.152400*%
%ADD44R,1.152400X1.552400*%
%ADD45R,0.852400X1.002400*%
%ADD46R,0.787400X1.422400*%
D10*
X323215Y898525D03*
X419735Y898525D03*
D11*
X301625Y935600D03*
X301625Y918600D03*
D12*
X454975Y1024600D03*
X454975Y956600D03*
X414975Y956600D03*
X414975Y1024600D03*
D11*
X458225Y923925D03*
X475225Y923925D03*
X438150Y935600D03*
X438150Y918600D03*
D12*
X481650Y956600D03*
X481650Y1024600D03*
X521650Y1024600D03*
X521650Y956600D03*
D11*
X502675Y923925D03*
X519675Y923925D03*
X422275Y726050D03*
X422275Y709050D03*
X269876Y806205D03*
X269876Y823205D03*
X288925Y722875D03*
X288925Y705875D03*
D13*
X322825Y850900D03*
X305825Y850900D03*
X322825Y863600D03*
X305825Y863600D03*
D11*
X400050Y608575D03*
X400050Y591575D03*
X412750Y608575D03*
X412750Y591575D03*
D14*
X485775Y730250D03*
X473075Y730250D03*
X485775Y717550D03*
X473075Y717550D03*
X485775Y704850D03*
X473075Y704850D03*
X485775Y692150D03*
X473075Y692150D03*
X485775Y679450D03*
X473075Y679450D03*
D13*
X410600Y825501D03*
X427600Y825501D03*
D15*
X386750Y834064D03*
X381750Y834064D03*
X376750Y834064D03*
X371750Y834064D03*
X366750Y834064D03*
X361750Y834064D03*
X356750Y834064D03*
X351750Y834064D03*
X346750Y834064D03*
X341750Y834064D03*
X336750Y834064D03*
X331750Y834064D03*
X326750Y834064D03*
X321750Y834064D03*
X316750Y834064D03*
X311750Y834064D03*
D16*
X290140Y812200D03*
X290140Y807200D03*
X290140Y802200D03*
X290140Y797200D03*
X290140Y792200D03*
X290140Y787200D03*
X290140Y782200D03*
X290140Y777200D03*
X290140Y772200D03*
X290140Y767200D03*
X290140Y762200D03*
X290140Y757200D03*
X290140Y752200D03*
X290140Y747200D03*
X290140Y742200D03*
X290140Y737200D03*
D15*
X311750Y715844D03*
X316750Y715844D03*
X321750Y715844D03*
X326750Y715844D03*
X331750Y715844D03*
X336750Y715844D03*
X341750Y715844D03*
X346750Y715844D03*
X351750Y715844D03*
X356750Y715844D03*
X361750Y715844D03*
X366750Y715844D03*
X371750Y715844D03*
X376750Y715844D03*
X381750Y715844D03*
X386750Y715844D03*
D16*
X408614Y737200D03*
X408614Y742200D03*
X408614Y747200D03*
X408614Y752200D03*
X408614Y757200D03*
X408614Y762200D03*
X408614Y767200D03*
X408614Y772200D03*
X408614Y777200D03*
X408614Y782200D03*
X408614Y787200D03*
X408614Y792200D03*
X408614Y797200D03*
X408614Y802200D03*
X408614Y807200D03*
X408614Y812200D03*
D17*
X269875Y736625D03*
X269875Y755625D03*
D18*
X377850Y692150D03*
X396850Y692150D03*
D13*
X399025Y654050D03*
X382025Y654050D03*
D19*
X657225Y942975D03*
X657225Y917575D03*
X657225Y892175D03*
X657225Y866775D03*
X657225Y841375D03*
X657225Y815975D03*
D20*
X180975Y537591D03*
X180975Y599059D03*
X193675Y537591D03*
X206375Y537591D03*
X193675Y599059D03*
X206375Y599059D03*
X219075Y537591D03*
X219075Y599059D03*
X231775Y537591D03*
X244475Y537591D03*
X231775Y599059D03*
X244475Y599059D03*
X257175Y537591D03*
X257175Y599059D03*
D13*
X95250Y656200D03*
X95250Y639200D03*
X79375Y639200D03*
X79375Y656200D03*
X111125Y656200D03*
X111125Y639200D03*
D11*
X63500Y656200D03*
X63500Y639200D03*
X242325Y654050D03*
X259325Y654050D03*
X259325Y638175D03*
X242325Y638175D03*
D13*
X228600Y656200D03*
X228600Y639200D03*
X242325Y622300D03*
X259325Y622300D03*
D11*
X195825Y654050D03*
X178825Y654050D03*
X178825Y638175D03*
X195825Y638175D03*
D13*
X209550Y656200D03*
X209550Y639200D03*
X195825Y622300D03*
X178825Y622300D03*
D11*
X195825Y482600D03*
X178825Y482600D03*
X178825Y498475D03*
X195825Y498475D03*
D13*
X195825Y514350D03*
X178825Y514350D03*
D21*
X120650Y722425D03*
X111150Y744425D03*
X130150Y744425D03*
D11*
X129150Y774700D03*
X112150Y774700D03*
D13*
X112150Y758825D03*
X129150Y758825D03*
D22*
X33150Y847725D03*
X81150Y847725D03*
D13*
X99450Y873125D03*
X116450Y873125D03*
D23*
X54375Y930275D03*
D24*
X127375Y907475D03*
X127375Y953075D03*
D25*
X190500Y993825D03*
X190500Y1031825D03*
X390525Y1031825D03*
X390525Y993825D03*
D26*
X234950Y1031875D03*
X234950Y1006475D03*
X260350Y1031875D03*
X260350Y1006475D03*
X285750Y1031875D03*
X285750Y1006475D03*
X311150Y1031875D03*
X311150Y1006475D03*
X336550Y1031875D03*
X336550Y1006475D03*
D13*
X209550Y470925D03*
X209550Y487925D03*
X210575Y514350D03*
X227575Y514350D03*
D27*
X432378Y655100D03*
X432378Y648600D03*
X432378Y642100D03*
X432378Y635600D03*
X432378Y629100D03*
X432378Y622600D03*
X432378Y616100D03*
X432378Y609600D03*
X432378Y603100D03*
X432378Y596600D03*
X432378Y590100D03*
X432378Y583600D03*
X432378Y577100D03*
X432378Y570600D03*
X507422Y570600D03*
X507422Y577100D03*
X507422Y583600D03*
X507422Y590100D03*
X507422Y596600D03*
X507422Y603100D03*
X507422Y609600D03*
X507422Y616100D03*
X507422Y622600D03*
X507422Y629100D03*
X507422Y635600D03*
X507422Y642100D03*
X507422Y648600D03*
X507422Y655100D03*
D28*
X264050Y876300D03*
X280050Y876300D03*
D11*
X530225Y541900D03*
X530225Y524900D03*
D29*
X504825Y520400D03*
X504825Y546400D03*
D13*
X527050Y608575D03*
X527050Y591575D03*
X400050Y37075D03*
X400050Y20075D03*
D11*
X369325Y120650D03*
X386325Y120650D03*
D13*
X386325Y136525D03*
X369325Y136525D03*
D29*
X536575Y456900D03*
X536575Y482900D03*
X460375Y520400D03*
X460375Y546400D03*
D13*
X511175Y475225D03*
X511175Y458225D03*
X495300Y439175D03*
X495300Y456175D03*
D30*
X389925Y457200D03*
X441925Y457200D03*
X389925Y469900D03*
X389925Y444500D03*
X389925Y431800D03*
X441925Y469900D03*
X441925Y444500D03*
X441925Y431800D03*
D13*
X479425Y456175D03*
X479425Y439175D03*
D11*
X463550Y439175D03*
X463550Y456175D03*
D13*
X552450Y20075D03*
X552450Y37075D03*
D29*
X415925Y520400D03*
X415925Y546400D03*
D11*
X430775Y488950D03*
X413775Y488950D03*
D13*
X336550Y451875D03*
X336550Y468875D03*
X352425Y468875D03*
X352425Y451875D03*
D11*
X368300Y451875D03*
X368300Y468875D03*
D13*
X422275Y20075D03*
X422275Y37075D03*
X464575Y469900D03*
X481575Y469900D03*
X350275Y431800D03*
X367275Y431800D03*
X436563Y677300D03*
X436563Y694300D03*
X450850Y677300D03*
X450850Y694300D03*
X515375Y669925D03*
X532375Y669925D03*
D31*
X110725Y301300D03*
X85725Y301300D03*
X60725Y301300D03*
D32*
X129725Y368300D03*
X41725Y368300D03*
D33*
X346075Y95250D03*
X346075Y19050D03*
X346075Y120650D03*
D34*
X346075Y63500D03*
D33*
X606425Y95250D03*
X606425Y19050D03*
X606425Y120650D03*
D34*
X606425Y63500D03*
D33*
X476250Y95250D03*
X476250Y19050D03*
X476250Y120650D03*
D34*
X476250Y63500D03*
D33*
X85725Y241300D03*
X85725Y165100D03*
X85725Y266700D03*
D34*
X85725Y209550D03*
D33*
X215900Y241300D03*
X215900Y165100D03*
X215900Y266700D03*
D34*
X215900Y209550D03*
D33*
X346075Y241300D03*
X346075Y165100D03*
X346075Y266700D03*
D34*
X346075Y209550D03*
D33*
X476250Y241300D03*
X476250Y165100D03*
X476250Y266700D03*
D34*
X476250Y209550D03*
D31*
X240900Y301300D03*
X215900Y301300D03*
X190900Y301300D03*
D32*
X259900Y368300D03*
X171900Y368300D03*
D31*
X132950Y498325D03*
X107950Y498325D03*
X82950Y498325D03*
D35*
X154950Y568325D03*
X60950Y568325D03*
D19*
X44069Y980313D03*
X44069Y1045337D03*
X89281Y980313D03*
X89281Y1045337D03*
D36*
X168275Y1027045D03*
X168275Y998605D03*
D37*
X174625Y918975D03*
X174625Y966975D03*
X247650Y918975D03*
X247650Y966975D03*
D38*
X363400Y955675D03*
X322400Y955675D03*
D39*
X15875Y1050925D03*
X676275Y15875D03*
X676275Y1050925D03*
X15875Y15875D03*
D31*
X371075Y301300D03*
X346075Y301300D03*
X321075Y301300D03*
D32*
X390075Y368300D03*
X302075Y368300D03*
D31*
X501250Y301300D03*
X476250Y301300D03*
X451250Y301300D03*
D32*
X520250Y368300D03*
X432250Y368300D03*
D31*
X631425Y301300D03*
X606425Y301300D03*
X581425Y301300D03*
D32*
X650425Y368300D03*
X562425Y368300D03*
D31*
X205975Y770105D03*
X180975Y770105D03*
X155975Y770105D03*
D35*
X227975Y840105D03*
X133975Y840105D03*
D31*
X371075Y498325D03*
X346075Y498325D03*
X321075Y498325D03*
D35*
X393075Y568325D03*
X299075Y568325D03*
D31*
X536175Y770105D03*
X511175Y770105D03*
X486175Y770105D03*
D35*
X558175Y840105D03*
X464175Y840105D03*
D31*
X609200Y498325D03*
X584200Y498325D03*
X559200Y498325D03*
D35*
X631200Y568325D03*
X537200Y568325D03*
D13*
X79375Y756675D03*
X79375Y773675D03*
X63500Y773675D03*
X63500Y756675D03*
X95250Y756675D03*
X95250Y773675D03*
D11*
X47625Y756675D03*
X47625Y773675D03*
D33*
X215900Y95250D03*
X215900Y19050D03*
X215900Y120650D03*
D34*
X215900Y63500D03*
D11*
X242325Y482600D03*
X259325Y482600D03*
X259325Y498475D03*
X242325Y498475D03*
D13*
X242325Y514350D03*
X259325Y514350D03*
X228600Y470925D03*
X228600Y487925D03*
D33*
X606425Y241300D03*
X606425Y165100D03*
X606425Y266700D03*
D34*
X606425Y209550D03*
D11*
X41275Y713350D03*
X41275Y696350D03*
D19*
X602869Y980313D03*
X602869Y1045337D03*
X648081Y980313D03*
X648081Y1045337D03*
D40*
X561975Y1012825D03*
X561975Y1032825D03*
X561975Y992825D03*
X130175Y1012825D03*
X130175Y1032825D03*
X130175Y992825D03*
D13*
X542925Y959875D03*
X542925Y976875D03*
X558800Y959875D03*
X558800Y976875D03*
X107950Y988450D03*
X107950Y1005450D03*
X107950Y1037200D03*
X107950Y1020200D03*
D41*
X587700Y752925D03*
X587700Y746425D03*
X587700Y739925D03*
X587700Y733425D03*
X587700Y726925D03*
X587700Y720425D03*
X587700Y713925D03*
X644200Y713925D03*
X644200Y720425D03*
X644200Y726925D03*
X644200Y733425D03*
X644200Y739925D03*
X644200Y746425D03*
X644200Y752925D03*
X644200Y707425D03*
X587700Y707425D03*
D11*
X635000Y769375D03*
X635000Y786375D03*
D29*
X520700Y714675D03*
X520700Y688675D03*
X292100Y447375D03*
X292100Y473375D03*
D10*
X551815Y650875D03*
X648335Y650875D03*
D13*
X560950Y682625D03*
X543950Y682625D03*
X636025Y682625D03*
X653025Y682625D03*
D11*
X512200Y438150D03*
X529200Y438150D03*
D13*
X320675Y451875D03*
X320675Y468875D03*
D33*
X85725Y95250D03*
X85725Y19050D03*
X85725Y120650D03*
D34*
X85725Y63500D03*
D42*
X66675Y678850D03*
X66675Y730850D03*
X53975Y678850D03*
X79375Y678850D03*
X92075Y678850D03*
X53975Y730850D03*
X79375Y730850D03*
X92075Y730850D03*
D43*
X125300Y803275D03*
X103300Y793775D03*
X103300Y812775D03*
D11*
X67700Y806450D03*
X84700Y806450D03*
D13*
X107950Y829700D03*
X107950Y846700D03*
X288925Y103750D03*
X288925Y86750D03*
D44*
X279400Y519225D03*
X269900Y541225D03*
X288900Y541225D03*
D13*
X142875Y103750D03*
X142875Y86750D03*
D45*
X206375Y1034525D03*
X206375Y1018525D03*
X374650Y1034525D03*
X374650Y1018525D03*
D11*
X127000Y281550D03*
X127000Y264550D03*
D29*
X152400Y308275D03*
X152400Y282275D03*
D11*
X558800Y283600D03*
X558800Y300600D03*
D13*
X607450Y434975D03*
X624450Y434975D03*
D11*
X409575Y726050D03*
X409575Y709050D03*
D29*
X609600Y797225D03*
X609600Y771225D03*
D13*
X158750Y232800D03*
X158750Y249800D03*
X161925Y91050D03*
X161925Y74050D03*
D46*
X544250Y123825D03*
X535750Y123825D03*
M02*
