G04 EAGLE Gerber RS-274X export*
G75*
%MOMM*%
%FSLAX34Y34*%
%LPD*%
%INSolderpaste Top*%
%IPPOS*%
%AMOC8*
5,1,8,0,0,1.08239X$1,22.5*%
G01*
G04 Define Apertures*
%ADD10R,5.334000X1.930400*%
%ADD11R,1.000000X1.100000*%
%ADD12R,1.200000X3.200000*%
%ADD13R,1.100000X1.000000*%
%ADD14R,0.300000X1.200000*%
%ADD15R,1.200000X0.300000*%
%ADD16R,1.500000X1.300000*%
%ADD17R,1.300000X1.500000*%
%ADD18R,0.660400X2.032000*%
%ADD19R,0.700000X1.000000*%
%ADD20R,3.000000X1.400000*%
%ADD21R,6.200000X5.400000*%
%ADD22R,1.600000X1.000000*%
%ADD23R,1.400000X1.400000*%
%ADD24R,1.905000X0.381000*%
%ADD25R,0.850000X0.700000*%
%ADD26R,1.500000X2.000000*%
%ADD27R,2.200000X0.600000*%
%ADD28R,1.803000X1.600000*%
%ADD29R,1.400000X3.000000*%
%ADD30R,2.600000X1.400000*%
%ADD31R,1.000000X0.350000*%
%ADD32R,0.600000X2.200000*%
%ADD33R,1.400000X1.000000*%
%ADD34R,1.000000X1.400000*%
%ADD35R,0.700000X0.850000*%
%ADD36R,2.032000X2.032000*%
D10*
X323215Y898525D03*
X419735Y898525D03*
D11*
X301625Y935600D03*
X301625Y918600D03*
D12*
X454975Y1024600D03*
X454975Y956600D03*
X414975Y956600D03*
X414975Y1024600D03*
D11*
X458225Y923925D03*
X475225Y923925D03*
X438150Y935600D03*
X438150Y918600D03*
D12*
X481650Y956600D03*
X481650Y1024600D03*
X521650Y1024600D03*
X521650Y956600D03*
D11*
X502675Y923925D03*
X519675Y923925D03*
X422275Y726050D03*
X422275Y709050D03*
X269876Y806205D03*
X269876Y823205D03*
X288925Y722875D03*
X288925Y705875D03*
D13*
X322825Y850900D03*
X305825Y850900D03*
X322825Y863600D03*
X305825Y863600D03*
D11*
X400050Y608575D03*
X400050Y591575D03*
X412750Y608575D03*
X412750Y591575D03*
D13*
X410600Y825501D03*
X427600Y825501D03*
D14*
X386750Y834064D03*
X381750Y834064D03*
X376750Y834064D03*
X371750Y834064D03*
X366750Y834064D03*
X361750Y834064D03*
X356750Y834064D03*
X351750Y834064D03*
X346750Y834064D03*
X341750Y834064D03*
X336750Y834064D03*
X331750Y834064D03*
X326750Y834064D03*
X321750Y834064D03*
X316750Y834064D03*
X311750Y834064D03*
D15*
X290140Y812200D03*
X290140Y807200D03*
X290140Y802200D03*
X290140Y797200D03*
X290140Y792200D03*
X290140Y787200D03*
X290140Y782200D03*
X290140Y777200D03*
X290140Y772200D03*
X290140Y767200D03*
X290140Y762200D03*
X290140Y757200D03*
X290140Y752200D03*
X290140Y747200D03*
X290140Y742200D03*
X290140Y737200D03*
D14*
X311750Y715844D03*
X316750Y715844D03*
X321750Y715844D03*
X326750Y715844D03*
X331750Y715844D03*
X336750Y715844D03*
X341750Y715844D03*
X346750Y715844D03*
X351750Y715844D03*
X356750Y715844D03*
X361750Y715844D03*
X366750Y715844D03*
X371750Y715844D03*
X376750Y715844D03*
X381750Y715844D03*
X386750Y715844D03*
D15*
X408614Y737200D03*
X408614Y742200D03*
X408614Y747200D03*
X408614Y752200D03*
X408614Y757200D03*
X408614Y762200D03*
X408614Y767200D03*
X408614Y772200D03*
X408614Y777200D03*
X408614Y782200D03*
X408614Y787200D03*
X408614Y792200D03*
X408614Y797200D03*
X408614Y802200D03*
X408614Y807200D03*
X408614Y812200D03*
D16*
X269875Y736625D03*
X269875Y755625D03*
D17*
X377850Y692150D03*
X396850Y692150D03*
D13*
X399025Y654050D03*
X382025Y654050D03*
D18*
X180975Y537591D03*
X180975Y599059D03*
X193675Y537591D03*
X206375Y537591D03*
X193675Y599059D03*
X206375Y599059D03*
X219075Y537591D03*
X219075Y599059D03*
X231775Y537591D03*
X244475Y537591D03*
X231775Y599059D03*
X244475Y599059D03*
X257175Y537591D03*
X257175Y599059D03*
D13*
X95250Y656200D03*
X95250Y639200D03*
X79375Y639200D03*
X79375Y656200D03*
X111125Y656200D03*
X111125Y639200D03*
D11*
X63500Y656200D03*
X63500Y639200D03*
X242325Y654050D03*
X259325Y654050D03*
X259325Y638175D03*
X242325Y638175D03*
D13*
X228600Y656200D03*
X228600Y639200D03*
X242325Y622300D03*
X259325Y622300D03*
D11*
X195825Y654050D03*
X178825Y654050D03*
X178825Y638175D03*
X195825Y638175D03*
D13*
X209550Y656200D03*
X209550Y639200D03*
X195825Y622300D03*
X178825Y622300D03*
D11*
X195825Y482600D03*
X178825Y482600D03*
X178825Y498475D03*
X195825Y498475D03*
D13*
X195825Y514350D03*
X178825Y514350D03*
D19*
X120650Y722425D03*
X111150Y744425D03*
X130150Y744425D03*
D11*
X129150Y774700D03*
X112150Y774700D03*
D13*
X112150Y758825D03*
X129150Y758825D03*
D20*
X33150Y847725D03*
X81150Y847725D03*
D13*
X99450Y873125D03*
X116450Y873125D03*
D21*
X54375Y930275D03*
D22*
X127375Y907475D03*
X127375Y953075D03*
D23*
X190500Y993825D03*
X190500Y1031825D03*
X390525Y1031825D03*
X390525Y993825D03*
D13*
X209550Y470925D03*
X209550Y487925D03*
X210575Y514350D03*
X227575Y514350D03*
D24*
X432378Y655100D03*
X432378Y648600D03*
X432378Y642100D03*
X432378Y635600D03*
X432378Y629100D03*
X432378Y622600D03*
X432378Y616100D03*
X432378Y609600D03*
X432378Y603100D03*
X432378Y596600D03*
X432378Y590100D03*
X432378Y583600D03*
X432378Y577100D03*
X432378Y570600D03*
X507422Y570600D03*
X507422Y577100D03*
X507422Y583600D03*
X507422Y590100D03*
X507422Y596600D03*
X507422Y603100D03*
X507422Y609600D03*
X507422Y616100D03*
X507422Y622600D03*
X507422Y629100D03*
X507422Y635600D03*
X507422Y642100D03*
X507422Y648600D03*
X507422Y655100D03*
D25*
X264050Y876300D03*
X280050Y876300D03*
D11*
X530225Y541900D03*
X530225Y524900D03*
D26*
X504825Y520400D03*
X504825Y546400D03*
D13*
X527050Y608575D03*
X527050Y591575D03*
X400050Y37075D03*
X400050Y20075D03*
D11*
X369325Y120650D03*
X386325Y120650D03*
D13*
X386325Y136525D03*
X369325Y136525D03*
D26*
X536575Y456900D03*
X536575Y482900D03*
X460375Y520400D03*
X460375Y546400D03*
D13*
X511175Y475225D03*
X511175Y458225D03*
X495300Y439175D03*
X495300Y456175D03*
D27*
X389925Y457200D03*
X441925Y457200D03*
X389925Y469900D03*
X389925Y444500D03*
X389925Y431800D03*
X441925Y469900D03*
X441925Y444500D03*
X441925Y431800D03*
D13*
X479425Y456175D03*
X479425Y439175D03*
D11*
X463550Y439175D03*
X463550Y456175D03*
D13*
X552450Y20075D03*
X552450Y37075D03*
D26*
X415925Y520400D03*
X415925Y546400D03*
D11*
X430775Y488950D03*
X413775Y488950D03*
D13*
X336550Y451875D03*
X336550Y468875D03*
X352425Y468875D03*
X352425Y451875D03*
D11*
X368300Y451875D03*
X368300Y468875D03*
D13*
X422275Y20075D03*
X422275Y37075D03*
X464575Y469900D03*
X481575Y469900D03*
X350275Y431800D03*
X367275Y431800D03*
X436563Y677300D03*
X436563Y694300D03*
X450850Y677300D03*
X450850Y694300D03*
X515375Y669925D03*
X532375Y669925D03*
D28*
X168275Y1027045D03*
X168275Y998605D03*
D29*
X174625Y918975D03*
X174625Y966975D03*
X247650Y918975D03*
X247650Y966975D03*
D30*
X363400Y955675D03*
X322400Y955675D03*
D13*
X79375Y756675D03*
X79375Y773675D03*
X63500Y773675D03*
X63500Y756675D03*
X95250Y756675D03*
X95250Y773675D03*
D11*
X47625Y756675D03*
X47625Y773675D03*
X242325Y482600D03*
X259325Y482600D03*
X259325Y498475D03*
X242325Y498475D03*
D13*
X242325Y514350D03*
X259325Y514350D03*
X228600Y470925D03*
X228600Y487925D03*
D11*
X41275Y713350D03*
X41275Y696350D03*
D13*
X542925Y959875D03*
X542925Y976875D03*
X558800Y959875D03*
X558800Y976875D03*
X107950Y988450D03*
X107950Y1005450D03*
X107950Y1037200D03*
X107950Y1020200D03*
D31*
X587700Y752925D03*
X587700Y746425D03*
X587700Y739925D03*
X587700Y733425D03*
X587700Y726925D03*
X587700Y720425D03*
X587700Y713925D03*
X644200Y713925D03*
X644200Y720425D03*
X644200Y726925D03*
X644200Y733425D03*
X644200Y739925D03*
X644200Y746425D03*
X644200Y752925D03*
X644200Y707425D03*
X587700Y707425D03*
D11*
X635000Y769375D03*
X635000Y786375D03*
D26*
X520700Y714675D03*
X520700Y688675D03*
X292100Y447375D03*
X292100Y473375D03*
D10*
X551815Y650875D03*
X648335Y650875D03*
D13*
X560950Y682625D03*
X543950Y682625D03*
X636025Y682625D03*
X653025Y682625D03*
D11*
X512200Y438150D03*
X529200Y438150D03*
D13*
X320675Y451875D03*
X320675Y468875D03*
D32*
X66675Y678850D03*
X66675Y730850D03*
X53975Y678850D03*
X79375Y678850D03*
X92075Y678850D03*
X53975Y730850D03*
X79375Y730850D03*
X92075Y730850D03*
D33*
X125300Y803275D03*
X103300Y793775D03*
X103300Y812775D03*
D11*
X67700Y806450D03*
X84700Y806450D03*
D13*
X107950Y829700D03*
X107950Y846700D03*
X288925Y103750D03*
X288925Y86750D03*
D34*
X279400Y519225D03*
X269900Y541225D03*
X288900Y541225D03*
D13*
X142875Y103750D03*
X142875Y86750D03*
D35*
X206375Y1034525D03*
X206375Y1018525D03*
X374650Y1034525D03*
X374650Y1018525D03*
D11*
X127000Y281550D03*
X127000Y264550D03*
D26*
X152400Y308275D03*
X152400Y282275D03*
D11*
X558800Y283600D03*
X558800Y300600D03*
D13*
X607450Y434975D03*
X624450Y434975D03*
D11*
X409575Y726050D03*
X409575Y709050D03*
D26*
X609600Y797225D03*
X609600Y771225D03*
D13*
X158750Y232800D03*
X158750Y249800D03*
X161925Y91050D03*
X161925Y74050D03*
D36*
X539750Y123825D03*
M02*
