%TF.GenerationSoftware,KiCad,Pcbnew,(6.0.11-0)*%
%TF.CreationDate,2025-04-13T15:34:33+02:00*%
%TF.ProjectId,rings,72696e67-732e-46b6-9963-61645f706362,rev?*%
%TF.SameCoordinates,Original*%
%TF.FileFunction,Soldermask,Top*%
%TF.FilePolarity,Negative*%
%FSLAX46Y46*%
G04 Gerber Fmt 4.6, Leading zero omitted, Abs format (unit mm)*
G04 Created by KiCad (PCBNEW (6.0.11-0)) date 2025-04-13 15:34:33*
%MOMM*%
%LPD*%
G01*
G04 APERTURE LIST*
%ADD10C,0.200000*%
%ADD11C,0.500000*%
%ADD12C,0.010000*%
%ADD13C,6.250000*%
%ADD14C,3.000000*%
%ADD15C,5.000000*%
%ADD16C,3.200000*%
G04 APERTURE END LIST*
D10*
X-4675000Y-57725000D02*
X4400000Y-57725000D01*
X4400000Y-57725000D02*
X4400000Y-63400000D01*
X4400000Y-63400000D02*
X-4675000Y-63400000D01*
X-4675000Y-63400000D02*
X-4675000Y-57725000D01*
D11*
X-2997738Y-62534523D02*
X-2497738Y-58534523D01*
X-2973928Y-62344047D02*
X-3188214Y-62534523D01*
X-3569166Y-62534523D01*
X-3735833Y-62344047D01*
X-3807261Y-62153571D01*
X-3854880Y-61772619D01*
X-3712023Y-60629761D01*
X-3569166Y-60248809D01*
X-3450119Y-60058333D01*
X-3235833Y-59867857D01*
X-2854880Y-59867857D01*
X-2688214Y-60058333D01*
X-1116785Y-60439285D02*
X-854880Y-60629761D01*
X-783452Y-60820238D01*
X-735833Y-61201190D01*
X-807261Y-61772619D01*
X-950119Y-62153571D01*
X-1069166Y-62344047D01*
X-1283452Y-62534523D01*
X-2045357Y-62534523D01*
X-1545357Y-58534523D01*
X-878690Y-58534523D01*
X-712023Y-58725000D01*
X-640595Y-58915476D01*
X-592976Y-59296428D01*
X-640595Y-59677380D01*
X-783452Y-60058333D01*
X-902500Y-60248809D01*
X-1116785Y-60439285D01*
X-1783452Y-60439285D01*
X2261Y-61391666D02*
X954642Y-61391666D01*
X-331071Y-62534523D02*
X835595Y-58534523D01*
X1002261Y-62534523D01*
X1668928Y-62534523D02*
X2002261Y-59867857D01*
X1907023Y-60629761D02*
X2049880Y-60248809D01*
X2168928Y-60058333D01*
X2383214Y-59867857D01*
X2573690Y-59867857D01*
X2954642Y-59867857D02*
X3716547Y-59867857D01*
X3407023Y-58534523D02*
X2978452Y-61963095D01*
X3026071Y-62344047D01*
X3192738Y-62534523D01*
X3383214Y-62534523D01*
%TO.C,G\u002A\u002A\u002A*%
G36*
X-19975390Y-61804254D02*
G01*
X-19959447Y-61811958D01*
X-19868686Y-61879109D01*
X-19806780Y-61968735D01*
X-19773640Y-62072420D01*
X-19769175Y-62181746D01*
X-19793298Y-62288297D01*
X-19845918Y-62383655D01*
X-19926947Y-62459402D01*
X-19966550Y-62481967D01*
X-20073201Y-62516549D01*
X-20184525Y-62524067D01*
X-20284702Y-62504012D01*
X-20309369Y-62492987D01*
X-20396824Y-62436756D01*
X-20457331Y-62368088D01*
X-20491858Y-62304083D01*
X-20526638Y-62184135D01*
X-20519308Y-62065343D01*
X-20491661Y-61986583D01*
X-20421807Y-61880070D01*
X-20329225Y-61806603D01*
X-20219944Y-61768160D01*
X-20099989Y-61766718D01*
X-19975390Y-61804254D01*
G37*
D12*
X-19975390Y-61804254D02*
X-19959447Y-61811958D01*
X-19868686Y-61879109D01*
X-19806780Y-61968735D01*
X-19773640Y-62072420D01*
X-19769175Y-62181746D01*
X-19793298Y-62288297D01*
X-19845918Y-62383655D01*
X-19926947Y-62459402D01*
X-19966550Y-62481967D01*
X-20073201Y-62516549D01*
X-20184525Y-62524067D01*
X-20284702Y-62504012D01*
X-20309369Y-62492987D01*
X-20396824Y-62436756D01*
X-20457331Y-62368088D01*
X-20491858Y-62304083D01*
X-20526638Y-62184135D01*
X-20519308Y-62065343D01*
X-20491661Y-61986583D01*
X-20421807Y-61880070D01*
X-20329225Y-61806603D01*
X-20219944Y-61768160D01*
X-20099989Y-61766718D01*
X-19975390Y-61804254D01*
G36*
X-18791620Y-61776378D02*
G01*
X-18716745Y-61803906D01*
X-18621312Y-61873725D01*
X-18555904Y-61965107D01*
X-18520607Y-62069928D01*
X-18515506Y-62180064D01*
X-18540686Y-62287393D01*
X-18596234Y-62383791D01*
X-18682235Y-62461134D01*
X-18709645Y-62477147D01*
X-18817057Y-62515343D01*
X-18930113Y-62524253D01*
X-19033671Y-62503277D01*
X-19060583Y-62491086D01*
X-19146012Y-62436894D01*
X-19204405Y-62373976D01*
X-19243024Y-62304083D01*
X-19276099Y-62184711D01*
X-19269932Y-62064809D01*
X-19226663Y-61952789D01*
X-19148430Y-61857060D01*
X-19124318Y-61837160D01*
X-19024411Y-61785672D01*
X-18908709Y-61765019D01*
X-18791620Y-61776378D01*
G37*
X-18791620Y-61776378D02*
X-18716745Y-61803906D01*
X-18621312Y-61873725D01*
X-18555904Y-61965107D01*
X-18520607Y-62069928D01*
X-18515506Y-62180064D01*
X-18540686Y-62287393D01*
X-18596234Y-62383791D01*
X-18682235Y-62461134D01*
X-18709645Y-62477147D01*
X-18817057Y-62515343D01*
X-18930113Y-62524253D01*
X-19033671Y-62503277D01*
X-19060583Y-62491086D01*
X-19146012Y-62436894D01*
X-19204405Y-62373976D01*
X-19243024Y-62304083D01*
X-19276099Y-62184711D01*
X-19269932Y-62064809D01*
X-19226663Y-61952789D01*
X-19148430Y-61857060D01*
X-19124318Y-61837160D01*
X-19024411Y-61785672D01*
X-18908709Y-61765019D01*
X-18791620Y-61776378D01*
G36*
X-17557104Y-61774397D02*
G01*
X-17450826Y-61812346D01*
X-17363157Y-61878322D01*
X-17338103Y-61908845D01*
X-17286043Y-62016335D01*
X-17267399Y-62137326D01*
X-17282134Y-62259378D01*
X-17330210Y-62370047D01*
X-17339518Y-62383809D01*
X-17415067Y-62455811D01*
X-17514725Y-62502857D01*
X-17626892Y-62522729D01*
X-17739968Y-62513209D01*
X-17832291Y-62478038D01*
X-17928715Y-62401651D01*
X-17992964Y-62305009D01*
X-18024441Y-62196051D01*
X-18022548Y-62082719D01*
X-17986685Y-61972953D01*
X-17916255Y-61874695D01*
X-17880217Y-61841956D01*
X-17782538Y-61787877D01*
X-17671255Y-61765798D01*
X-17557104Y-61774397D01*
G37*
X-17557104Y-61774397D02*
X-17450826Y-61812346D01*
X-17363157Y-61878322D01*
X-17338103Y-61908845D01*
X-17286043Y-62016335D01*
X-17267399Y-62137326D01*
X-17282134Y-62259378D01*
X-17330210Y-62370047D01*
X-17339518Y-62383809D01*
X-17415067Y-62455811D01*
X-17514725Y-62502857D01*
X-17626892Y-62522729D01*
X-17739968Y-62513209D01*
X-17832291Y-62478038D01*
X-17928715Y-62401651D01*
X-17992964Y-62305009D01*
X-18024441Y-62196051D01*
X-18022548Y-62082719D01*
X-17986685Y-61972953D01*
X-17916255Y-61874695D01*
X-17880217Y-61841956D01*
X-17782538Y-61787877D01*
X-17671255Y-61765798D01*
X-17557104Y-61774397D01*
G36*
X-18817615Y-60272767D02*
G01*
X-18718814Y-60305335D01*
X-18624462Y-60372078D01*
X-18559201Y-60461395D01*
X-18523112Y-60565032D01*
X-18516274Y-60674736D01*
X-18538767Y-60782251D01*
X-18590672Y-60879324D01*
X-18672067Y-60957699D01*
X-18712272Y-60981646D01*
X-18810434Y-61013331D01*
X-18922223Y-61021575D01*
X-19027484Y-61005685D01*
X-19060583Y-60993620D01*
X-19149366Y-60932932D01*
X-19221040Y-60843373D01*
X-19267867Y-60737357D01*
X-19282368Y-60637888D01*
X-19269181Y-60558422D01*
X-19236146Y-60470889D01*
X-19191669Y-60394713D01*
X-19163340Y-60362849D01*
X-19060185Y-60298140D01*
X-18941269Y-60267637D01*
X-18817615Y-60272767D01*
G37*
X-18817615Y-60272767D02*
X-18718814Y-60305335D01*
X-18624462Y-60372078D01*
X-18559201Y-60461395D01*
X-18523112Y-60565032D01*
X-18516274Y-60674736D01*
X-18538767Y-60782251D01*
X-18590672Y-60879324D01*
X-18672067Y-60957699D01*
X-18712272Y-60981646D01*
X-18810434Y-61013331D01*
X-18922223Y-61021575D01*
X-19027484Y-61005685D01*
X-19060583Y-60993620D01*
X-19149366Y-60932932D01*
X-19221040Y-60843373D01*
X-19267867Y-60737357D01*
X-19282368Y-60637888D01*
X-19269181Y-60558422D01*
X-19236146Y-60470889D01*
X-19191669Y-60394713D01*
X-19163340Y-60362849D01*
X-19060185Y-60298140D01*
X-18941269Y-60267637D01*
X-18817615Y-60272767D01*
G36*
X-19987405Y-58548930D02*
G01*
X-19887545Y-58611821D01*
X-19812310Y-58697304D01*
X-19800656Y-58717803D01*
X-19779284Y-58788236D01*
X-19770670Y-58880117D01*
X-19775301Y-58974379D01*
X-19792243Y-59048330D01*
X-19849800Y-59144077D01*
X-19936187Y-59217422D01*
X-20041681Y-59263444D01*
X-20156556Y-59277223D01*
X-20226218Y-59267900D01*
X-20345446Y-59219754D01*
X-20438561Y-59141129D01*
X-20500954Y-59037225D01*
X-20526812Y-58928744D01*
X-20518616Y-58807598D01*
X-20473995Y-58697628D01*
X-20398701Y-58606403D01*
X-20298488Y-58541491D01*
X-20212245Y-58514950D01*
X-20099702Y-58514636D01*
X-19987405Y-58548930D01*
G37*
X-19987405Y-58548930D02*
X-19887545Y-58611821D01*
X-19812310Y-58697304D01*
X-19800656Y-58717803D01*
X-19779284Y-58788236D01*
X-19770670Y-58880117D01*
X-19775301Y-58974379D01*
X-19792243Y-59048330D01*
X-19849800Y-59144077D01*
X-19936187Y-59217422D01*
X-20041681Y-59263444D01*
X-20156556Y-59277223D01*
X-20226218Y-59267900D01*
X-20345446Y-59219754D01*
X-20438561Y-59141129D01*
X-20500954Y-59037225D01*
X-20526812Y-58928744D01*
X-20518616Y-58807598D01*
X-20473995Y-58697628D01*
X-20398701Y-58606403D01*
X-20298488Y-58541491D01*
X-20212245Y-58514950D01*
X-20099702Y-58514636D01*
X-19987405Y-58548930D01*
G36*
X-17513823Y-58535131D02*
G01*
X-17409429Y-58594724D01*
X-17397702Y-58604257D01*
X-17317748Y-58695184D01*
X-17274930Y-58804034D01*
X-17265952Y-58896788D01*
X-17284679Y-59024108D01*
X-17338544Y-59130036D01*
X-17424078Y-59210538D01*
X-17537808Y-59261581D01*
X-17589500Y-59272702D01*
X-17645014Y-59278741D01*
X-17682429Y-59277991D01*
X-17684750Y-59277382D01*
X-17719941Y-59267876D01*
X-17763737Y-59257629D01*
X-17838634Y-59223550D01*
X-17913074Y-59160488D01*
X-17975051Y-59080187D01*
X-18003412Y-59023152D01*
X-18029363Y-58905388D01*
X-18018938Y-58795905D01*
X-17977875Y-58698672D01*
X-17911913Y-58617657D01*
X-17826789Y-58556827D01*
X-17728241Y-58520150D01*
X-17622006Y-58511596D01*
X-17513823Y-58535131D01*
G37*
X-17513823Y-58535131D02*
X-17409429Y-58594724D01*
X-17397702Y-58604257D01*
X-17317748Y-58695184D01*
X-17274930Y-58804034D01*
X-17265952Y-58896788D01*
X-17284679Y-59024108D01*
X-17338544Y-59130036D01*
X-17424078Y-59210538D01*
X-17537808Y-59261581D01*
X-17589500Y-59272702D01*
X-17645014Y-59278741D01*
X-17682429Y-59277991D01*
X-17684750Y-59277382D01*
X-17719941Y-59267876D01*
X-17763737Y-59257629D01*
X-17838634Y-59223550D01*
X-17913074Y-59160488D01*
X-17975051Y-59080187D01*
X-18003412Y-59023152D01*
X-18029363Y-58905388D01*
X-18018938Y-58795905D01*
X-17977875Y-58698672D01*
X-17911913Y-58617657D01*
X-17826789Y-58556827D01*
X-17728241Y-58520150D01*
X-17622006Y-58511596D01*
X-17513823Y-58535131D01*
%TD*%
D13*
%TO.C,*%
X26036206Y-46833070D03*
%TD*%
%TO.C,*%
X13032939Y-46833070D03*
%TD*%
%TO.C,*%
X29674Y-46833070D03*
%TD*%
%TO.C,*%
X-12971001Y-46833070D03*
%TD*%
%TO.C,*%
X-25972723Y-46833070D03*
%TD*%
%TO.C,*%
X26036206Y-32231453D03*
%TD*%
%TO.C,*%
X13032939Y-32231453D03*
%TD*%
%TO.C,*%
X29674Y-32231453D03*
%TD*%
%TO.C,*%
X-12971001Y-32231453D03*
%TD*%
%TO.C,*%
X-25972723Y-32231453D03*
%TD*%
D14*
%TO.C,*%
X21634719Y48127039D03*
%TD*%
%TO.C,*%
X-21573993Y48127039D03*
%TD*%
D15*
%TO.C,*%
X27979999Y48127039D03*
%TD*%
%TO.C,*%
X-27900002Y48127039D03*
%TD*%
D16*
%TO.C,*%
X-27900002Y61250000D03*
%TD*%
%TO.C,*%
X27979999Y61250000D03*
%TD*%
%TO.C,*%
X-27900002Y-61250000D03*
%TD*%
%TO.C,*%
X27979999Y-61250000D03*
%TD*%
M02*
