%TF.GenerationSoftware,KiCad,Pcbnew,(6.0.11-0)*%
%TF.CreationDate,2025-04-13T15:34:33+02:00*%
%TF.ProjectId,rings,72696e67-732e-46b6-9963-61645f706362,rev?*%
%TF.SameCoordinates,Original*%
%TF.FileFunction,Soldermask,Bot*%
%TF.FilePolarity,Negative*%
%FSLAX46Y46*%
G04 Gerber Fmt 4.6, Leading zero omitted, Abs format (unit mm)*
G04 Created by KiCad (PCBNEW (6.0.11-0)) date 2025-04-13 15:34:33*
%MOMM*%
%LPD*%
G01*
G04 APERTURE LIST*
%ADD10C,0.100000*%
%ADD11C,6.250000*%
%ADD12C,3.000000*%
%ADD13C,5.000000*%
%ADD14C,3.200000*%
G04 APERTURE END LIST*
D10*
X26000000Y66637500D02*
X39750000Y66637500D01*
X39750000Y66637500D02*
X39750000Y31212500D01*
X39750000Y31212500D02*
X26000000Y31212500D01*
X26000000Y31212500D02*
X26000000Y66637500D01*
G36*
X26000000Y66637500D02*
G01*
X39750000Y66637500D01*
X39750000Y31212500D01*
X26000000Y31212500D01*
X26000000Y66637500D01*
G37*
X-39525000Y66550000D02*
X-25775000Y66550000D01*
X-25775000Y66550000D02*
X-25775000Y31125000D01*
X-25775000Y31125000D02*
X-39525000Y31125000D01*
X-39525000Y31125000D02*
X-39525000Y66550000D01*
G36*
X-39525000Y66550000D02*
G01*
X-25775000Y66550000D01*
X-25775000Y31125000D01*
X-39525000Y31125000D01*
X-39525000Y66550000D01*
G37*
X-39200000Y-61575000D02*
X42125000Y-61575000D01*
X42125000Y-61575000D02*
X42125000Y-64425000D01*
X42125000Y-64425000D02*
X-39200000Y-64425000D01*
X-39200000Y-64425000D02*
X-39200000Y-61575000D01*
G36*
X-39200000Y-61575000D02*
G01*
X42125000Y-61575000D01*
X42125000Y-64425000D01*
X-39200000Y-64425000D01*
X-39200000Y-61575000D01*
G37*
X9975000Y-52650000D02*
X39650000Y-52650000D01*
X39650000Y-52650000D02*
X39650000Y-64825000D01*
X39650000Y-64825000D02*
X9975000Y-64825000D01*
X9975000Y-64825000D02*
X9975000Y-52650000D01*
G36*
X9975000Y-52650000D02*
G01*
X39650000Y-52650000D01*
X39650000Y-64825000D01*
X9975000Y-64825000D01*
X9975000Y-52650000D01*
G37*
X-42000000Y-51825000D02*
X-9375000Y-51825000D01*
X-9375000Y-51825000D02*
X-9375000Y-65225000D01*
X-9375000Y-65225000D02*
X-42000000Y-65225000D01*
X-42000000Y-65225000D02*
X-42000000Y-51825000D01*
G36*
X-42000000Y-51825000D02*
G01*
X-9375000Y-51825000D01*
X-9375000Y-65225000D01*
X-42000000Y-65225000D01*
X-42000000Y-51825000D01*
G37*
X-40475000Y31025000D02*
X40850000Y31025000D01*
X40850000Y31025000D02*
X40850000Y-53525000D01*
X40850000Y-53525000D02*
X-40475000Y-53525000D01*
X-40475000Y-53525000D02*
X-40475000Y31025000D01*
G36*
X-40475000Y31025000D02*
G01*
X40850000Y31025000D01*
X40850000Y-53525000D01*
X-40475000Y-53525000D01*
X-40475000Y31025000D01*
G37*
D11*
%TO.C,*%
X26036206Y-46833070D03*
%TD*%
%TO.C,*%
X13032939Y-46833070D03*
%TD*%
%TO.C,*%
X29674Y-46833070D03*
%TD*%
%TO.C,*%
X-12971001Y-46833070D03*
%TD*%
%TO.C,*%
X-25972723Y-46833070D03*
%TD*%
%TO.C,*%
X26036206Y-32231453D03*
%TD*%
%TO.C,*%
X13032939Y-32231453D03*
%TD*%
%TO.C,*%
X29674Y-32231453D03*
%TD*%
%TO.C,*%
X-12971001Y-32231453D03*
%TD*%
%TO.C,*%
X-25972723Y-32231453D03*
%TD*%
D12*
%TO.C,*%
X21634719Y48127039D03*
%TD*%
%TO.C,*%
X-21573993Y48127039D03*
%TD*%
D13*
%TO.C,*%
X27979999Y48127039D03*
%TD*%
%TO.C,*%
X-27900002Y48127039D03*
%TD*%
D14*
%TO.C,*%
X-27900002Y61250000D03*
%TD*%
%TO.C,*%
X27979999Y61250000D03*
%TD*%
%TO.C,*%
X-27900002Y-61250000D03*
%TD*%
%TO.C,*%
X27979999Y-61250000D03*
%TD*%
M02*
