%TF.GenerationSoftware,KiCad,Pcbnew,(6.0.11-0)*%
%TF.CreationDate,2025-04-13T16:27:56+02:00*%
%TF.ProjectId,rings,72696e67-732e-46b6-9963-61645f706362,rev?*%
%TF.SameCoordinates,Original*%
%TF.FileFunction,Profile,NP*%
%FSLAX46Y46*%
G04 Gerber Fmt 4.6, Leading zero omitted, Abs format (unit mm)*
G04 Created by KiCad (PCBNEW (6.0.11-0)) date 2025-04-13 16:27:56*
%MOMM*%
%LPD*%
G01*
G04 APERTURE LIST*
%TA.AperFunction,Profile*%
%ADD10C,0.100000*%
%TD*%
G04 APERTURE END LIST*
D10*
X19433898Y28447900D02*
X19184798Y28172800D01*
X709899Y-19686400D02*
X374798Y-19737500D01*
X-12884502Y31915100D02*
X-12795202Y31559500D01*
X-29201842Y-15398400D02*
X-29090812Y-15088400D01*
X20121098Y31915100D02*
X20210498Y31559500D01*
X14324498Y-19498100D02*
X14014498Y-19609100D01*
X-1857301Y-19178600D02*
X-2117102Y-18984300D01*
X26734798Y5998700D02*
X26953998Y5702700D01*
X-23362002Y-18518900D02*
X-23586202Y-18766500D01*
X-9993602Y-14790700D02*
X-9852902Y-15088400D01*
X22812898Y-17383600D02*
X22729799Y-17060100D01*
X-12722502Y30824500D02*
X-12740802Y30453800D01*
X19433898Y33201100D02*
X19653098Y32905000D01*
X-22658202Y40700D02*
X-23017602Y-51700D01*
X-22995302Y-17969200D02*
X-23164802Y-18252400D01*
X13413199Y28744000D02*
X13224998Y29058600D01*
X-19780701Y32590300D02*
X-19592402Y32905000D01*
X14324498Y-13261900D02*
X14622198Y-13402600D01*
X-12795202Y30089500D02*
X-12884502Y29733900D01*
X-13304602Y-13021500D02*
X-12971002Y-13005000D01*
X26485698Y6273800D02*
X26734798Y5998700D01*
X9723398Y-15718500D02*
X9803798Y-15398400D01*
X25054598Y-13150900D02*
X25374699Y-13070400D01*
X16342498Y-17041500D02*
X16262099Y-17361500D01*
X-705302Y-55100D02*
X-1061002Y34200D01*
X-26667042Y1236800D02*
X-26882912Y1525500D01*
X374798Y-19737500D02*
X29698Y-19755000D01*
X17968198Y27359900D02*
X17623798Y27236600D01*
X-13632502Y-13070400D02*
X-13304602Y-13021500D01*
X-16328602Y-16725000D02*
X-16346002Y-16380000D01*
X24569098Y7299400D02*
X24924698Y7210100D01*
X12371398Y-13070400D02*
X12699399Y-13021500D01*
X26036198Y-13005000D02*
X26369798Y-13021500D01*
X20933298Y5998700D02*
X21182398Y6273800D01*
X26697699Y-13070400D02*
X27017798Y-13150900D01*
X20102398Y3992800D02*
X20156799Y4357200D01*
X23099098Y-55100D02*
X22743499Y34200D01*
X28182998Y-18984300D02*
X27923198Y-19178600D01*
X21457498Y6522900D02*
X21753598Y6742100D01*
X-10824202Y-18984300D02*
X-11084002Y-19178600D01*
X28175098Y-13769300D02*
X28422698Y-13993500D01*
X-15737402Y27147200D02*
X-16101802Y27092800D01*
X29411198Y-16380000D02*
X29411198Y-16380000D01*
X12945298Y31915100D02*
X13068599Y32259500D01*
X27923198Y-19178600D02*
X27644898Y-19347600D01*
X27349898Y-19489700D02*
X27039798Y-19603200D01*
X3706998Y4357200D02*
X3761298Y3992800D01*
X3387298Y-16725000D02*
X3336098Y-17060100D01*
X-9612502Y-16046400D02*
X-9596002Y-16380000D01*
X26369798Y-13021500D02*
X26697699Y-13070400D01*
X13366498Y-19738500D02*
X13032898Y-19755000D01*
X26734798Y1245600D02*
X26485698Y970500D01*
X1638399Y-19347600D02*
X1343398Y-19489700D01*
X-17207502Y34501800D02*
X-16843102Y34556100D01*
X19841398Y29058600D02*
X19653098Y28744000D01*
X10646498Y-18766500D02*
X10428598Y-18526800D01*
X400298Y7353800D02*
X764699Y7299400D01*
X27511398Y2887100D02*
X27421999Y2531500D01*
X-19124102Y33476100D02*
X-18849002Y33725200D01*
X3147799Y-15088400D02*
X3258798Y-15398400D01*
X-3434902Y5057200D02*
X-3278502Y5388000D01*
X26485698Y970500D02*
X26210698Y721400D01*
X-14843502Y-13572000D02*
X-14560302Y-13402600D01*
X-1559601Y-13402600D02*
X-1261902Y-13261900D01*
X3007098Y-14790700D02*
X3147799Y-15088400D01*
X-9741902Y-15398400D02*
X-9661402Y-15718500D01*
X-15381802Y27236600D02*
X-15737402Y27147200D01*
X28640498Y-18526800D02*
X28422698Y-18766500D01*
X-17563102Y34412400D02*
X-17207502Y34501800D01*
X27511398Y4357200D02*
X27565698Y3992800D01*
X29003898Y-17988700D02*
X28834799Y-18267000D01*
X-27523362Y3622200D02*
X-27504002Y4005600D01*
X3706998Y2887100D02*
X3617598Y2531500D01*
X24924698Y34200D02*
X24569098Y-55100D01*
X29259498Y-17383600D02*
X29145999Y-17693700D01*
X25355998Y-19686400D02*
X25032598Y-19603200D01*
X13413199Y32905000D02*
X13632399Y33201100D01*
X764699Y7299400D02*
X1120298Y7210100D01*
X9803798Y-15398400D02*
X9914798Y-15088400D01*
X-21985902Y6919500D02*
X-21676702Y6731700D01*
X-25233002Y166800D02*
X-25560832Y324800D01*
X-20191902Y2507000D02*
X-20318002Y2162500D01*
X20369498Y2187100D02*
X20246198Y2531500D01*
X-15381802Y34412400D02*
X-15037402Y34289000D01*
X27327799Y-13261900D02*
X27625498Y-13402600D01*
X-15948402Y-14790700D02*
X-15779002Y-14507500D01*
X-23164802Y-18252400D02*
X-23362002Y-18518900D01*
X-20060402Y29733900D02*
X-20149702Y30089500D01*
X-29347722Y-16380000D02*
X-29331212Y-16046400D01*
X14767298Y27516300D02*
X14452698Y27704500D01*
X-650502Y-19686400D02*
X-973902Y-19603200D01*
X21753598Y502200D02*
X21457498Y721400D01*
X1618899Y-13402600D02*
X1902099Y-13572000D01*
X18298998Y34132700D02*
X18613698Y33944400D01*
X-26667042Y6007500D02*
X-26425012Y6273800D01*
X-21388002Y728500D02*
X-21676702Y512600D01*
X3761298Y3992800D02*
X3779698Y3622200D01*
X15098098Y34289000D02*
X15442598Y34412400D01*
X-2109302Y-13769300D02*
X-1842802Y-13572000D01*
X9675399Y-16725000D02*
X9657898Y-16380000D01*
X-3090302Y5702700D02*
X-2871102Y5998700D01*
X14622198Y-19357400D02*
X14324498Y-19498100D01*
X29145999Y-17693700D02*
X29003898Y-17988700D01*
X25374699Y-13070400D02*
X25702599Y-13021500D01*
X26210698Y6522900D02*
X26485698Y6273800D01*
X-26306302Y-19738500D02*
X-26634232Y-19689500D01*
X-14858002Y-19178600D02*
X-15117802Y-18984300D01*
X10224998Y-14507500D02*
X10422298Y-14241000D01*
X-13571702Y33201100D02*
X-13352502Y32905000D01*
X3388199Y-16046400D02*
X3404698Y-16380000D01*
X23649698Y-18766500D02*
X23431898Y-18526800D01*
X26953998Y1541700D02*
X26734798Y1245600D01*
X13632399Y33201100D02*
X13881498Y33476100D01*
X12801499Y30453800D02*
X12783198Y30824500D01*
X24924698Y7210100D02*
X25269098Y7086700D01*
X13881498Y28172800D02*
X13632399Y28447900D01*
X-12637402Y-13021500D02*
X-12309502Y-13070400D01*
X-29090812Y-17671500D02*
X-29201842Y-17361500D01*
X14767298Y34132700D02*
X15098098Y34289000D01*
X-26158701Y728500D02*
X-26425012Y970500D01*
X9914798Y-15088400D02*
X10055498Y-14790700D01*
X28834799Y-18267000D02*
X28640498Y-18526800D01*
X-24529102Y7296000D02*
X-24156802Y7352800D01*
X1011198Y-13150900D02*
X1321199Y-13261900D01*
X20933298Y1245600D02*
X20714098Y1541700D01*
X-14284702Y-19489700D02*
X-14579702Y-19347600D01*
X18298998Y27516300D02*
X17968198Y27359900D01*
X-26306302Y-13021500D02*
X-25972722Y-13005000D01*
X-9861202Y-17693700D02*
X-10003302Y-17988700D01*
X-26158701Y6515800D02*
X-25870022Y6731700D01*
X20525898Y1856300D02*
X20369498Y2187100D01*
X3617598Y2531500D02*
X3494198Y2187100D01*
X-3278502Y5388000D02*
X-3090302Y5702700D01*
X14452698Y33944400D02*
X14767298Y34132700D01*
X9674498Y-16046400D02*
X9723398Y-15718500D01*
X16262099Y-17361500D02*
X16150999Y-17671500D01*
X-17207502Y27147200D02*
X-17563102Y27236600D01*
X-2947702Y-14790700D02*
X-2778302Y-14507500D01*
X10422298Y-14241000D02*
X10646498Y-13993500D01*
X3252899Y-17383600D02*
X3139498Y-17693700D01*
X-3558202Y4712800D02*
X-3434902Y5057200D01*
X15840899Y-14507500D02*
X16010298Y-14790700D01*
X24163798Y-13572000D02*
X24446998Y-13402600D01*
X-16200102Y-15398400D02*
X-16089102Y-15088400D01*
X-24100302Y-13572000D02*
X-23833801Y-13769300D01*
X-27504002Y3238700D02*
X-27523362Y3622200D01*
X-1061002Y7210100D02*
X-705302Y7299400D01*
X-13316102Y-19737500D02*
X-13651202Y-19686400D01*
X16150999Y-17671500D02*
X16010298Y-17969200D01*
X24569098Y-55100D02*
X24204698Y-109500D01*
X-25311202Y-13070400D02*
X-24991202Y-13150900D01*
X20121098Y29733900D02*
X19997698Y29389400D01*
X29393799Y-16725000D02*
X29342598Y-17060100D01*
X-9596002Y-16380000D02*
X-9596002Y-16380000D01*
X23431898Y-18526800D02*
X23237598Y-18267000D01*
X-23833801Y-18990600D02*
X-24100302Y-19187900D01*
X-20042701Y3238700D02*
X-20099502Y2866400D01*
X-9596002Y-16380000D02*
X-9613402Y-16725000D01*
X-16277402Y-17060100D02*
X-16328602Y-16725000D01*
X-21985902Y324800D02*
X-22313702Y166800D01*
X-24888502Y7203600D02*
X-24529102Y7296000D01*
X9809698Y-17383600D02*
X9726498Y-17060100D01*
X-12309502Y-13070400D02*
X-11989402Y-13150900D01*
X-3199402Y-15398400D02*
X-3088402Y-15088400D01*
X-2117102Y-18984300D02*
X-2356802Y-18766500D01*
X-25870022Y512600D02*
X-26158701Y728500D01*
X-18553002Y27704500D02*
X-18849002Y27923700D01*
X22068199Y6930400D02*
X22398998Y7086700D01*
X16010298Y-17969200D02*
X15840899Y-18252400D01*
X24744698Y-13261900D02*
X25054598Y-13150900D01*
X12855898Y31559500D02*
X12945298Y31915100D01*
X15171898Y-18990600D02*
X14905398Y-19187900D01*
X11719198Y-19489700D02*
X11424198Y-19347600D01*
X-24156802Y-108500D02*
X-24529102Y-51700D01*
X-14392002Y27704500D02*
X-14706602Y27516300D01*
X20525898Y5388000D02*
X20714098Y5702700D01*
X15419398Y-13993500D02*
X15643598Y-14241000D01*
X2997298Y-17988700D02*
X2828298Y-18267000D01*
X-19592402Y32905000D02*
X-19373202Y33201100D01*
X9657898Y-16380000D02*
X9674498Y-16046400D01*
X-19373202Y33201100D02*
X-19124102Y33476100D01*
X23463398Y-109500D02*
X23099098Y-55100D01*
X22398998Y157600D02*
X22068199Y313900D01*
X3494198Y2187100D02*
X3337899Y1856300D01*
X-35400002Y64250000D02*
X35399998Y64250000D01*
X15643598Y-14241000D02*
X15840899Y-14507500D01*
X3617598Y4712800D02*
X3706998Y4357200D01*
X-28780682Y-14507500D02*
X-28583402Y-14241000D01*
X21182398Y970500D02*
X20933298Y1245600D01*
X363298Y-13021500D02*
X691198Y-13070400D01*
X-20476002Y5409600D02*
X-20318002Y5081800D01*
X11443698Y-13402600D02*
X11741398Y-13261900D01*
X-27070752Y1834700D02*
X-27228662Y2162500D01*
X14905398Y-19187900D02*
X14622198Y-19357400D01*
X25599898Y6930400D02*
X25914598Y6742100D01*
X-20149702Y31559500D02*
X-20060402Y31915100D01*
X-13164202Y29058600D02*
X-13352502Y28744000D01*
X23463398Y7353800D02*
X23834098Y7372200D01*
X-23389902Y-108500D02*
X-23773402Y-127800D01*
X-11381702Y-13402600D02*
X-11098502Y-13572000D01*
X764699Y-55100D02*
X400298Y-109500D01*
X23237598Y-18267000D02*
X23068599Y-17988700D01*
X-15938702Y-17988700D02*
X-16080802Y-17693700D01*
X-341002Y-109500D02*
X-705302Y-55100D01*
X-24156802Y7352800D02*
X-23773402Y7372200D01*
X2416199Y-18766500D02*
X2176499Y-18984300D01*
X23099098Y7299400D02*
X23463398Y7353800D01*
X-1061002Y34200D02*
X-1405402Y157600D01*
X3258798Y-15398400D02*
X3339198Y-15718500D01*
X29154298Y-15088400D02*
X29265299Y-15398400D01*
X1464698Y7086700D02*
X1795499Y6930400D01*
X-29201842Y-17361500D02*
X-29282272Y-17041500D01*
X-13164202Y32590300D02*
X-13007902Y32259500D01*
X13224998Y29058600D02*
X13068599Y29389400D01*
X26036198Y-19755000D02*
X25691098Y-19737500D01*
X16262099Y-15398400D02*
X16342498Y-15718500D01*
X23834098Y7372200D02*
X24204698Y7353800D01*
X-11362302Y-19347600D02*
X-11657302Y-19489700D01*
X-12625902Y-19737500D02*
X-12971002Y-19755000D01*
X-20476002Y1834700D02*
X-20663802Y1525500D01*
X-20318002Y5081800D02*
X-20191902Y4737300D01*
X27584098Y3622200D02*
X27584098Y3622200D01*
X-29282272Y-17041500D02*
X-29331212Y-16713500D01*
X-16843102Y27092800D02*
X-17207502Y27147200D01*
X2640398Y-14241000D02*
X2837598Y-14507500D01*
X-28359212Y-18766500D02*
X-28583402Y-18518900D01*
X1343398Y-19489700D02*
X1033299Y-19603200D01*
X1120298Y34200D02*
X764699Y-55100D01*
X-16472502Y34574500D02*
X-16101802Y34556100D01*
X24204698Y7353800D02*
X24569098Y7299400D01*
X-18238302Y27516300D02*
X-18553002Y27704500D01*
X16903799Y27092800D02*
X16533198Y27074500D01*
X2406298Y721400D02*
X2110198Y502200D01*
X-20318002Y2162500D02*
X-20476002Y1834700D01*
X-16843102Y34556100D02*
X-16472502Y34574500D01*
X-26634232Y-19689500D02*
X-26954292Y-19609100D01*
X-14706602Y27516300D02*
X-15037402Y27359900D01*
X-27845172Y-13572000D02*
X-27561982Y-13402600D01*
X-631802Y-13070400D02*
X-303902Y-13021500D01*
X-23362002Y-14241000D02*
X-23164802Y-14507500D01*
X25269098Y157600D02*
X24924698Y34200D01*
X-22743602Y-15398400D02*
X-22663201Y-15718500D01*
X2406298Y6522900D02*
X2681298Y6273800D01*
X-21388002Y6515800D02*
X-21121702Y6273800D01*
X-19124102Y28172800D02*
X-19373202Y28447900D01*
X-23017602Y-51700D02*
X-23389902Y-108500D01*
X18909799Y33725200D02*
X19184798Y33476100D01*
X-28780682Y-18252400D02*
X-28950122Y-17969200D01*
X14452698Y27704500D02*
X14156599Y27923700D01*
X-25972722Y-19755000D02*
X-26306302Y-19738500D01*
X2681298Y970500D02*
X2406298Y721400D01*
X-28583402Y-18518900D02*
X-28780682Y-18252400D01*
X-15037402Y34289000D02*
X-14706602Y34132700D01*
X20156799Y2887100D02*
X20102398Y3251500D01*
X-1405402Y157600D02*
X-1736201Y313900D01*
X27625498Y-13402600D02*
X27908698Y-13572000D01*
X22398998Y7086700D02*
X22743499Y7210100D01*
X-3702002Y3251500D02*
X-3720302Y3622200D01*
X-15769602Y-18267000D02*
X-15938702Y-17988700D01*
X3149598Y5702700D02*
X3337899Y5388000D01*
X19653098Y32905000D02*
X19841398Y32590300D01*
X-27264282Y-19498100D02*
X-27561982Y-19357400D01*
X29411198Y-16380000D02*
X29393799Y-16725000D01*
X-11084002Y-19178600D02*
X-11362302Y-19347600D01*
X-3434902Y2187100D02*
X-3558202Y2531500D01*
X1033299Y-19603200D02*
X709899Y-19686400D01*
X23889398Y-18984300D02*
X23649698Y-18766500D01*
X19997698Y32259500D02*
X20121098Y31915100D01*
X23834098Y-127800D02*
X23463398Y-109500D01*
X29394699Y-16046400D02*
X29411198Y-16380000D01*
X-27228662Y2162500D02*
X-27354762Y2507000D01*
X19841398Y32590300D02*
X19997698Y32259500D01*
X24204698Y-109500D02*
X23834098Y-127800D01*
X-2574601Y-18526800D02*
X-2768901Y-18267000D01*
X20264798Y31195100D02*
X20283198Y30824500D01*
X-22597701Y-16380000D02*
X-22614202Y-16713500D01*
X-21121702Y6273800D02*
X-20879702Y6007500D01*
X-24681202Y-13261900D02*
X-24383502Y-13402600D01*
X3336098Y-17060100D02*
X3252899Y-17383600D01*
X-29331212Y-16713500D02*
X-29347722Y-16380000D01*
X10055498Y-14790700D02*
X10224998Y-14507500D01*
X-13352502Y28744000D02*
X-13571702Y28447900D01*
X24722499Y-19489700D02*
X24427498Y-19347600D01*
X-24529102Y-51700D02*
X-24888502Y40700D01*
X-2346902Y721400D02*
X-2622002Y970500D01*
X-9747702Y-17383600D02*
X-9861202Y-17693700D01*
X-18849002Y27923700D02*
X-19124102Y28172800D01*
X16407898Y-16380000D02*
X16391399Y-16713500D01*
X-2622002Y970500D02*
X-2871102Y1245600D01*
X24427498Y-19347600D02*
X24149198Y-19178600D01*
X-13352502Y32905000D02*
X-13164202Y32590300D01*
X3761298Y3251500D02*
X3706998Y2887100D01*
X13068599Y29389400D02*
X12945298Y29733900D01*
X1464698Y157600D02*
X1120298Y34200D01*
X13068599Y32259500D02*
X13224998Y32590300D01*
X29698Y-127800D02*
X-341002Y-109500D01*
X29698Y-13005000D02*
X363298Y-13021500D01*
X-15037402Y27359900D02*
X-15381802Y27236600D01*
X25691098Y-19737500D02*
X25355998Y-19686400D01*
X-14579702Y-19347600D02*
X-14858002Y-19178600D01*
X-25639142Y-19738500D02*
X-25972722Y-19755000D01*
X-12971002Y-19755000D02*
X-13316102Y-19737500D01*
X-11967402Y-19603200D02*
X-12290802Y-19686400D01*
X-25560832Y6919500D02*
X-25233002Y7077500D01*
X-20023402Y3622200D02*
X-20042701Y3238700D01*
X-13820802Y28172800D02*
X-14095902Y27923700D01*
X16150999Y-15088400D02*
X16262099Y-15398400D01*
X-3558202Y2531500D02*
X-3647602Y2887100D01*
X-25233002Y7077500D02*
X-24888502Y7203600D01*
X35399998Y-64250000D02*
X-35400002Y-64250000D01*
X19653098Y28744000D02*
X19433898Y28447900D01*
X24149198Y-19178600D02*
X23889398Y-18984300D01*
X-26882912Y1525500D02*
X-27070752Y1834700D01*
X-1261902Y-13261900D02*
X-951902Y-13150900D01*
X-24888502Y40700D02*
X-25233002Y166800D01*
X2828298Y-18267000D02*
X2633998Y-18526800D01*
X-951902Y-13150900D02*
X-631802Y-13070400D01*
X-22663201Y-17041500D02*
X-22743602Y-17361500D01*
X-23017602Y7296000D02*
X-22658202Y7203600D01*
X3404698Y-16380000D02*
X3404698Y-16380000D01*
X20714098Y5702700D02*
X20933298Y5998700D01*
X-25560832Y324800D02*
X-25870022Y512600D01*
X1321199Y-13261900D02*
X1618899Y-13402600D01*
X-26425012Y6273800D02*
X-26158701Y6515800D01*
X-29282272Y-15718500D02*
X-29201842Y-15398400D01*
X-10003302Y-17988700D02*
X-10172402Y-18267000D01*
X29265299Y-15398400D02*
X29345799Y-15718500D01*
X-29090812Y-15088400D02*
X-28950122Y-14790700D01*
X16162498Y34556100D02*
X16533198Y34574500D01*
X-10366702Y-18526800D02*
X-10584502Y-18766500D01*
X18613698Y27704500D02*
X18298998Y27516300D01*
X2930398Y5998700D02*
X3149598Y5702700D01*
X-27845172Y-19187900D02*
X-28111652Y-18990600D01*
X-13974602Y-19603200D02*
X-14284702Y-19489700D01*
X-23833801Y-13769300D02*
X-23586202Y-13993500D01*
X18613698Y33944400D02*
X18909799Y33725200D01*
X13694398Y-13070400D02*
X14014498Y-13150900D01*
X-11098502Y-13572000D02*
X-10832102Y-13769300D01*
X1120298Y7210100D02*
X1464698Y7086700D01*
X-26954292Y-19609100D02*
X-27264282Y-19498100D01*
X-16089102Y-15088400D02*
X-15948402Y-14790700D01*
X23897298Y-13769300D02*
X24163798Y-13572000D01*
X3149598Y1541700D02*
X2930398Y1245600D01*
X-27561982Y-19357400D02*
X-27845172Y-19187900D01*
X-21676702Y6731700D02*
X-21388002Y6515800D01*
X-12740802Y30453800D02*
X-12795202Y30089500D01*
X16903799Y34556100D02*
X17268198Y34501800D01*
X-25639142Y-13021500D02*
X-25311202Y-13070400D01*
X12699399Y-13021500D02*
X13032898Y-13005000D01*
X-28950122Y-17969200D02*
X-29090812Y-17671500D01*
X12783198Y30824500D02*
X12801499Y31195100D01*
X12945298Y29733900D02*
X12855898Y30089500D01*
X19997698Y29389400D02*
X19841398Y29058600D01*
X19184798Y28172800D02*
X18909799Y27923700D01*
X25599898Y313900D02*
X25269098Y157600D01*
X-16080802Y-17693700D02*
X-16194302Y-17383600D01*
X18909799Y27923700D02*
X18613698Y27704500D01*
X27644898Y-19347600D02*
X27349898Y-19489700D01*
X-20149702Y30089500D02*
X-20204102Y30453800D01*
X10065298Y-17988700D02*
X9923198Y-17693700D01*
X10646498Y-13993500D02*
X10893998Y-13769300D01*
X13224998Y32590300D02*
X13413199Y32905000D01*
X-23586202Y-18766500D02*
X-23833801Y-18990600D01*
X25269098Y7086700D02*
X25599898Y6930400D01*
X13694398Y-19689500D02*
X13366498Y-19738500D01*
X-14262602Y-13261900D02*
X-13952602Y-13150900D01*
X-3279902Y-15718500D02*
X-3199402Y-15398400D01*
X13366498Y-13021500D02*
X13694398Y-13070400D01*
X-2622002Y6273800D02*
X-2346902Y6522900D01*
X-20663802Y1525500D02*
X-20879702Y1236800D01*
X-28111652Y-18990600D02*
X-28359212Y-18766500D01*
X16533198Y34574500D02*
X16903799Y34556100D01*
X-24383502Y-19357400D02*
X-24681202Y-19498100D01*
X-12740802Y31195100D02*
X-12722502Y30824500D01*
X-13007902Y32259500D02*
X-12884502Y31915100D01*
X2416199Y-13993500D02*
X2640398Y-14241000D01*
X691198Y-13070400D02*
X1011198Y-13150900D01*
X1795499Y6930400D02*
X2110198Y6742100D01*
X12855898Y30089500D02*
X12801499Y30453800D01*
X-26634232Y-13070400D02*
X-26306302Y-13021500D01*
X21753598Y6742100D02*
X22068199Y6930400D01*
X23058798Y-14790700D02*
X23228198Y-14507500D01*
X-2050801Y6742100D02*
X-1736201Y6930400D01*
X14156599Y27923700D02*
X13881498Y28172800D01*
X15643598Y-18518900D02*
X15419398Y-18766500D01*
X-3278502Y1856300D02*
X-3434902Y2187100D01*
X-20099502Y4377900D02*
X-20042701Y4005600D01*
X-13820802Y33476100D02*
X-13571702Y33201100D01*
X10886098Y-18984300D02*
X10646498Y-18766500D01*
X-18238302Y34132700D02*
X-17907502Y34289000D01*
X-13007902Y29389400D02*
X-13164202Y29058600D01*
X-24991202Y-13150900D02*
X-24681202Y-13261900D01*
X13881498Y33476100D02*
X14156599Y33725200D01*
X13032898Y-19755000D02*
X12687898Y-19737500D01*
X-3327902Y-16725000D02*
X-3345302Y-16380000D01*
X-22313702Y166800D02*
X-22658202Y40700D01*
X-22743602Y-17361500D02*
X-22854602Y-17671500D01*
X-22313702Y7077500D02*
X-21985902Y6919500D01*
X15442598Y27236600D02*
X15098098Y27359900D01*
X-12722502Y30824500D02*
X-12722502Y30824500D01*
X-23164802Y-14507500D02*
X-22995302Y-14790700D01*
X1916698Y-19178600D02*
X1638399Y-19347600D01*
X-25972722Y-13005000D02*
X-25639142Y-13021500D01*
X16162498Y27092800D02*
X15798198Y27147200D01*
X-16101802Y34556100D02*
X-15737402Y34501800D01*
X27039798Y-19603200D02*
X26716398Y-19686400D01*
X17623798Y34412400D02*
X17968198Y34289000D01*
X20283198Y30824500D02*
X20264798Y30453800D01*
X-13952602Y-13150900D02*
X-13632502Y-13070400D01*
X-3088402Y-15088400D02*
X-2947702Y-14790700D01*
X13632399Y28447900D02*
X13413199Y28744000D01*
X27908698Y-13572000D02*
X28175098Y-13769300D01*
X-17907502Y34289000D02*
X-17563102Y34412400D01*
X-10172402Y-18267000D02*
X-10366702Y-18526800D01*
X-24383502Y-13402600D02*
X-24100302Y-13572000D01*
X-21676702Y512600D02*
X-21985902Y324800D01*
X15098098Y27359900D02*
X14767298Y27516300D01*
X-10584502Y-18766500D02*
X-10824202Y-18984300D01*
X27298598Y2187100D02*
X27142298Y1856300D01*
X-14392002Y33944400D02*
X-14095902Y33725200D01*
X11160498Y-13572000D02*
X11443698Y-13402600D01*
X27142298Y5388000D02*
X27298598Y5057200D01*
X-35400002Y-64250000D02*
X-35400002Y64250000D01*
X-3345302Y-16380000D02*
X-3328802Y-16046400D01*
X-29331212Y-16046400D02*
X-29282272Y-15718500D01*
X10893998Y-13769300D02*
X11160498Y-13572000D01*
X-27354762Y2507000D02*
X-27447172Y2866400D01*
X12352798Y-19686400D02*
X12029298Y-19603200D01*
X15798198Y27147200D02*
X15442598Y27236600D01*
X20102398Y3251500D02*
X20084098Y3622200D01*
X-1736201Y6930400D02*
X-1405402Y7086700D01*
X29698Y7372200D02*
X400298Y7353800D01*
X20283198Y30824500D02*
X20283198Y30824500D01*
X22743499Y34200D02*
X22398998Y157600D01*
X14156599Y33725200D02*
X14452698Y33944400D01*
X3494198Y5057200D02*
X3617598Y4712800D01*
X-22663201Y-15718500D02*
X-22614202Y-16046400D01*
X22726698Y-15718500D02*
X22807098Y-15398400D01*
X-27264282Y-13261900D02*
X-26954292Y-13150900D01*
X-20663802Y5718800D02*
X-20476002Y5409600D01*
X12051398Y-13150900D02*
X12371398Y-13070400D01*
X-21121702Y970500D02*
X-21388002Y728500D01*
X-27561982Y-13402600D02*
X-27264282Y-13261900D01*
X17623798Y27236600D02*
X17268198Y27147200D01*
X-23773402Y7372200D02*
X-23389902Y7352800D01*
X20714098Y1541700D02*
X20525898Y1856300D01*
X-3090302Y1541700D02*
X-3278502Y1856300D01*
X21457498Y721400D02*
X21182398Y970500D01*
X-14095902Y27923700D02*
X-14392002Y27704500D01*
X-2768901Y-18267000D02*
X-2938001Y-17988700D01*
X-10360302Y-14241000D02*
X-10163002Y-14507500D01*
X-1842802Y-13572000D02*
X-1559601Y-13402600D01*
X10234299Y-18267000D02*
X10065298Y-17988700D01*
X12029298Y-19603200D02*
X11719198Y-19489700D01*
X25914598Y502200D02*
X25599898Y313900D01*
X-10584502Y-13993500D02*
X-10360302Y-14241000D01*
X26210698Y721400D02*
X25914598Y502200D01*
X11741398Y-13261900D02*
X12051398Y-13150900D01*
X-2050801Y502200D02*
X-2346902Y721400D01*
X20264798Y30453800D02*
X20210498Y30089500D01*
X20210498Y30089500D02*
X20121098Y29733900D01*
X27142298Y1856300D02*
X26953998Y1541700D01*
X-1736201Y313900D02*
X-2050801Y502200D01*
X-16329502Y-16046400D02*
X-16280602Y-15718500D01*
X29345799Y-15718500D02*
X29394699Y-16046400D01*
X29342598Y-17060100D02*
X29259498Y-17383600D01*
X-2356802Y-18766500D02*
X-2574601Y-18526800D01*
X-25311202Y-19689500D02*
X-25639142Y-19738500D01*
X-20204102Y30453800D02*
X-20222501Y30824500D01*
X-28359212Y-13993500D02*
X-28111652Y-13769300D01*
X-9661402Y-15718500D02*
X-9612502Y-16046400D01*
X16391399Y-16713500D02*
X16342498Y-17041500D01*
X1795499Y313900D02*
X1464698Y157600D01*
X-10832102Y-13769300D02*
X-10584502Y-13993500D01*
X-19592402Y28744000D02*
X-19780701Y29058600D01*
X12801499Y31195100D02*
X12855898Y31559500D01*
X2633998Y-18526800D02*
X2416199Y-18766500D01*
X28422698Y-13993500D02*
X28646898Y-14241000D01*
X-26954292Y-13150900D02*
X-26634232Y-13070400D01*
X-23586202Y-13993500D02*
X-23362002Y-14241000D01*
X2837598Y-14507500D02*
X3007098Y-14790700D01*
X-19937002Y29389400D02*
X-20060402Y29733900D01*
X22926398Y-17693700D02*
X22812898Y-17383600D01*
X20210498Y31559500D02*
X20264798Y31195100D01*
X-3647602Y4357200D02*
X-3558202Y4712800D01*
X-19937002Y32259500D02*
X-19780701Y32590300D01*
X27565698Y3251500D02*
X27511398Y2887100D01*
X2681298Y6273800D02*
X2930398Y5998700D01*
X-26425012Y970500D02*
X-26667042Y1236800D01*
X-1284002Y-19489700D02*
X-1579002Y-19347600D01*
X14014498Y-19609100D02*
X13694398Y-19689500D01*
X-20023402Y3622200D02*
X-20023402Y3622200D01*
X22661198Y-16380000D02*
X22677698Y-16046400D01*
X-341002Y7353800D02*
X29698Y7372200D01*
X-15575302Y-18526800D02*
X-15769602Y-18267000D01*
X-3276802Y-17060100D02*
X-3327902Y-16725000D01*
X22677698Y-16046400D02*
X22726698Y-15718500D01*
X-28950122Y-14790700D02*
X-28780682Y-14507500D01*
X-303902Y-13021500D02*
X29698Y-13005000D01*
X-15357502Y-18766500D02*
X-15575302Y-18526800D01*
X-24681202Y-19498100D02*
X-24991202Y-19609100D01*
X17968198Y34289000D02*
X18298998Y34132700D01*
X-15357502Y-13993500D02*
X-15109902Y-13769300D01*
X28844199Y-14507500D02*
X29013599Y-14790700D01*
X-28111652Y-13769300D02*
X-27845172Y-13572000D01*
X-2356802Y-13993500D02*
X-2109302Y-13769300D01*
X-16101802Y27092800D02*
X-16472502Y27074500D01*
X-15117802Y-18984300D02*
X-15357502Y-18766500D01*
X-35400002Y64250000D02*
X-35400002Y64250000D01*
X3404698Y-16380000D02*
X3387298Y-16725000D01*
X27584098Y3622200D02*
X27565698Y3251500D01*
X-11657302Y-19489700D02*
X-11967402Y-19603200D01*
X20084098Y3622200D02*
X20102398Y3992800D01*
X-23389902Y7352800D02*
X-23017602Y7296000D01*
X-16346002Y-16380000D02*
X-16329502Y-16046400D01*
X35399998Y64250000D02*
X35399998Y-64250000D01*
X27017798Y-13150900D02*
X27327799Y-13261900D01*
X25702599Y-13021500D02*
X26036198Y-13005000D01*
X25032598Y-19603200D02*
X24722499Y-19489700D01*
X19184798Y33476100D02*
X19433898Y33201100D01*
X29013599Y-14790700D02*
X29154298Y-15088400D01*
X-20042701Y4005600D02*
X-20023402Y3622200D01*
X16391399Y-16046400D02*
X16407898Y-16380000D01*
X3139498Y-17693700D02*
X2997298Y-17988700D01*
X-22597701Y-16380000D02*
X-22597701Y-16380000D01*
X1902099Y-13572000D02*
X2168599Y-13769300D01*
X-11989402Y-13150900D02*
X-11679402Y-13261900D01*
X2930398Y1245600D02*
X2681298Y970500D01*
X22068199Y313900D02*
X21753598Y502200D01*
X23228198Y-14507500D02*
X23425498Y-14241000D01*
X-23773402Y-127800D02*
X-24156802Y-108500D01*
X14905398Y-13572000D02*
X15171898Y-13769300D01*
X11424198Y-19347600D02*
X11145899Y-19178600D01*
X26716398Y-19686400D02*
X26381298Y-19737500D01*
X-15737402Y34501800D02*
X-15381802Y34412400D01*
X-16280602Y-15718500D02*
X-16200102Y-15398400D01*
X15798198Y34501800D02*
X16162498Y34556100D01*
X3337899Y5388000D02*
X3494198Y5057200D01*
X12687898Y-19737500D02*
X12352798Y-19686400D01*
X2110198Y6742100D02*
X2406298Y6522900D01*
X-12971002Y-13005000D02*
X-12637402Y-13021500D01*
X-9613402Y-16725000D02*
X-9664602Y-17060100D01*
X-16472502Y27074500D02*
X-16843102Y27092800D01*
X-22995302Y-14790700D02*
X-22854602Y-15088400D01*
X-3328802Y-16046400D02*
X-3279902Y-15718500D01*
X-22658202Y7203600D02*
X-22313702Y7077500D01*
X20369498Y5057200D02*
X20525898Y5388000D01*
X27298598Y5057200D02*
X27421999Y4712800D01*
X27565698Y3992800D02*
X27584098Y3622200D01*
X-14095902Y33725200D02*
X-13820802Y33476100D01*
X27421999Y2531500D02*
X27298598Y2187100D01*
X17268198Y27147200D02*
X16903799Y27092800D01*
X3337899Y1856300D02*
X3149598Y1541700D01*
X22918098Y-15088400D02*
X23058798Y-14790700D01*
X-15581702Y-14241000D02*
X-15357502Y-13993500D01*
X25914598Y6742100D02*
X26210698Y6522900D01*
X-3702002Y3992800D02*
X-3647602Y4357200D01*
X-13571702Y28447900D02*
X-13820802Y28172800D01*
X3779698Y3622200D02*
X3779698Y3622200D01*
X9923198Y-17693700D02*
X9809698Y-17383600D01*
X-22854602Y-15088400D02*
X-22743602Y-15398400D01*
X-22614202Y-16046400D02*
X-22597701Y-16380000D01*
X27421999Y4712800D02*
X27511398Y4357200D01*
X-10163002Y-14507500D02*
X-9993602Y-14790700D01*
X3779698Y3622200D02*
X3761298Y3251500D01*
X-12884502Y29733900D02*
X-13007902Y29389400D01*
X15442598Y34412400D02*
X15798198Y34501800D01*
X23649698Y-13993500D02*
X23897298Y-13769300D01*
X-315402Y-19737500D02*
X-650502Y-19686400D01*
X22678598Y-16725000D02*
X22661198Y-16380000D01*
X2176499Y-18984300D02*
X1916698Y-19178600D01*
X-26882912Y5718800D02*
X-26667042Y6007500D01*
X14014498Y-13150900D02*
X14324498Y-13261900D01*
X-12795202Y31559500D02*
X-12740802Y31195100D01*
X29698Y-19755000D02*
X-315402Y-19737500D01*
X-20191902Y4737300D02*
X-20099502Y4377900D01*
X14622198Y-13402600D02*
X14905398Y-13572000D01*
X22743499Y7210100D02*
X23099098Y7299400D01*
X-20099502Y2866400D02*
X-20191902Y2507000D01*
X20246198Y4712800D02*
X20369498Y5057200D01*
X16342498Y-15718500D02*
X16391399Y-16046400D01*
X15419398Y-18766500D02*
X15171898Y-18990600D01*
X-3193601Y-17383600D02*
X-3276802Y-17060100D01*
X16010298Y-14790700D02*
X16150999Y-15088400D01*
X-12290802Y-19686400D02*
X-12625902Y-19737500D01*
X-22854602Y-17671500D02*
X-22995302Y-17969200D01*
X20156799Y4357200D02*
X20246198Y4712800D01*
X-17907502Y27359900D02*
X-18238302Y27516300D01*
X-13651202Y-19686400D02*
X-13974602Y-19603200D01*
X-27070752Y5409600D02*
X-26882912Y5718800D01*
X20246198Y2531500D02*
X20156799Y2887100D01*
X-705302Y7299400D02*
X-341002Y7353800D01*
X3339198Y-15718500D02*
X3388199Y-16046400D01*
X-20879702Y1236800D02*
X-21121702Y970500D01*
X24446998Y-13402600D02*
X24744698Y-13261900D01*
X-1579002Y-19347600D02*
X-1857301Y-19178600D01*
X-24991202Y-19609100D02*
X-25311202Y-19689500D01*
X28646898Y-14241000D02*
X28844199Y-14507500D01*
X-15779002Y-14507500D02*
X-15581702Y-14241000D01*
X-24100302Y-19187900D02*
X-24383502Y-19357400D01*
X-20204102Y31195100D02*
X-20149702Y31559500D01*
X23068599Y-17988700D02*
X22926398Y-17693700D01*
X2110198Y502200D02*
X1795499Y313900D01*
X-27228662Y5081800D02*
X-27070752Y5409600D01*
X-3080102Y-17693700D02*
X-3193601Y-17383600D01*
X-2871102Y5998700D02*
X-2622002Y6273800D01*
X-27447172Y4377900D02*
X-27354762Y4737300D01*
X16407898Y-16380000D02*
X16407898Y-16380000D01*
X-3647602Y2887100D02*
X-3702002Y3251500D01*
X-973902Y-19603200D02*
X-1284002Y-19489700D01*
X21182398Y6273800D02*
X21457498Y6522900D01*
X-20879702Y6007500D02*
X-20663802Y5718800D01*
X-16194302Y-17383600D02*
X-16277402Y-17060100D01*
X-2581001Y-14241000D02*
X-2356802Y-13993500D01*
X26953998Y5702700D02*
X27142298Y5388000D01*
X-19780701Y29058600D02*
X-19937002Y29389400D01*
X-14560302Y-13402600D02*
X-14262602Y-13261900D01*
X-1405402Y7086700D02*
X-1061002Y7210100D01*
X16533198Y27074500D02*
X16162498Y27092800D01*
X-9852902Y-15088400D02*
X-9741902Y-15398400D01*
X-2778302Y-14507500D02*
X-2581001Y-14241000D01*
X23425498Y-14241000D02*
X23649698Y-13993500D01*
X17268198Y34501800D02*
X17623798Y34412400D01*
X22729799Y-17060100D02*
X22678598Y-16725000D01*
X-18553002Y33944400D02*
X-18238302Y34132700D01*
X15840899Y-18252400D02*
X15643598Y-18518900D01*
X400298Y-109500D02*
X29698Y-127800D01*
X-27447172Y2866400D02*
X-27504002Y3238700D01*
X-15109902Y-13769300D02*
X-14843502Y-13572000D01*
X26381298Y-19737500D02*
X26036198Y-19755000D01*
X-20222501Y30824500D02*
X-20204102Y31195100D01*
X-18849002Y33725200D02*
X-18553002Y33944400D01*
X-2346902Y6522900D02*
X-2050801Y6742100D01*
X-27504002Y4005600D02*
X-27447172Y4377900D01*
X-27354762Y4737300D02*
X-27228662Y5081800D01*
X-22614202Y-16713500D02*
X-22663201Y-17041500D01*
X-11679402Y-13261900D02*
X-11381702Y-13402600D01*
X-25870022Y6731700D02*
X-25560832Y6919500D01*
X-9664602Y-17060100D02*
X-9747702Y-17383600D01*
X-20060402Y31915100D02*
X-19937002Y32259500D01*
X-28583402Y-14241000D02*
X-28359212Y-13993500D01*
X10428598Y-18526800D02*
X10234299Y-18267000D01*
X22807098Y-15398400D02*
X22918098Y-15088400D01*
X-2938001Y-17988700D02*
X-3080102Y-17693700D01*
X-14706602Y34132700D02*
X-14392002Y33944400D01*
X-19373202Y28447900D02*
X-19592402Y28744000D01*
X9726498Y-17060100D02*
X9675399Y-16725000D01*
X-17563102Y27236600D02*
X-17907502Y27359900D01*
X13032898Y-13005000D02*
X13366498Y-13021500D01*
X-2871102Y1245600D02*
X-3090302Y1541700D01*
X11145899Y-19178600D02*
X10886098Y-18984300D01*
X-3720302Y3622200D02*
X-3702002Y3992800D01*
X15171898Y-13769300D02*
X15419398Y-13993500D01*
X28422698Y-18766500D02*
X28182998Y-18984300D01*
X2168599Y-13769300D02*
X2416199Y-13993500D01*
M02*
